<svg width="120" height="100" viewBox="0 0 120 100" fill="none" xmlns="http://www.w3.org/2000/svg">
<mask id="mask0_4014_5872" style="mask-type:alpha" maskUnits="userSpaceOnUse" x="0" y="0" width="120" height="100">
<rect width="120" height="100" fill="#D9D9D9"/>
</mask>
<g mask="url(#mask0_4014_5872)">
<path fill-rule="evenodd" clip-rule="evenodd" d="M73.7271 5.11508C73.6089 5.17651 64.6421 14.0919 53.8008 24.927C39.1619 39.5577 34.0447 44.7142 33.9153 44.965C33.5118 45.7476 33.8566 46.7499 34.6903 47.2177C34.9072 47.3394 35.2322 47.3494 39.6093 47.3684C43.1907 47.3839 44.3091 47.4093 44.3514 47.4758C44.3818 47.5236 44.4071 51.5113 44.4078 56.3372C44.4086 63.0675 44.3888 65.1316 44.3229 65.1974C44.2596 65.2608 43.6197 65.2834 41.8887 65.2834H39.5404V65.1178C39.5404 65.0257 39.6388 64.8588 39.7619 64.7419C39.8838 64.6262 40.145 64.3459 40.3425 64.119L40.7017 63.7063L40.6945 61.226C40.6906 59.8617 40.6776 58.7358 40.6658 58.7239C40.6539 58.7121 40.4234 58.9507 40.1534 59.2542C39.8835 59.5577 39.3184 60.1766 38.8977 60.6295C38.0622 61.5288 36.2366 63.5401 35.783 64.061C35.6262 64.2411 35.1795 64.7267 34.7903 65.1402C34.0052 65.9743 33.743 66.4246 33.7419 66.9402C33.7406 67.5346 34.0941 68.1309 34.6299 68.4382L34.9941 68.6471L57.1585 68.6485L57.4599 68.4987C57.8537 68.3029 97.0414 29.1528 97.2642 28.7325C97.472 28.3407 97.4679 27.5565 97.2561 27.1412C97.076 26.7881 96.6567 26.4279 96.3153 26.3329C96.165 26.291 94.2555 26.263 91.5414 26.2628C87.5252 26.2624 87.0056 26.2497 86.9056 26.1498C86.8137 26.0578 86.7932 25.8474 86.7932 24.9983C86.7932 24.348 86.7668 23.9682 86.7226 23.9831C86.6839 23.9962 77.9557 32.7017 67.3267 43.3287C56.0177 54.6356 47.9616 62.6372 47.9055 62.6185C47.8264 62.5921 47.8062 61.2853 47.7899 55.1463C47.7791 51.0541 47.7876 47.6346 47.8086 47.5473L47.8469 47.3887L52.5535 47.3683C57.024 47.349 57.2728 47.3411 57.5108 47.2117C57.864 47.0195 96.9882 7.90419 97.2279 7.50359C97.3925 7.22837 97.4202 7.103 97.4177 6.64356C97.4156 6.24719 97.3798 6.04936 97.2816 5.89178C97.0646 5.54324 96.7979 5.27983 96.5151 5.13427C96.257 5.00152 95.9335 4.99773 85.0956 5.00052C75.1345 5.0031 73.9189 5.01534 73.7271 5.11508ZM91.4163 8.44282C91.4457 8.4905 84.3023 15.6864 73.7544 26.2346L56.0431 43.9464L47.9886 43.9511C43.5587 43.9538 39.8939 43.9539 39.8447 43.9515C39.7955 43.9491 39.7552 43.9071 39.7552 43.8582C39.7552 43.8093 47.7208 35.8029 57.4567 26.0661L75.1582 8.36277H83.2625C89.1579 8.36277 91.3803 8.38461 91.4163 8.44282ZM91.3753 29.6985C91.4604 29.7532 87.7991 33.4517 73.7271 47.526L55.9715 65.2845L53.221 65.266C50.9647 65.2509 50.4647 65.2299 50.4378 65.1493C50.418 65.0899 57.4236 58.0321 68.116 47.3392L85.827 29.6274L88.5474 29.6285C90.1669 29.6292 91.3113 29.6575 91.3753 29.6985ZM96.3312 34.9795C95.4146 35.8753 94.6656 36.6324 94.6666 36.662C94.6678 36.6915 96.3278 36.7157 98.3558 36.7157C101.82 36.7157 102.043 36.7233 102.043 36.841C102.043 36.9123 94.4303 44.5788 84.3768 54.632L66.7107 72.2976L45.447 72.3263L45.0637 72.6886C44.8529 72.8878 44.6193 73.1706 44.5446 73.3169C44.3602 73.6785 44.3642 74.3287 44.5535 74.7567C44.7232 75.1405 45.1885 75.5647 45.5497 75.665C45.7055 75.7083 47.5619 75.7365 50.3155 75.7374C53.0319 75.7383 54.8687 75.7659 54.9333 75.8068C55.0277 75.8664 55.043 76.9375 55.0595 84.6154C55.0724 90.6394 55.0548 93.4 55.0027 93.4971C54.9297 93.6337 54.8519 93.6375 52.5557 93.6193C50.8238 93.6055 50.1766 93.5779 50.1563 93.5168C50.1409 93.4707 50.4034 93.1324 50.7396 92.765L51.3508 92.0969L51.3522 89.5731C51.3529 88.1849 51.3406 87.0492 51.3247 87.0492C51.3089 87.0492 51.0431 87.3337 50.7341 87.6813C50.1944 88.2885 49.4282 89.1326 48.0256 90.6649C47.6652 91.0587 46.9053 91.8941 46.3371 92.5213C44.3935 94.6666 44.4089 94.6442 44.4089 95.3152C44.4089 96.0255 44.756 96.5827 45.3754 96.8668C45.6492 96.9925 46.1478 96.9983 56.7451 96.9998C67.5735 97.0013 67.8352 96.9982 68.1287 96.8622C68.5507 96.6666 107.788 57.4196 107.947 57.034C108.089 56.691 108.088 55.9739 107.946 55.6332C107.818 55.3268 107.475 54.9495 107.163 54.7729C106.968 54.6626 106.499 54.6477 102.222 54.6152L97.4966 54.5794L97.4769 53.4464C97.4648 52.7573 97.43 52.3225 97.3879 52.3366C97.3498 52.3494 88.6271 61.051 78.0041 71.6735C67.1662 82.5108 58.6351 90.9871 58.5655 90.9871C58.4487 90.9871 58.4415 90.5507 58.4415 83.4422C58.4415 77.3076 58.459 75.8829 58.5354 75.8195C58.6003 75.7656 60.0724 75.7354 63.3143 75.7213L67.9994 75.7009L68.3216 75.4683C68.4988 75.3403 77.4578 66.4156 88.2304 55.6356C101.696 42.1609 107.857 35.9491 107.944 35.7589C108.041 35.5493 108.065 35.3497 108.046 34.9355C108.023 34.462 107.99 34.3452 107.795 34.0638C107.658 33.867 107.429 33.6624 107.213 33.5447L106.856 33.3506L97.9978 33.3507L96.3312 34.9795ZM27.3243 62.0015C19.8469 69.4796 16.308 73.0664 16.2063 73.27C16.0054 73.6725 16.001 74.4151 16.1974 74.8001C16.3959 75.1891 16.9274 75.6363 17.2557 75.6907C17.4038 75.7151 19.5402 75.7355 22.0032 75.7359C25.3899 75.7365 26.5024 75.7576 26.5674 75.8226C26.6332 75.8885 26.6533 77.9655 26.6533 84.7352V93.5619L26.4922 93.6012C26.4036 93.6228 25.3162 93.6315 24.0758 93.6205C22.0206 93.6022 21.8206 93.5898 21.8206 93.4803C21.8206 93.4142 22.0864 93.0667 22.4113 92.7081L23.0019 92.0559V89.5884C23.0019 88.2221 22.9739 87.1208 22.9391 87.1208C22.9046 87.1208 22.5908 87.435 22.2417 87.8189C21.8926 88.2028 21.1518 89.0164 20.5953 89.6268C20.0388 90.2371 18.8524 91.5394 17.9589 92.5206C17.0653 93.5018 16.2687 94.4331 16.1886 94.5901C16.0702 94.8221 16.0481 94.9772 16.0702 95.4193C16.1027 96.0676 16.3098 96.4549 16.7916 96.7681L17.0953 96.9656L28.2877 96.9841C38.6101 97.0012 39.5006 96.9934 39.7429 96.8832C39.9119 96.8065 42.032 94.742 45.6797 91.1025L51.3536 85.4412V80.5699L38.2872 93.6363H35.5172C33.5547 93.6363 32.7329 93.6129 32.6979 93.5563C32.6686 93.5088 35.4787 90.6459 39.6174 86.5068C43.4503 82.6736 46.5676 79.5184 46.5446 79.4954C46.5216 79.4724 46.2168 79.4373 45.8675 79.4175C45.5181 79.3977 45.0228 79.3303 44.7668 79.2679C44.2685 79.1462 43.4793 78.8043 43.2 78.589C43.106 78.5166 42.9772 78.4574 42.9135 78.4574C42.8497 78.4574 39.9788 81.2766 36.5334 84.7223C33.088 88.1679 30.2287 90.9871 30.1792 90.9871C30.1074 90.9871 30.0928 89.4492 30.1074 83.3798L30.1256 75.7725L34.8509 75.7367C39.5581 75.701 39.5771 75.7003 39.8268 75.5442C39.9646 75.458 40.2223 75.239 40.3995 75.0577L40.7217 74.7281L40.7266 73.9615C40.7298 73.4572 40.7727 73.0617 40.852 72.8055C40.938 72.5277 40.9498 72.4019 40.8931 72.3669C40.8493 72.3398 36.6207 72.3143 31.496 72.3102C26.3715 72.3061 22.1545 72.3021 22.1249 72.3014C22.0953 72.3006 22.0712 72.2599 22.0712 72.2109C22.0712 72.1619 25.7051 68.4809 30.1466 64.0308C37.0671 57.097 39.0961 55.0169 40.4681 53.4491L40.7054 53.178L40.7087 51.0711L38.2931 51.0317L27.3243 62.0015ZM102.02 58.0951C102.052 58.179 97.2983 62.9757 84.3515 75.9236L66.6391 93.6374L63.8529 93.6189C62.0717 93.6071 61.058 93.5746 61.0427 93.5287C61.0296 93.4893 69.001 85.4747 78.7569 75.7187L96.495 57.9803H99.2354C101.683 57.9803 101.98 57.9926 102.02 58.0951Z" fill="#FF7E36"/>
<path fill-rule="evenodd" clip-rule="evenodd" d="M36.0077 4.4679C35.6684 5.84891 35.3646 7.01816 35.3325 7.06603C35.3004 7.11401 34.1778 7.42504 32.8377 7.75716C31.4977 8.08928 30.3608 8.39735 30.3113 8.4418C30.2617 8.48613 31.3493 8.79762 32.728 9.13384C34.4055 9.54289 35.2642 9.80332 35.3232 9.92094C35.3718 10.0175 35.6807 11.1897 36.0098 12.5258C36.3389 13.8619 36.6454 14.9133 36.6907 14.8622C36.7361 14.8112 37.0427 13.6668 37.3721 12.319C37.7014 10.9713 37.9858 9.85039 38.0039 9.82817C38.022 9.80583 39.2002 9.49217 40.622 9.13111C42.5308 8.64638 43.1329 8.45433 42.9237 8.39678C42.7679 8.35404 41.595 8.05121 40.3172 7.72388L37.994 7.12883L37.3525 4.58643C36.9997 3.18798 36.6916 2.02431 36.6678 2.00038C36.644 1.97645 36.347 3.08689 36.0077 4.4679ZM19.6688 15.362C19.4463 16.2899 19.0477 17.9591 18.783 19.0717L18.3016 21.0944L17.8918 21.2053C17.6665 21.2664 16.1817 21.6275 14.5923 22.0079C13.003 22.3883 11.4986 22.7562 11.2492 22.8254C10.7499 22.9641 10.3849 22.8594 16.583 24.357L18.2904 24.7695L18.5826 25.981C18.7435 26.6474 19.1429 28.3135 19.4706 29.6836C19.8101 31.104 20.1018 32.1082 20.1491 32.0201C20.1948 31.935 20.6012 30.3011 21.0522 28.3893C21.5034 26.4774 21.937 24.8618 22.016 24.7991C22.0948 24.7364 23.7689 24.3021 25.736 23.8337C27.7032 23.3655 29.2909 22.9606 29.2643 22.9338C29.2376 22.907 27.5819 22.4899 25.5849 22.0068C23.5879 21.5236 21.939 21.1081 21.9208 21.0831C21.9025 21.0583 21.5136 19.4481 21.0564 17.5048C20.5993 15.5616 20.1911 13.905 20.1493 13.8234C20.1073 13.7418 19.8912 14.4342 19.6688 15.362Z" fill="#FF7E36"/>
</g>
</svg>
