<svg width="120" height="100" viewBox="0 0 120 100" fill="none" xmlns="http://www.w3.org/2000/svg">
<mask id="mask0_4014_5876" style="mask-type:alpha" maskUnits="userSpaceOnUse" x="0" y="0" width="120" height="100">
<rect width="120" height="100" fill="#D9D9D9"/>
</mask>
<g mask="url(#mask0_4014_5876)">
<path fill-rule="evenodd" clip-rule="evenodd" d="M30.128 1.19069C27.9128 1.73561 25.769 3.51595 24.7215 5.68072L24.0721 7.02292L24.0192 47.0298C23.9712 83.2953 23.9966 87.1422 24.2911 88.1667C24.9534 90.4711 26.4997 92.2993 28.7162 93.3981L29.9262 93.9979L40.6755 94.0573L51.4248 94.1167V92.4822V90.8474L41.0792 90.7894C31.4359 90.7351 30.6856 90.7053 30.0271 90.3507C29.0382 89.818 28.2475 89.0326 27.7376 88.0771L27.3019 87.2604V47.55C27.3019 9.19586 27.3148 7.81508 27.6782 7.125C28.2049 6.12479 28.9814 5.32507 29.9262 4.80934L30.7336 4.36875L51.5762 4.31403L72.4187 4.25932V11.299C72.4187 17.9003 72.4445 18.4087 72.8333 19.4595C73.3814 20.9412 74.7718 22.4769 76.2131 23.1929L77.3644 23.7646L84.581 23.8252L91.7977 23.8859V54.9096V85.9333H93.4126H95.0275V53.7252V21.5173L84.883 11.2586L74.7387 1L52.7361 1.02082C40.6347 1.03246 30.4611 1.10882 30.128 1.19069ZM84.1785 20.559C78.7368 20.6229 77.9508 20.5345 76.9627 19.7484C75.7593 18.7911 75.6578 18.2004 75.653 12.1283L75.6485 6.61683L82.5131 13.5575L89.3779 20.4979L84.1785 20.559ZM30.4308 10.8V12.4333H32.0457H33.6607V10.8V9.16667H32.0457H30.4308V10.8ZM36.8905 10.8V12.4333H38.5054H40.1203V10.8V9.16667H38.5054H36.8905V10.8ZM43.3502 10.8V12.4333H44.9651H46.58V10.8V9.16667H44.9651H43.3502V10.8ZM30.4308 20.6V22.2333H49.8098H69.1888V20.6V18.9667H49.8098H30.4308V20.6ZM30.4308 30.4V32.0333H49.8098H69.1888V30.4V28.7667H49.8098H30.4308V30.4ZM30.4308 40.2V41.8333H59.4993H88.5678V40.2V38.5667H59.4993H30.4308V40.2ZM30.4308 50V51.6333H59.4993H88.5678V50V48.3667H59.4993H30.4308V50ZM30.4308 59.8V61.4333H45.7725H61.1143V59.8V58.1667H45.7725H30.4308V59.8ZM70.0007 61.2508C69.2682 61.4072 68.0471 62.5906 67.2711 63.896C66.9284 64.4726 66.6645 64.6267 65.5234 64.9166C62.9569 65.5685 62.2027 66.599 62.3797 69.2113C62.4803 70.6956 62.4567 70.8209 61.9912 71.2633C60.9855 72.2188 60.3068 73.5014 60.3068 74.4463C60.3068 75.4845 60.4897 75.8926 61.52 77.1542L62.2703 78.0729L59.1644 83.4833C54.4967 91.6139 54.1917 92.2006 54.334 92.7743C54.5052 93.4638 55.2349 94.1 55.8549 94.1C56.1403 94.1 57.4922 93.7901 58.8596 93.4111L61.3454 92.7223L61.5004 93.1559C61.5858 93.3944 61.9167 94.6002 62.2356 95.8354C62.8749 98.3109 63.3273 99 64.3126 99C64.6384 99 65.092 98.8393 65.3207 98.6427C65.5494 98.4463 67.1001 95.8967 68.7665 92.9771L71.7963 87.6687L72.9443 87.2165L74.0921 86.7641L75.0217 87.1759C75.9329 87.5797 76.0111 87.693 78.9712 92.9175C80.6321 95.8489 82.1708 98.4165 82.3904 98.6235C82.9461 99.1472 83.9569 99.1072 84.4831 98.5406C84.7455 98.2581 85.1842 97.0686 85.623 95.4497C86.0153 94.0024 86.3613 92.7989 86.3922 92.775C86.423 92.7511 87.5383 93.0359 88.8706 93.4077C90.203 93.7797 91.547 94.0875 91.8572 94.092C92.5938 94.1024 93.4126 93.2782 93.4126 92.5265C93.4126 92.1561 92.0381 89.551 89.5033 85.1167L85.5938 78.2777L86.401 77.3587C88.2138 75.2944 88.2138 73.7058 86.401 71.6415L85.594 70.7225L85.6925 69.1725C85.856 66.5939 85.0962 65.5663 82.5438 64.9152C81.4021 64.624 81.1336 64.4668 80.7599 63.8705C80.1117 62.8364 79.2702 61.8433 78.7502 61.4987C78.0606 61.0415 76.676 61.1304 75.2902 61.7202L74.0566 62.2455L73.1064 61.8335C71.7739 61.2557 70.8175 61.0764 70.0007 61.2508ZM72.4627 65.1926C72.8755 65.3709 73.5735 65.5167 74.014 65.5167C74.8057 65.5167 75.0346 65.4526 76.4984 64.8205L77.2473 64.4973L77.7507 65.366C78.6272 66.8789 79.5259 67.5918 81.0444 67.9791L82.411 68.3278L82.3419 69.7421C82.2606 71.4057 82.5773 72.3362 83.6232 73.5071C84.0112 73.9416 84.3287 74.3883 84.3287 74.5C84.3287 74.6117 84.0231 75.0478 83.6496 75.4692C82.496 76.7711 82.2626 77.4282 82.3411 79.1558L82.411 80.6936L81.2014 80.9721C79.6458 81.3302 78.7098 81.9978 77.9718 83.2759C77.3107 84.4207 77.0985 84.4819 75.8219 83.8962C74.701 83.3817 73.3662 83.3817 72.2453 83.8962C71.0171 84.4599 70.7371 84.409 70.249 83.5344C69.4751 82.1469 68.5201 81.4027 67.0228 81.0209L65.6562 80.6722L65.7253 79.2579C65.8066 77.5943 65.4899 76.6638 64.444 75.4929C64.056 75.0584 63.7385 74.5827 63.7385 74.4355C63.7385 74.2885 64.0229 73.8981 64.3703 73.5684C65.3897 72.601 65.8088 71.4236 65.7267 69.7576L65.6562 68.3299L67.0535 67.9724C68.2377 67.6694 68.5766 67.4767 69.274 66.7088C69.7268 66.2104 70.2517 65.5093 70.4404 65.1504C70.8126 64.443 70.7218 64.4411 72.4627 65.1926ZM71.6625 66.8242C69.6338 67.4924 67.8281 69.1308 66.8101 71.2272C66.3193 72.2378 66.2618 72.581 66.2618 74.5C66.2618 76.4588 66.3131 76.7495 66.8557 77.8688C67.6135 79.4321 69.1571 80.9933 70.7028 81.7598C71.8094 82.3086 72.0969 82.3604 74.0336 82.3604C75.9695 82.3604 76.2581 82.3084 77.3644 81.7604C78.91 80.9947 80.4551 79.4321 81.2121 77.8688C81.7539 76.7499 81.8054 76.458 81.8054 74.5C81.8054 72.5412 81.7541 72.2505 81.2115 71.1312C80.4549 69.5702 78.9094 68.0057 77.3757 67.2478C76.3657 66.7488 75.8863 66.6461 74.3477 66.5983C73.192 66.5626 72.2043 66.6457 71.6625 66.8242ZM30.4308 69.6V71.2333H42.5427H54.6546V69.6V67.9667H42.5427H30.4308V69.6ZM76.1778 70.3793C77.7739 71.207 78.562 72.569 78.562 74.5C78.562 77.2763 76.7804 79.0778 74.0336 79.0793C72.1363 79.0803 70.7777 78.2826 69.9729 76.6954C68.3014 73.3987 70.7622 69.5798 74.361 69.8856C74.9299 69.9338 75.7474 70.1561 76.1778 70.3793ZM65.6235 84.1111C66.3785 84.279 66.907 84.525 67.0939 84.7959C68.1718 86.358 68.4044 86.8357 68.2461 87.1624C67.7865 88.1116 65.0365 92.8638 64.9438 92.8691C64.8853 92.8723 64.6695 92.2162 64.4644 91.4109C64.0689 89.8582 63.4516 88.9958 62.7358 88.9958C62.5073 88.9958 61.6855 89.1737 60.9098 89.3911C60.134 89.6085 59.4993 89.7421 59.4993 89.6876C59.4993 89.6332 60.3322 88.1253 61.3502 86.3366L63.2011 83.0844L63.8231 83.4668C64.1652 83.6771 64.9753 83.967 65.6235 84.1111ZM86.4848 86.4948C87.4976 88.2635 88.3125 89.7237 88.2957 89.7398C88.2788 89.7562 87.5234 89.5755 86.617 89.3386C84.2494 88.72 83.9435 88.9248 83.1783 91.6437L82.8064 92.9646L81.1182 90.0257C79.7393 87.6251 79.4728 87.0277 79.6646 86.7651C79.7936 86.5883 80.0556 86.182 80.2468 85.8623C81.031 84.5495 81.2702 84.3623 82.5022 84.0979C83.1724 83.9541 83.8801 83.7138 84.0751 83.5642C84.2701 83.4145 84.4777 83.2892 84.5364 83.2857C84.5952 83.282 85.4719 84.7261 86.4848 86.4948Z" fill="#FF7E36"/>
</g>
</svg>
