<svg width="120" height="100" viewBox="0 0 120 100" fill="none" xmlns="http://www.w3.org/2000/svg">
<mask id="mask0_4014_5880" style="mask-type:alpha" maskUnits="userSpaceOnUse" x="0" y="0" width="120" height="100">
<rect width="120" height="100" fill="#D9D9D9"/>
</mask>
<g mask="url(#mask0_4014_5880)">
<path fill-rule="evenodd" clip-rule="evenodd" d="M41.4425 3.76167L35.9996 6.51248V11.2438V15.9749L32.0769 17.949L28.1542 19.923L24.2602 17.9636L20.3663 16.0041L20.2559 14.928C20.1267 13.6696 19.7715 12.9035 18.9206 12.048C17.8962 11.018 17.2289 10.7589 15.6014 10.7589C13.9738 10.7589 13.3066 11.018 12.2821 12.048C11.2577 13.078 11 13.7489 11 15.3853C11 17.0217 11.2577 17.6926 12.2821 18.7226C13.3066 19.7526 13.9738 20.0117 15.6014 20.0117C17.031 20.0117 17.4723 19.8747 18.5913 19.0821C18.8816 18.8766 19.512 19.1302 22.7592 20.7603L26.5851 22.6805V27.4134V32.1461L31.2924 34.5141L35.9996 36.8822V39.5436V42.2051H32.4001C28.9809 42.2051 28.7675 42.2276 28.1389 42.6536C27.7748 42.9001 27.2762 43.4014 27.0311 43.7674C26.6266 44.3706 26.5851 44.6611 26.5851 46.8785C26.5851 49.5719 26.7314 50.0787 27.7607 50.9494C28.0912 51.2292 28.6682 51.5157 29.0425 51.5865L29.7233 51.7149V60.9082V70.1015L25.3221 77.5008C20.4544 85.6848 20.2035 86.2511 20.351 88.7286C20.4254 89.9775 20.6411 90.7344 21.6587 93.3138C23.0987 96.9645 23.6285 97.775 25.0366 98.4804L26.0737 99H40.7069H55.3401L56.333 98.5027C57.5033 97.9162 57.777 97.6375 58.5148 96.2811L59.0687 95.2626L59.7972 96.139C60.7651 97.3033 62.0827 98.1901 63.5059 98.6356C64.5858 98.9734 65.5534 99 76.793 99C88.332 99 88.9753 98.9813 90.1619 98.6089C92.4803 97.8813 94.5127 95.8378 95.2364 93.5069C95.6104 92.3016 95.6253 91.6577 95.6253 76.7171V61.1807L96.3061 61.0523C97.1603 60.891 98.1467 60.0703 98.496 59.2296C98.8579 58.3589 98.8581 54.4466 98.4964 53.5874C98.3495 53.2383 98.0372 52.7808 97.8027 52.5706L97.3763 52.1884L102.374 47.1474C107.815 41.6592 108.169 41.1761 108.169 39.247C108.169 36.511 105.988 34.3171 103.275 34.3232C101.254 34.3278 101.101 34.453 92.1898 43.3982L83.9491 51.6709H80.3725H76.7962V48.3184C76.7962 45.4491 76.8391 44.966 77.0945 44.966C77.6423 44.966 79.4884 42.9541 79.7182 42.1065C80.715 38.431 77.8063 35.2645 74.1509 36.046L73.1676 36.2562L71.6211 34.7161C70.0906 33.1923 70.0769 33.1692 70.2972 32.5338C70.5771 31.7265 70.5794 30.6994 70.3036 29.6826C70.0738 28.835 68.2277 26.8232 67.6799 26.8232C67.4318 26.8232 67.3816 26.4745 67.3816 24.7535V22.6836L71.4987 20.6122L75.6158 18.5406H85.6206H95.6253V16.9629V15.3853H85.2285H74.8315L70.3219 17.6539L65.8123 19.9228L61.8896 17.949L57.967 15.9749V11.2438V6.51248L52.4765 3.75083C49.4568 2.23215 46.9633 0.994105 46.9357 1.00002C46.908 1.00594 44.4359 2.24852 41.4425 3.76167ZM50.908 6.51208L54.8288 8.48511V12.23V15.9749L50.9061 17.949L46.9833 19.923L43.0606 17.949L39.1378 15.9749V12.23V8.48511L43.0115 6.52254C45.1422 5.44324 46.9082 4.55542 46.9363 4.5495C46.9641 4.54379 48.7515 5.42687 50.908 6.51208ZM16.2653 14.0305C17.4019 14.5511 17.3435 16.2853 16.1729 16.7728C14.9396 17.2864 13.7089 16.055 14.2186 14.8175C14.5785 13.9439 15.3929 13.6308 16.2653 14.0305ZM41.4934 20.7108L45.4142 22.6838V26.4288V30.1737L41.4915 32.1477L37.5687 34.1217L33.646 32.1477L29.7233 30.1737V26.4288V22.6838L33.597 20.7213C35.7276 19.642 37.4936 18.7541 37.5217 18.7482C37.5495 18.7425 39.3369 19.6256 41.4934 20.7108ZM60.3226 20.7108L64.2434 22.6838V24.7535C64.2434 26.4745 64.1932 26.8232 63.9451 26.8232C63.7809 26.8232 63.1715 27.2892 62.5909 27.8585C61.5083 28.9204 61.1085 29.7958 61.1064 31.1108C61.1052 31.7302 61.0315 31.7874 58.7521 32.9363L56.3991 34.1221L52.4758 32.1479L48.5524 30.1737V26.4288V22.6838L52.4261 20.7213C54.5568 19.642 56.3228 18.7541 56.3508 18.7482C56.3787 18.7425 58.1661 19.6256 60.3226 20.7108ZM76.7962 23.2735V24.8511H86.2108H95.6253V23.2735V21.6958H86.2108H76.7962V23.2735ZM76.7962 29.584V31.1617H79.9344H83.0726V29.584V28.0064H79.9344H76.7962V29.584ZM86.2108 29.584V31.1617H90.9181H95.6253V29.584V28.0064H90.9181H86.2108V29.584ZM66.4764 29.8069C67.613 30.3275 67.5546 32.0617 66.384 32.5492C65.1507 33.0627 63.92 31.8314 64.4297 30.5939C64.7896 29.7203 65.604 29.4071 66.4764 29.8069ZM51.6906 35.303L56.3948 37.6694L59.4382 36.1432C62.0125 34.8521 62.5343 34.6541 62.8232 34.8588C64.1526 35.8005 65.7988 36.1249 67.0835 35.6987L67.8225 35.4534L69.3673 37.0066C70.8952 38.543 70.9099 38.5671 70.7159 39.2472C70.1979 41.0633 70.6108 42.5628 72.0055 43.9306C72.5861 44.5 73.1955 44.966 73.3597 44.966C73.615 44.966 73.658 45.4491 73.658 48.3184V51.6709H65.3512H57.0444L56.3826 52.1194C56.0186 52.3659 55.52 52.8672 55.2748 53.2332C54.8704 53.8364 54.8288 54.1269 54.8288 56.3443C54.8288 59.0377 54.9751 59.5445 56.0045 60.4152C56.335 60.695 56.912 60.9815 57.2862 61.0523L57.967 61.1807V70.8656C57.967 79.022 57.9256 80.4892 57.7042 80.1616C57.5596 79.9477 56.1474 77.5968 54.566 74.9377L51.6906 70.1026V60.9088V51.7149L52.3812 51.5846C53.2968 51.4118 54.3795 50.4293 54.6482 49.5273C54.7723 49.1108 54.8361 47.8201 54.7978 46.5026C54.7237 43.9638 54.5515 43.5313 53.2617 42.6488C52.6203 42.2098 52.5399 42.2051 45.8755 42.2051H39.1378V39.5438V36.8826L43.0115 34.92C45.1422 33.8407 46.908 32.9529 46.9359 32.9469C46.9637 32.9412 49.1034 34.0014 51.6906 35.303ZM104.544 38.0695C104.803 38.3291 104.933 38.7256 104.933 39.2512C104.933 40.0252 104.807 40.1688 99.1527 45.8565L93.3723 51.6709H90.9204H88.4685L95.3321 44.7528C99.1072 40.9477 102.372 37.7552 102.588 37.6584C103.141 37.4103 104.086 37.6089 104.544 38.0695ZM75.891 39.2727C77.0276 39.7933 76.9692 41.5275 75.7986 42.015C74.5653 42.5285 73.3346 41.2972 73.8443 40.0597C74.2042 39.1861 75.0186 38.8729 75.891 39.2727ZM51.6906 46.938V48.5157H40.7069H29.7233V46.938V45.3604H40.7069H51.6906V46.938ZM48.5524 61.2306V70.7901L49.4409 72.4981C49.9297 73.4374 50.3047 74.223 50.2745 74.2437C50.2443 74.2644 49.9107 74.4021 49.5331 74.5498C48.0672 75.1231 46.535 76.3469 45.393 77.8567L44.9031 78.5045L43.8347 78.0139C40.5114 76.4877 36.966 76.5581 33.8355 78.2121C32.3303 79.0074 30.926 80.2916 29.2043 82.4474C28.0488 83.8941 27.9723 83.9497 26.6616 84.2996C25.9184 84.498 25.1489 84.7431 24.952 84.8443C24.4919 85.0809 24.2702 85.483 28.4731 78.4584C30.3768 75.2765 32.1422 72.2295 32.396 71.6872L32.8575 70.7012L32.8595 61.186L32.8614 51.6709H40.7069H48.5524V61.2306ZM95.6253 56.4038V57.9815H76.7962H57.967V56.4038V54.8262H76.7962H95.6253V56.4038ZM38.8393 61.5057C35.7392 62.9216 35.0366 66.9052 37.4683 69.2795C38.4882 70.2754 39.6407 70.683 41.0686 70.5529C42.3843 70.433 43.1563 70.0815 44.0262 69.2069C44.896 68.3323 45.2456 67.5561 45.3648 66.2333C45.4943 64.7976 45.0888 63.6389 44.0983 62.6134C42.7158 61.1819 40.5479 60.7254 38.8393 61.5057ZM92.4871 62.7144V64.292H89.349H86.2108V65.8696V67.4473H89.349H92.4871V69.0249V70.6026H89.349H86.2108V72.1802V73.7578H89.349H92.4871V75.3355V76.9131H89.349H86.2108V78.4907V80.0684H89.349H92.4871V81.7446C92.4871 83.2089 92.4438 83.421 92.1439 83.4228C91.6277 83.4256 90.0003 84.2483 88.5307 85.2491C86.3543 86.7313 84.3331 86.7049 82.1966 85.1667C80.6605 84.0606 79.1151 83.3982 77.789 83.2773L76.6473 83.1732L76.198 82.1735C75.9508 81.6239 75.3618 80.785 74.8889 80.3096C71.4559 76.8581 65.3851 78.6643 64.4064 83.4283L64.1749 84.5548L62.9834 83.988C62.3279 83.6762 61.6371 83.421 61.4484 83.421C61.1256 83.4208 61.1052 82.7588 61.1052 72.2788V61.1367H76.7962H92.4871V62.7144ZM41.3709 64.5149C42.5075 65.0355 42.449 66.7697 41.2785 67.2572C40.0452 67.7707 38.8144 66.5394 39.3242 65.3019C39.6841 64.4283 40.4984 64.1151 41.3709 64.5149ZM53.0073 78.543L53.8334 79.9698L52.5169 80.1208C51.7928 80.2038 50.5485 80.4508 49.752 80.6696C48.3881 81.0445 48.2823 81.0483 47.9362 80.7331C47.5912 80.4192 47.5882 80.3671 47.8897 79.8883C48.4999 78.9193 49.2295 78.2797 50.3912 77.696C51.0326 77.374 51.6975 77.1117 51.8691 77.1133C52.0478 77.115 52.534 77.7258 53.0073 78.543ZM41.8996 80.6442C42.7523 80.9664 44.5718 82.1136 45.1467 82.6918C45.1883 82.7336 44.6895 83.1885 44.0383 83.7028L42.8544 84.6382L40.947 84.1341C39.0219 83.6253 36.3817 83.2576 34.0383 83.1718L32.7634 83.125L33.5126 82.3857C35.7056 80.2218 38.9809 79.5416 41.8996 80.6442ZM71.8957 82.0897C72.7632 82.5318 73.7529 83.8162 73.3344 83.9567C73.2212 83.9945 72.4194 84.4974 71.5526 85.0742C70.1465 86.0096 69.2012 86.3696 68.1324 86.3767C67.7044 86.3795 67.3053 85.172 67.4608 84.3447C67.6556 83.3088 68.3095 82.4398 69.2 82.0333C70.2829 81.5389 70.8379 81.5506 71.8957 82.0897ZM56.381 84.2126C56.7139 84.7565 56.9863 85.2785 56.9863 85.3724C56.9863 85.6177 55.5873 85.9374 53.3568 86.2018C51.4486 86.4282 48.2472 86.2229 47.1151 85.8019C46.7368 85.6613 46.789 85.5891 47.6741 85.0306C49.4433 83.9141 51.7885 83.2895 54.3706 83.2469L55.7758 83.2236L56.381 84.2126ZM38.5865 86.8769C39.3752 87.0419 41.565 87.6142 43.4529 88.1484C45.3407 88.6827 47.6276 89.2252 48.535 89.3543C50.6489 89.6549 54.4495 89.476 56.4362 88.9826L57.9454 88.6075L57.8252 89.2118C57.7591 89.544 57.2068 91.0613 56.5978 92.5838C55.7546 94.6921 55.3768 95.4097 55.0126 95.5953C54.3145 95.951 27.0938 95.9481 26.3944 95.5923C26.0186 95.401 25.6554 94.7025 24.7804 92.4891C24.1594 90.9182 23.6495 89.4456 23.6471 89.2169C23.6438 88.8803 23.9341 88.6854 25.1733 88.193C27.0976 87.4284 29.3935 86.8262 31.2927 86.5876C33.1806 86.3505 36.7489 86.4919 38.5865 86.8769ZM78.0526 86.567C78.4739 86.6653 79.4042 87.148 80.1201 87.6398C82.3977 89.2043 83.0808 89.4356 85.4262 89.4356C87.2528 89.4356 87.6131 89.3754 88.6132 88.9043C89.2334 88.6121 90.2408 88.0131 90.8518 87.5732C92.5554 86.3466 92.5354 86.3213 92.4526 89.5835C92.3956 91.8358 92.3096 92.5307 92.0198 93.0839C91.5151 94.0464 90.76 94.821 89.8393 95.3206C89.0595 95.7436 88.9816 95.7461 76.7962 95.7461C65.2115 95.7461 64.4999 95.726 63.8511 95.3785C62.8875 94.8625 62.1202 94.1034 61.631 93.1825C61.2725 92.5074 61.2017 91.9884 61.1403 89.5835C61.0805 87.2462 61.1156 86.7733 61.3484 86.7733C61.5026 86.7733 62.1508 87.1423 62.7888 87.5933C64.9785 89.1408 65.839 89.4356 68.1661 89.4356C70.5188 89.4356 71.2288 89.1954 73.496 87.6322C75.222 86.442 76.3682 86.1742 78.0526 86.567Z" fill="#FF7E36"/>
</g>
</svg>
