<svg width="120" height="100" viewBox="0 0 120 100" fill="none" xmlns="http://www.w3.org/2000/svg">
<mask id="mask0_4014_5884" style="mask-type:alpha" maskUnits="userSpaceOnUse" x="0" y="0" width="120" height="100">
<rect width="120" height="100" fill="#D9D9D9"/>
</mask>
<g mask="url(#mask0_4014_5884)">
<path d="M71.375 4.4L71.675 4.5H97.675V39.2L94.975 36.5C93.275 34.8 92.375 33.9 91.875 33.5C91.575 33.3 91.475 33.2 91.275 33.1C91.075 33.1 90.875 33.1 90.775 33.1C90.575 33.1 90.375 33.2 90.175 33.2C89.975 33.3 89.875 33.4 89.675 33.6C89.175 34.1 88.975 34.9 89.375 35.6C89.375 35.7 89.475 35.7 89.475 35.8C89.575 35.9 89.575 35.9 89.675 36C89.875 36.2 90.075 36.5 90.475 36.8C91.175 37.5 92.275 38.7 94.075 40.4C95.275 41.6 96.475 42.8 97.275 43.6C97.675 44 98.075 44.4 98.275 44.6C98.375 44.7 98.475 44.8 98.575 44.9L98.675 45C98.675 45 98.675 45 98.775 45C98.975 45.1 99.275 45.1 99.575 45.1C99.875 45.1 100.175 45.1 100.375 45C100.075 45.1 100.075 45.1 100.075 45.1L100.175 45C100.275 44.9 100.375 44.8 100.475 44.7C100.775 44.4 101.075 44.1 101.575 43.7C102.475 42.9 103.575 41.7 104.675 40.6C105.775 39.5 106.875 38.4 107.775 37.5C108.175 37.1 108.575 36.7 108.875 36.4C108.975 36.3 109.075 36.2 109.175 36.1C109.275 36 109.275 36 109.375 35.9C109.675 35.5 109.675 35 109.575 34.5C109.475 34.1 109.275 33.8 108.975 33.6C108.675 33.4 108.275 33.2 107.975 33.2C107.875 33.2 107.675 33.2 107.475 33.3C107.275 33.4 107.075 33.5 106.875 33.7C106.375 34.1 105.475 35 103.875 36.7L101.075 39.3V21.2C101.075 12.4 101.075 7.7 101.075 5.2C101.075 3.9 101.075 3.2 101.075 2.8C101.075 2.6 101.075 2.5 101.075 2.4C101.075 2.3 101.075 2.2 100.975 2.2L100.775 2.3L100.875 2.1C100.775 1.9 100.675 1.8 100.475 1.6C100.375 1.5 100.175 1.3 99.975 1.2L99.875 1.4V1.3L99.975 1.1C99.875 1.1 99.875 1.1 99.775 1C99.675 1 99.575 1 99.375 1C99.075 1 98.475 1 97.475 1C95.575 1 92.075 1 85.675 1C81.875 1 78.375 1 75.775 1C74.475 1 73.475 1 72.775 1C72.375 1 72.075 1 71.975 1C71.875 1 71.775 1 71.775 1H71.675C71.675 1 71.675 1 71.575 1C71.175 1.1 70.875 1.3 70.675 1.6C70.475 1.9 70.375 2.3 70.375 2.7C70.375 3.1 70.475 3.4 70.675 3.7C70.775 4.1 70.975 4.3 71.375 4.4Z" fill="#FF7E36"/>
<path d="M25.675 47.1C25.475 47 25.275 47 25.075 47C24.875 47 24.575 47 24.375 47.1C24.275 47.1 23.975 47.3 23.675 47.4C23.375 47.6 22.975 47.8 22.575 48C22.175 48.2 21.775 48.4 21.575 48.6C21.475 48.7 21.275 48.8 21.175 48.8C21.075 48.9 20.975 48.9 20.975 49C20.675 49.3 20.475 49.7 20.475 50.2C20.475 51.2 21.175 52 22.175 52C22.375 52 22.675 52 22.775 51.9C22.875 51.9 23.175 51.7 23.475 51.6C23.775 51.4 24.175 51.2 24.575 51C24.975 50.8 25.275 50.6 25.575 50.4C25.675 50.3 25.875 50.2 25.975 50.2C26.075 50.1 26.175 50.1 26.175 50L26.075 49.7L25.975 49.6L26.175 49.8C26.375 49.6 26.475 49.4 26.575 49.2C26.675 49 26.675 48.7 26.675 48.5H26.475H26.775C26.575 47.9 26.175 47.3 25.675 47.1Z" fill="#FF7E36"/>
<path d="M21.175 23.7C21.475 23.9 21.775 24.1 22.275 24.4C23.275 24.9 23.775 25.2 23.975 25.3C24.075 25.4 24.275 25.4 24.375 25.4C24.475 25.4 24.575 25.4 24.675 25.4C25.675 25.4 26.575 24.5 26.475 23.5C26.475 23.3 26.375 23 26.275 22.8C26.175 22.6 25.975 22.4 25.875 22.3C25.775 22.2 25.575 22.1 25.275 21.9C24.975 21.7 24.575 21.5 24.175 21.3C23.775 21.1 23.375 20.9 23.075 20.7C22.975 20.6 22.775 20.6 22.675 20.5C22.575 20.5 22.475 20.4 22.475 20.4C22.275 20.4 22.175 20.3 21.975 20.3C21.775 20.3 21.675 20.3 21.475 20.4C21.275 20.5 21.075 20.6 20.875 20.8C20.675 21 20.575 21.2 20.475 21.4C20.375 21.7 20.275 22.1 20.275 22.4C20.275 22.7 20.375 23.1 20.575 23.3C20.675 23.4 20.875 23.5 21.175 23.7Z" fill="#FF7E36"/>
<path d="M31.075 14.5C31.275 14.9 31.475 15.2 31.675 15.5C31.775 15.6 31.875 15.8 31.875 15.9C31.975 16 32.075 16.1 32.075 16.1C32.875 17 34.375 16.8 34.875 15.7C35.075 15.3 35.075 14.8 34.975 14.4C34.975 14.4 34.875 14.3 34.875 14.2C34.875 14.1 34.775 14 34.675 13.8C34.575 13.5 34.375 13.2 34.175 12.8C33.775 12.1 33.375 11.4 33.275 11.2C32.875 10.6 31.975 10.4 31.275 10.7C30.375 11 29.975 12 30.275 12.9C30.275 13 30.475 13.3 30.575 13.6C30.675 13.8 30.875 14.2 31.075 14.5Z" fill="#FF7E36"/>
<path d="M21.775 37.8L22.175 37.6C23.275 37.1 23.575 35.7 22.675 34.8C22.575 34.7 22.475 34.6 22.375 34.5C22.275 34.4 22.075 34.4 21.975 34.3C21.675 34.2 21.075 34.2 20.175 34.2C19.675 34.2 19.275 34.2 18.875 34.2C18.675 34.2 18.575 34.2 18.375 34.2C18.275 34.2 18.175 34.2 18.075 34.2C17.375 34.3 16.875 34.8 16.775 35.5C16.575 36.3 16.975 37 17.575 37.4L17.875 37.6H21.775V37.8Z" fill="#FF7E36"/>
<path d="M109.375 56.6C109.375 56.3 109.375 56.2 109.275 56.1C109.275 56.1 109.275 56.1 109.275 56V55.9C109.275 55.8 109.175 55.7 109.075 55.7C108.875 55.5 108.475 55.3 107.675 54.9C106.075 54 102.575 52.1 95.075 48C88.475 44.4 83.775 41.8 81.675 40.8L80.675 40.2V40C80.875 38.1 80.875 37.6 80.875 36C80.875 32.5 80.375 29.4 79.375 26C76.375 15.8 68.675 7.5 58.775 3.6C55.175 2.1 51.375 1.3 47.375 1.1C45.975 1 45.875 1 44.375 1.1C33.175 1.7 22.975 7.5 16.775 16.9C13.475 21.9 11.575 27.5 11.075 33.6C10.975 34.8 10.975 37.5 11.075 38.7C11.575 44.4 13.175 49.6 16.075 54.4C18.375 58.2 21.475 61.6 25.075 64.3C29.175 67.4 34.075 69.6 39.075 70.5C41.175 70.9 42.775 71.1 45.075 71.1C47.175 71.1 48.775 71 50.675 70.7V75.6C50.675 78.1 50.675 79.4 50.675 80.1C50.675 80.8 50.675 80.9 50.775 81.1C50.975 81.4 51.175 81.7 51.475 81.8C51.475 81.8 51.575 81.9 51.775 82C51.975 82.1 52.275 82.3 52.575 82.5C53.275 82.9 54.275 83.6 55.475 84.4C57.975 86 61.275 88.1 64.975 90.4C72.375 95.1 78.675 99 78.975 99.2C79.275 99.4 79.475 99.5 79.675 99.5C79.875 99.5 80.175 99.5 80.375 99.4C80.375 99.4 80.475 99.4 80.575 99.3C80.675 99.3 80.775 99.2 80.875 99.2C81.075 99.1 81.475 98.9 81.875 98.7C82.675 98.3 83.775 97.7 85.075 97C87.775 95.6 91.275 93.8 94.675 91.9C98.175 90.1 101.675 88.2 104.275 86.8C105.575 86.1 106.675 85.5 107.475 85.1C107.875 84.9 108.175 84.7 108.375 84.6C108.475 84.5 108.575 84.5 108.675 84.5H108.775C108.875 84.4 109.075 84.1 109.175 84C109.175 83.9 109.275 83.8 109.275 83.5C109.275 83.2 109.275 82.7 109.275 81.8C109.275 80 109.275 76.6 109.275 70C109.275 63.4 109.275 60 109.275 58.2C109.375 57.3 109.375 56.8 109.375 56.6ZM79.675 43.8C79.775 43.8 79.775 43.7 79.875 43.7C79.875 43.7 79.975 43.7 79.975 43.8C80.075 43.9 80.275 44 80.575 44.1C81.075 44.4 81.875 44.8 82.775 45.3C84.575 46.3 87.075 47.6 89.875 49.1C95.375 52.1 100.875 55.1 102.175 55.8C102.775 56.1 103.375 56.5 103.775 56.7C103.875 56.8 103.975 56.8 104.075 56.9C103.875 57 103.675 57.1 103.375 57.3C102.775 57.6 101.975 58.1 101.175 58.5C100.375 58.9 99.575 59.4 98.975 59.7C98.675 59.9 98.375 60 98.275 60.1C98.175 60.1 98.175 60.2 98.075 60.2C98.075 60.2 97.975 60.1 97.875 60.1C97.675 60 97.375 59.9 97.075 59.7C96.375 59.3 95.475 58.8 94.275 58.2C91.975 56.9 88.875 55.3 85.875 53.6C82.775 51.9 79.775 50.2 77.475 49C76.375 48.4 75.375 47.8 74.675 47.5C74.375 47.3 74.175 47.2 73.975 47.1C74.175 47 74.375 46.9 74.575 46.8C75.175 46.5 75.975 46.1 76.775 45.6C77.575 45.2 78.375 44.8 78.975 44.4C79.275 44 79.475 43.9 79.675 43.8ZM94.775 71.2L94.675 71C94.175 71.3 93.775 71.6 93.475 71.8C93.375 71.8 93.375 71.9 93.275 71.9C93.275 71.7 93.275 71.5 93.275 71.3C93.275 70.7 93.275 69.8 93.275 68.8C93.275 67.1 93.275 66.2 93.275 65.7C93.275 65.5 93.275 65.3 93.275 65.2C93.275 65.1 93.175 65 93.175 64.9C93.075 64.7 92.975 64.5 92.775 64.4H92.675C92.675 64.4 92.675 64.4 92.575 64.4C92.475 64.4 92.475 64.3 92.375 64.3C92.175 64.2 91.875 64 91.575 63.9C90.875 63.5 89.975 63 88.775 62.3C86.375 61 83.175 59.2 79.675 57.3C76.175 55.4 72.975 53.6 70.575 52.3C69.375 51.7 68.475 51.1 67.775 50.8C67.475 50.6 67.275 50.5 67.075 50.4C67.175 50.4 67.175 50.3 67.275 50.3C67.575 50.1 68.075 49.9 68.475 49.6C68.975 49.4 69.375 49.1 69.775 48.9C69.975 48.8 70.075 48.7 70.175 48.7C70.175 48.7 70.175 48.7 70.275 48.7C70.275 48.7 70.375 48.8 70.475 48.8C70.675 48.9 70.875 49 71.275 49.2C71.975 49.6 72.875 50.1 74.075 50.7C76.475 52 79.775 53.8 83.375 55.8L96.275 62.9V70.1L94.675 71.1L94.775 71.2ZM52.475 54.3C51.775 54.7 51.475 54.8 51.275 55.1C51.175 55.2 51.075 55.3 50.975 55.5C50.875 55.7 50.875 55.9 50.875 56.3C50.775 57.1 50.875 58.6 50.875 61.7V67.1H50.775C48.275 67.3 45.075 67.4 43.475 67.3C39.475 66.9 35.975 65.9 32.475 64.3C29.175 62.7 26.575 60.9 23.975 58.2C21.475 55.7 19.775 53.3 18.175 50.3C13.875 41.9 13.575 32 17.375 23.3C19.975 17.3 24.575 12.2 30.275 8.8C35.475 5.7 41.575 4.2 47.575 4.5C50.675 4.7 53.275 5.1 56.175 6.1C62.175 8.1 67.475 12 71.375 17.1C74.275 20.9 76.175 25.4 77.075 30C77.675 33.3 77.775 36.2 77.475 39.7C77.175 40.5 77.075 40.9 77.075 41.1C77.075 41.2 77.075 41.3 76.975 41.3C75.975 41.9 54.375 53.4 52.475 54.3ZM78.175 93.2C78.175 93.9 78.175 94.4 78.175 94.7C77.975 94.6 77.775 94.5 77.475 94.3C76.875 93.9 75.975 93.3 74.875 92.6C72.675 91.2 69.575 89.3 66.275 87.1L54.175 79.4V69.2C54.175 65.1 54.175 62.5 54.175 60.9C54.175 60.1 54.175 59.6 54.175 59.3C54.375 59.4 54.575 59.5 54.875 59.7C55.475 60.1 56.375 60.6 57.475 61.2C59.675 62.4 62.775 64.2 66.075 66.1L78.075 72.9V84C78.175 88.8 78.175 91.7 78.175 93.2ZM80.275 69.6C80.175 69.7 80.075 69.7 79.975 69.7C79.975 69.7 79.875 69.6 79.775 69.6C79.575 69.5 79.275 69.3 78.975 69.2C78.275 68.8 77.375 68.3 76.175 67.6C73.875 66.3 70.875 64.6 67.775 62.9C64.775 61.2 61.675 59.5 59.475 58.2C58.375 57.6 57.375 57 56.775 56.6C56.475 56.4 56.275 56.3 56.075 56.2C56.275 56.1 56.575 55.9 56.875 55.7C57.575 55.3 58.575 54.8 59.575 54.3C60.575 53.8 61.475 53.3 62.275 52.9C62.675 52.7 62.975 52.6 63.175 52.4C63.275 52.3 63.375 52.3 63.375 52.3C63.375 52.3 63.475 52.3 63.575 52.4C63.775 52.5 63.975 52.6 64.275 52.8C64.875 53.1 65.875 53.6 66.975 54.2C69.275 55.4 72.375 57.1 75.775 58.9C79.175 60.7 82.275 62.4 84.575 63.7C85.675 64.3 86.575 64.8 87.275 65.2C87.575 65.3 87.675 65.4 87.875 65.5C87.675 65.6 87.375 65.8 86.975 66C86.075 66.6 85.075 67.1 84.075 67.7C83.075 68.2 81.975 68.8 81.275 69.2C80.875 69.4 80.575 69.5 80.275 69.6ZM105.775 70.8V82.2L94.275 88.3C87.875 91.7 82.375 94.6 81.975 94.8L81.675 95V73L85.675 70.8C86.775 70.2 87.875 69.6 88.575 69.2C88.975 69 89.275 68.8 89.475 68.7C89.475 68.8 89.475 68.9 89.475 69C89.475 69.5 89.475 70.4 89.475 71.8V75.5L89.575 75.8L89.775 75.7L89.575 75.9C89.875 76.5 90.475 76.9 91.075 76.9H91.475V76.6V76.8H91.675L95.275 74.8C96.275 74.3 97.175 73.7 97.875 73.4C98.175 73.2 98.475 73 98.675 72.9C98.775 72.8 98.875 72.8 98.875 72.8H98.975C98.975 72.8 98.975 72.8 99.075 72.8C99.175 72.7 99.375 72.5 99.475 72.3L99.675 72V63.1L102.775 61.4C103.675 60.9 104.475 60.5 105.075 60.1C105.275 60 105.475 59.9 105.675 59.8C105.675 59.9 105.675 60.1 105.675 60.3C105.675 60.9 105.675 61.7 105.675 62.8C105.775 64.7 105.775 67.6 105.775 70.8Z" fill="#FF7E36"/>
<path d="M34.275 55.6C34.075 55.5 33.975 55.5 33.875 55.5C33.775 55.5 33.575 55.5 33.475 55.6C33.275 55.6 33.075 55.7 32.875 55.8C32.675 55.9 32.575 56 32.375 56.2C32.275 56.3 32.175 56.5 31.975 56.8C31.775 57.1 31.575 57.5 31.375 57.8C31.175 58.1 30.975 58.5 30.775 58.8C30.675 58.9 30.675 59.1 30.575 59.2C30.575 59.3 30.475 59.4 30.475 59.4C30.275 60 30.475 60.6 30.775 61C31.175 61.4 31.675 61.7 32.375 61.7C32.775 61.7 33.175 61.5 33.475 61.2C33.475 61.2 33.575 61.1 33.675 61C33.775 60.9 33.775 60.8 33.875 60.6C34.075 60.3 34.275 59.9 34.475 59.6C34.675 59.2 34.875 58.8 35.075 58.5C35.175 58.3 35.175 58.2 35.275 58.1C35.275 58 35.375 57.9 35.375 57.8C35.675 56.9 35.175 55.9 34.275 55.6Z" fill="#FF7E36"/>
<path d="M75.475 83.4C75.375 83.3 75.375 83.3 75.275 83.3C75.175 83.2 74.975 83.1 74.875 83C74.475 82.8 73.975 82.4 73.275 82C71.875 81.2 69.775 79.9 67.175 78.4C64.975 77.1 62.875 75.9 61.375 75C60.575 74.6 59.975 74.2 59.575 73.9C59.375 73.8 59.175 73.7 59.075 73.6C58.975 73.5 58.875 73.5 58.875 73.5C58.675 73.4 58.475 73.4 58.175 73.4C57.975 73.4 57.675 73.4 57.475 73.5C56.375 74 55.975 75.5 56.875 76.4C56.875 76.4 56.875 76.4 56.975 76.4C56.975 76.4 56.975 76.4 57.075 76.4C57.075 76.4 57.175 76.5 57.275 76.5C57.375 76.6 57.575 76.7 57.875 76.8C58.375 77.1 58.975 77.5 59.775 77.9C61.375 78.8 63.375 80 65.475 81.2C67.575 82.4 69.575 83.6 71.175 84.5C71.975 85 72.675 85.3 73.075 85.6C73.275 85.7 73.475 85.8 73.675 85.9C73.775 85.9 73.775 86 73.875 86C73.875 86 73.975 86 73.975 86.1C74.175 86.2 74.375 86.2 74.575 86.2C74.775 86.2 74.975 86.1 75.175 86C75.375 85.9 75.575 85.7 75.675 85.6C75.775 85.5 75.775 85.4 75.875 85.3C75.975 85.2 75.975 85.1 75.975 85C76.075 84.5 75.875 83.9 75.475 83.4Z" fill="#FF7E36"/>
<path d="M44.475 12.2C44.875 13 45.675 13.3 46.475 13.1C46.975 13 47.375 12.7 47.575 12.3L47.775 12V8V7.9L47.475 8.1L47.675 8L47.475 7.7C47.275 7.3 46.975 7 46.475 6.9C46.075 6.8 45.675 6.8 45.375 6.9C44.975 7 44.575 7.3 44.375 7.8L44.175 8.1V11.9L44.475 12.2Z" fill="#FF7E36"/>
<path d="M59.875 10.3C59.675 10.3 59.375 10.3 59.275 10.4C58.875 10.5 58.575 10.7 58.375 11C58.275 11.1 58.175 11.3 58.075 11.6C57.875 11.9 57.675 12.3 57.475 12.6C57.175 13.1 56.975 13.5 56.875 13.8C56.775 14.1 56.675 14.3 56.675 14.4C56.475 15.3 56.975 16 57.575 16.3C58.175 16.6 59.075 16.6 59.675 15.9C59.675 15.9 59.775 15.8 59.775 15.7C59.875 15.6 59.875 15.5 59.975 15.4C60.075 15.2 60.275 14.9 60.475 14.6C60.875 14 61.275 13.3 61.475 12.8C61.875 11.7 61.075 10.4 59.875 10.3Z" fill="#FF7E36"/>
<path d="M75.575 77.3C75.575 77.2 75.575 77.2 75.575 77.3C75.475 77.2 75.475 77.2 75.575 77.3C75.475 77.2 75.375 77.2 75.275 77.1C75.175 77 74.975 76.9 74.775 76.8C74.275 76.5 73.675 76.2 72.975 75.7C71.475 74.8 69.475 73.6 67.375 72.5C65.375 71.3 63.275 70.1 61.775 69.2C60.175 68.3 59.075 67.7 58.975 67.6C58.575 67.4 58.075 67.4 57.675 67.6C57.275 67.8 56.875 68.1 56.675 68.5L56.875 68.6H56.975L56.775 68.5C56.675 68.7 56.575 69 56.575 69.3C56.575 69.6 56.675 69.9 56.775 70.1C56.875 70.3 57.075 70.5 57.175 70.6C57.175 70.6 57.275 70.6 57.275 70.7C57.275 70.7 57.375 70.8 57.475 70.8C57.575 70.9 57.775 71 58.075 71.1C58.575 71.4 59.175 71.8 59.975 72.2C61.575 73.1 63.575 74.3 65.675 75.5C67.775 76.7 69.775 77.8 71.375 78.7C72.175 79.1 72.775 79.5 73.275 79.8C73.475 79.9 73.675 80 73.875 80.1C73.975 80.1 73.975 80.2 74.075 80.2C74.075 80.2 74.075 80.2 74.175 80.2C74.175 80.2 74.175 80.2 74.275 80.2C75.075 80.4 75.875 79.9 76.175 79.2C76.275 78.9 76.275 78.5 76.275 78.2C75.975 77.8 75.875 77.5 75.575 77.3Z" fill="#FF7E36"/>
<path d="M47.675 60C47.375 59.3 46.475 58.8 45.675 59C45.175 59.1 44.775 59.4 44.575 59.9L44.375 60.1V60.3V62.1C44.375 63.1 44.375 63.6 44.375 64C44.375 64.2 44.475 64.3 44.475 64.4C44.575 64.5 44.575 64.6 44.675 64.7C44.875 64.9 44.975 65 45.275 65.1C45.475 65.2 45.775 65.2 46.075 65.2C46.475 65.2 46.775 65.1 47.075 65C47.375 64.8 47.575 64.6 47.675 64.3C47.775 64.1 47.775 64 47.775 63.7C47.775 63.4 47.775 62.9 47.775 62.1C47.775 61.3 47.775 60.8 47.775 60.5C47.775 60.2 47.675 60.1 47.675 60Z" fill="#FF7E36"/>
<path d="M70.375 23.7C70.475 23.6 70.675 23.5 70.775 23.5C70.875 23.4 70.975 23.4 70.975 23.3C71.775 22.5 71.575 21.1 70.575 20.5C70.475 20.4 70.375 20.4 70.175 20.3C70.075 20.3 69.875 20.3 69.775 20.3C69.675 20.3 69.575 20.3 69.475 20.3C69.375 20.3 69.375 20.3 69.375 20.3H69.275C69.275 20.3 69.175 20.4 69.075 20.4C68.975 20.4 68.875 20.5 68.675 20.6C68.375 20.8 67.975 21 67.575 21.2C66.775 21.6 66.275 21.9 65.975 22.2C65.775 22.3 65.675 22.4 65.575 22.6C65.475 22.7 65.475 22.9 65.375 23C65.175 23.6 65.375 24.3 65.875 24.7C66.075 24.9 66.375 25 66.675 25.1C66.975 25.2 67.375 25.2 67.675 25.1C67.775 25.1 67.875 25 67.975 25C68.075 24.9 68.175 24.9 68.375 24.8C68.675 24.6 69.075 24.4 69.375 24.2C69.775 24.1 70.075 23.9 70.375 23.7Z" fill="#FF7E36"/>
<path d="M74.675 34.8C74.575 34.7 74.475 34.6 74.375 34.6C74.275 34.5 74.075 34.5 73.975 34.5C73.675 34.5 73.175 34.4 72.275 34.4C71.775 34.4 71.375 34.4 70.975 34.4C70.775 34.4 70.675 34.4 70.475 34.4C70.375 34.4 70.275 34.4 70.175 34.4C69.175 34.6 68.575 35.6 68.875 36.6C69.075 37.2 69.375 37.6 69.975 37.8H70.075C70.075 37.8 70.175 37.8 70.275 37.8C70.375 37.8 70.575 37.8 70.775 37.8C71.175 37.8 71.675 37.8 72.175 37.8C73.075 37.8 73.475 37.8 73.775 37.8C74.075 37.8 74.175 37.7 74.375 37.7C74.675 37.6 74.975 37.4 75.075 37.1C75.275 36.8 75.275 36.5 75.275 36.1C75.275 35.8 75.275 35.6 75.175 35.3C75.075 35.1 74.875 34.9 74.675 34.8Z" fill="#FF7E36"/>
<path d="M49.575 30.8C48.975 30.4 48.475 30.2 47.975 30H47.775V17.7L47.575 17.4C47.175 16.6 46.275 16.3 45.475 16.6C45.275 16.7 45.075 16.8 44.875 17C44.675 17.2 44.575 17.4 44.475 17.6C44.475 17.7 44.475 17.8 44.375 18C44.375 18.2 44.375 18.5 44.375 19C44.375 19.9 44.375 21.5 44.375 24V29.9L43.975 30.1C41.875 30.8 40.275 32.6 39.775 34.8C39.675 35.5 39.575 36.6 39.775 37.3C39.975 38.3 40.375 39.3 41.075 40.1C41.175 40.2 41.275 40.4 41.375 40.5C41.375 40.5 41.375 40.5 41.375 40.6C41.375 40.7 41.275 40.7 41.275 40.9C41.175 41.1 40.975 41.5 40.675 41.9C40.175 42.7 39.475 43.9 38.775 45.1C38.075 46.4 37.375 47.5 36.875 48.4C36.675 48.8 36.375 49.2 36.275 49.4C36.175 49.5 36.175 49.6 36.075 49.7C36.075 49.7 36.075 49.8 35.975 49.8C35.975 49.8 35.975 49.8 35.975 49.9L36.175 50L36.075 49.9C35.875 50.4 35.975 50.8 36.275 51.2C36.475 51.6 36.875 51.9 37.375 52.1C37.975 52.3 38.675 52.1 39.075 51.6C39.075 51.6 39.075 51.5 39.175 51.5C39.175 51.5 39.175 51.4 39.275 51.4C39.275 51.3 39.375 51.2 39.475 51.1C39.675 50.8 39.875 50.5 40.075 50.1C40.575 49.2 41.275 48.1 42.075 46.8C42.775 45.5 43.475 44.4 43.975 43.6C44.175 43.2 44.375 42.8 44.575 42.6C44.675 42.5 44.675 42.4 44.675 42.4C44.775 42.4 44.875 42.4 45.075 42.5C46.175 42.7 47.075 42.7 48.175 42.4C51.075 41.5 53.075 38.5 52.675 35.6C52.175 33.6 51.075 31.8 49.575 30.8ZM48.075 38.1C47.475 38.7 46.875 39 46.075 39C45.275 39 44.675 38.7 44.075 38.2C42.875 37 42.975 35.2 44.175 34.1C44.575 33.7 45.175 33.5 45.875 33.4C45.975 33.4 46.075 33.4 46.175 33.4C46.375 33.4 46.475 33.4 46.675 33.5C46.975 33.6 47.375 33.8 47.675 34C47.975 34.3 48.275 34.6 48.475 34.9C49.175 35.9 48.975 37.2 48.075 38.1Z" fill="#FF7E36"/>
</g>
</svg>
