<svg width="120" height="100" viewBox="0 0 120 100" fill="none" xmlns="http://www.w3.org/2000/svg">
<mask id="mask0_4014_5892" style="mask-type:alpha" maskUnits="userSpaceOnUse" x="0" y="0" width="120" height="100">
<rect width="120" height="100" fill="#D9D9D9"/>
</mask>
<g mask="url(#mask0_4014_5892)">
<path d="M56 95.8L55.7 95.7H29.8V67.9L32.5 70.6C34.2 72.3 35.1 73.2 35.6 73.6C35.9 73.8 36 73.9 36.2 74C36.4 74 36.6 74 36.7 74C36.9 74 37.1 73.9 37.3 73.9C37.5 73.8 37.6 73.7 37.8 73.5C38.3 73 38.5 72.2 38.1 71.5C38.1 71.4 38 71.4 38 71.3C37.9 71.2 37.9 71.2 37.8 71.1C37.6 70.9 37.4 70.6 37 70.3C36.3 69.6 35.2 68.4 33.4 66.7C32.2 65.5 31 64.3 30.2 63.5C29.8 63.1 29.4 62.7 29.2 62.5C29.1 62.4 29 62.3 28.9 62.2L28.8 62.1C28.8 62.1 28.8 62.1 28.7 62.1C28.7 62 28.4 62 28.1 62C27.8 62 27.5 62 27.3 62.1L27.1 62.3C27 62.4 26.9 62.5 26.8 62.6C26.5 62.9 26.2 63.2 25.7 63.6C24.8 64.4 23.7 65.6 22.6 66.7C21.5 67.8 20.4 68.9 19.5 69.8C19.1 70.2 18.7 70.6 18.4 70.9C18.3 71 18.2 71.1 18.1 71.2C18 71.3 18 71.3 17.9 71.4C17.6 71.8 17.6 72.3 17.7 72.8C17.8 73.2 18 73.5 18.3 73.7C18.6 73.9 19 74.1 19.3 74.1C19.4 74.1 19.6 74.1 19.8 74C20 73.9 20.2 73.8 20.4 73.6C20.9 73.2 21.8 72.3 23.4 70.6L26.1 67.9V86C26.1 94.8 26.1 97.8 26.1 98.5C26.1 98.6 26.1 98.7 26.1 98.7C26.1 98.7 26.1 98.7 26.1 98.8C26.1 98.8 26.1 98.8 26.2 98.9C26.2 98.9 26.3 99 26.4 99C26.5 99 26.5 98.9 26.6 98.9V98.7C26.6 98.7 26.6 98.7 26.6 98.6C26.7 98.7 26.9 98.9 27 98.9C27.1 98.9 27.1 98.9 27.2 99C27.3 99 27.4 99 27.6 99C27.9 99 28.5 99 29.5 99C31.4 99 34.9 99 41.3 99C45.1 99 48.6 99 51.2 99C52.5 99 53.5 99 54.2 99C54.6 99 54.9 99 55 99C55.1 99 55.2 99 55.2 99H55.3C55.3 99 55.3 99 55.4 99C55.8 98.9 56.1 98.7 56.3 98.4C56.5 98.1 56.6 97.7 56.6 97.3C56.6 96.9 56.5 96.6 56.3 96.3C56.6 96.2 56.3 96 56 95.8Z" fill="#FF7E36"/>
<path d="M89.9 4.5V35.2L87.2 32.5C85.5 30.8 84.6 29.9 84.1 29.5C83.8 29.3 83.7 29.2 83.5 29.1C83.3 29.1 83.1 29.1 83 29.1C82.8 29.1 82.6 29.2 82.4 29.2C82.2 29.3 82.1 29.4 81.9 29.6L82.1 29.8L82 29.7L81.9 29.6C81.4 30.1 81.2 30.9 81.6 31.6C81.6 31.7 81.7 31.7 81.7 31.8C81.8 31.9 81.8 31.9 81.9 32C82.1 32.2 82.3 32.5 82.7 32.8C83.4 33.5 84.5 34.7 86.3 36.4C87.5 37.6 88.7 38.8 89.5 39.6C89.9 40 90.3 40.4 90.5 40.6C90.6 40.7 90.7 40.8 90.8 40.9L90.9 41C90.9 41 90.9 41 91 41C91.2 41.1 91.5 41.1 91.8 41.1C92.1 41.1 92.4 41.1 92.6 41L92.8 40.8C92.9 40.7 93 40.6 93.1 40.5C93.4 40.2 93.7 39.9 94.2 39.5C95.1 38.7 96.2 37.5 97.3 36.4C98.4 35.3 99.5 34.2 100.4 33.3C100.8 32.9 101.2 32.5 101.5 32.2C101.6 32.1 101.7 32 101.8 31.9C101.9 31.8 101.9 31.8 102 31.7C102.3 31.3 102.3 30.8 102.2 30.3C102.1 29.9 101.9 29.6 101.6 29.4C101.3 29.2 100.9 29 100.6 29C100.5 29 100.3 29 100.1 29.1C99.9 29.2 99.7 29.3 99.5 29.5C99 29.9 98.1 30.8 96.5 32.5L93.8 35.2V17.1C93.8 8.3 93.8 4.6 93.8 3.1C93.8 2.7 93.8 2.5 93.8 2.3C93.8 2.2 93.8 2.2 93.8 2.1C93.8 2.1 93.8 2.1 93.8 2C93.8 2 93.8 2 93.8 1.9C93.8 1.9 93.8 1.8 93.7 1.8H93.6C93.5 1.7 93.4 1.6 93.4 1.5C93.3 1.4 93.1 1.2 92.9 1.1C92.8 1.1 92.8 1.1 92.7 1C92.6 1 92.5 1 92.3 1C92 1 91.4 1 90.4 1C88.5 1 85 1 78.6 1C74.8 1 71.3 1 68.7 1C67.4 1 66.4 1 65.7 1C65.3 1 65 1 64.9 1C64.8 1 64.7 1 64.7 1H64.6C64.6 1 64.6 1 64.5 1C64.1 1.1 63.8 1.3 63.6 1.6C63.4 1.9 63.3 2.3 63.3 2.7C63.3 3.1 63.4 3.4 63.6 3.7C63.8 4 64 4.2 64.4 4.3L64.7 4.4H77.8L89.9 4.5Z" fill="#FF7E36"/>
<path d="M23.8 38.5C23.7 38.5 23.7 38.5 23.8 38.5C23.7 38.4 23.6 38.4 23.6 38.3C23.5 38.2 23.4 38.2 23.2 38.1C22.9 37.9 22.4 37.6 21.8 37.2C20.6 36.5 18.8 35.4 16.5 34.1C14.5 33 12.7 31.9 11.4 31.2C10.7 30.8 10.2 30.5 9.8 30.3C9.6 30.2 9.5 30.1 9.3 30C9.2 30 9.2 30 9.1 30C8.9 29.9 8.7 29.9 8.5 29.9C8.3 29.9 8.1 29.9 7.9 30C6.9 30.5 6.6 31.7 7.4 32.5C7.4 32.5 7.4 32.5 7.5 32.5L7.6 32.6C7.7 32.7 7.9 32.8 8.1 32.9C8.5 33.1 9.1 33.5 9.8 33.9C11.2 34.7 13 35.7 14.8 36.8C16.6 37.8 18.4 38.9 19.8 39.6C20.5 40 21.1 40.3 21.5 40.6C21.7 40.7 21.9 40.8 22 40.9C22.1 40.9 22.1 41 22.2 41H22.3C22.5 41.1 22.7 41.1 22.9 41.1C23.1 41.1 23.3 41 23.5 40.9C23.7 40.8 23.8 40.7 24 40.5C24.1 40.4 24.1 40.3 24.2 40.3C24.2 40.2 24.3 40.1 24.3 40C24.2 39.5 24.1 38.9 23.8 38.5Z" fill="#FF7E36"/>
<path d="M27.4 52.5C27.6 52.5 27.8 52.5 28.1 52.4C28.1 52.4 28.2 52.4 28.2 52.3C28.3 52.3 28.3 52.2 28.4 52.2C28.6 52.1 28.9 52 29.2 51.8C29.9 51.4 30.9 50.9 32 50.3C34.3 49.1 37.4 47.5 40.4 45.9C43.4 44.3 46.5 42.7 48.8 41.5C49.9 40.9 50.9 40.4 51.6 40C51.9 39.8 52.2 39.7 52.4 39.6C52.5 39.5 52.6 39.5 52.6 39.5H52.7C52.8 39.4 53 39.2 53 39C53 38.9 53.1 38.8 53.1 38.6C53.1 38.4 53.1 37.9 53.1 37.2C53.1 35.7 53.1 32.7 53.1 27.1C53.1 21.4 53.1 18.5 53.1 17C53.1 16.2 53.1 15.8 53.1 15.6C53.1 15.4 53.1 15.3 53 15.2C53 15.1 52.9 15.1 52.9 15C52.8 14.9 52.8 14.9 52.7 14.8C52.5 14.7 52.1 14.5 51.5 14.1C50.2 13.4 47.8 12.1 43.2 9.6L40.6 8.2C35 4.8 30.9 2.6 29.1 1.6L28.3 1.2C27.9 1 27.5 1 27.2 1.2C24.1 2.9 5.1 12.7 3.6 13.4C3 13.7 2.7 13.9 2.5 14.1C2.5 14.1 2.5 14.1 2.4 14.2L2.3 14.3C2.1 14.5 2.1 14.8 2.1 15.4C2.1 16 2.1 17.1 2.1 19.1C2.1 19.4 2.1 19.6 2.1 19.9V24.6H2V31.8C2 34 2 35.1 2 35.7C2 36.3 2 36.4 2.1 36.6C2.2 36.9 2.4 37.1 2.7 37.3C2.7 37.3 2.8 37.3 3 37.5C3.2 37.6 3.4 37.8 3.7 37.9C4.3 38.3 5.2 38.8 6.3 39.5C8.4 40.8 11.4 42.7 14.6 44.7C21 48.7 26.5 52.1 26.8 52.3C27 52.4 27.2 52.5 27.4 52.5ZM50.1 18.1C50.1 18.2 50.1 18.3 50.1 18.5C50.1 19 50.1 19.7 50.1 20.6C50.1 22.4 50.1 24.9 50.1 27.6V37.4L40.1 42.6C34.5 45.5 29.7 48 29.4 48.2L29.1 48.3V29.4L32.6 27.5C33.6 27 34.5 26.5 35.2 26.1C35.5 25.9 35.8 25.8 36 25.7C36 25.8 36 25.8 36 25.9C36 26.3 36 27.1 36 28.3V31.4V31.5L36.1 31.8C36.4 32.4 36.9 32.7 37.5 32.7H38L41.1 31C42 30.5 42.7 30.1 43.3 29.8C43.6 29.6 43.8 29.5 44 29.4C44.1 29.3 44.2 29.3 44.2 29.3C44.2 29.3 44.2 29.3 44.3 29.3C44.3 29.3 44.3 29.3 44.4 29.3C44.5 29.2 44.6 29 44.7 28.9L44.8 28.7V21.1L47.5 19.6C48.3 19.2 49 18.8 49.5 18.5C49.8 18.3 49.9 18.2 50.1 18.1ZM36.2 25.4C36.2 25.5 36.2 25.5 36.2 25.4ZM22.9 6.7C23.4 6.4 24.1 6.1 24.8 5.7C25.5 5.3 26.2 5 26.7 4.7C27 4.6 27.2 4.5 27.3 4.4C27.4 4.4 27.4 4.3 27.4 4.3C27.4 4.3 27.4 4.3 27.5 4.3C27.6 4.4 27.8 4.5 28 4.6C28.4 4.8 29.1 5.2 29.9 5.6C31.5 6.4 33.7 7.6 36 8.9L36.9 9.4C40.8 11.5 44.6 13.5 46.2 14.4L46.7 14.7C47.3 15 47.8 15.3 48.1 15.5C48.2 15.5 48.2 15.6 48.3 15.6C48.1 15.7 48 15.8 47.7 15.9C47.2 16.2 46.5 16.6 45.8 16.9C45.1 17.2 44.4 17.6 43.9 17.9C43.6 18 43.4 18.1 43.3 18.2C43.2 18.2 43.2 18.2 43.2 18.3C43.2 18.3 43.1 18.3 43.1 18.2C42.9 18.1 42.7 18 42.4 17.8C41.8 17.5 41 17 40 16.5C38 15.4 35.3 14 32.6 12.5C29.9 11 27.3 9.6 25.3 8.5C24.3 8 23.5 7.5 22.9 7.2C22.7 7.1 22.5 7 22.4 6.9C22.6 6.9 22.7 6.8 22.9 6.7ZM16.6 10C16.9 9.8 17.3 9.6 17.7 9.4C18.1 9.2 18.5 9 18.8 8.8C19 8.7 19.1 8.7 19.2 8.6C19.2 8.6 19.3 8.6 19.3 8.7C19.5 8.7 19.7 8.9 20 9C20.6 9.3 21.4 9.8 22.5 10.3C24.6 11.4 27.4 13 30.6 14.7L41.9 20.8V27L40.5 27.9C40.1 28.2 39.7 28.4 39.4 28.6C39.4 28.6 39.3 28.6 39.3 28.7C39.3 28.6 39.3 28.4 39.3 28.2C39.3 27.7 39.3 26.9 39.3 26.1C39.3 24.6 39.3 23.8 39.3 23.4C39.3 23.2 39.3 23.1 39.3 23C39.3 22.9 39.2 22.8 39.2 22.8C39.1 22.7 39 22.5 38.9 22.4H38.8C38.8 22.4 38.8 22.4 38.7 22.4C38.7 22.4 38.6 22.3 38.5 22.3C38.3 22.2 38.1 22.1 37.8 21.9C37.2 21.6 36.4 21.1 35.3 20.6C33.2 19.5 30.4 17.9 27.3 16.3C24.2 14.6 21.4 13.1 19.4 12C18.4 11.4 17.6 11 17 10.7C16.8 10.6 16.6 10.5 16.5 10.4C16.5 10 16.5 10 16.6 10ZM7.6 14.8C8.2 14.5 9.1 14 9.9 13.6C10.7 13.2 11.6 12.7 12.2 12.4C12.5 12.2 12.8 12.1 13 12C13.1 12 13.1 11.9 13.2 11.9C13.2 11.9 13.3 11.9 13.3 12C13.4 12.1 13.7 12.2 13.9 12.3C14.5 12.6 15.3 13 16.2 13.5C18.2 14.5 20.9 16 23.8 17.6C26.8 19.2 29.5 20.6 31.4 21.7C32.4 22.2 33.2 22.7 33.7 23C33.9 23.1 34 23.2 34.2 23.3C34 23.4 33.8 23.5 33.5 23.7C32.8 24.1 31.9 24.5 31 25C30.1 25.5 29.2 25.9 28.5 26.3C28.2 26.5 27.9 26.6 27.7 26.7C27.6 26.7 27.5 26.8 27.5 26.8C27.5 26.8 27.4 26.8 27.3 26.7C27.1 26.6 26.9 26.5 26.6 26.3C26 26 25.2 25.5 24.2 25C22.2 23.9 19.6 22.4 16.9 20.9C14.3 19.4 11.6 17.9 9.6 16.8C8.6 16.2 7.8 15.8 7.2 15.5C7 15.4 6.8 15.3 6.7 15.2C7.1 15.1 7.3 15 7.6 14.8ZM26 47C26 47.6 26 48 26 48.2C25.9 48.1 25.7 48 25.5 47.9C25 47.6 24.2 47.1 23.2 46.5C21.3 45.3 18.6 43.6 15.7 41.8L5.2 35.1V26.3C5.2 22.7 5.2 20.5 5.2 19.2C5.2 18.5 5.2 18.1 5.2 17.8C5.3 17.9 5.5 18 5.7 18.1C6.2 18.4 7 18.8 8 19.4C9.9 20.5 12.6 22 15.5 23.6L26 29.4V39C26 43.2 26 45.6 26 47Z" fill="#FF7E36"/>
<path d="M23.8 33.2C23.7 33.1 23.7 33.1 23.8 33.2C23.7 33.1 23.6 33.1 23.6 33.1C23.5 33 23.3 32.9 23.1 32.8C22.7 32.6 22.2 32.2 21.5 31.9C20.2 31.1 18.4 30.1 16.7 29.1C14.9 28.1 13.2 27.1 11.8 26.3C10.4 25.5 9.5 25 9.3 24.9C8.9 24.7 8.5 24.7 8.1 24.9C7.8 25 7.4 25.4 7.3 25.7C7.2 25.9 7.1 26.2 7.2 26.4C7.2 26.6 7.3 26.9 7.4 27.1C7.5 27.3 7.7 27.5 7.8 27.6C7.8 27.6 7.9 27.6 7.9 27.7C7.9 27.7 8 27.8 8.1 27.8C8.2 27.9 8.4 28 8.6 28.1C9 28.3 9.6 28.7 10.3 29.1C11.7 29.9 13.5 30.9 15.3 31.9C17.1 32.9 18.9 33.9 20.3 34.7C21 35.1 21.6 35.4 22 35.6C22.2 35.7 22.4 35.8 22.5 35.9C22.6 35.9 22.6 36 22.6 36C22.6 36 22.6 36 22.7 36C22.7 36 22.7 36 22.8 36C23.5 36.2 24.2 35.8 24.5 35.1C24.6 34.8 24.6 34.5 24.6 34.2C24.2 33.7 24 33.4 23.8 33.2Z" fill="#FF7E36"/>
<path d="M87.8 85.5C87.7 85.5 87.7 85.5 87.8 85.5C87.7 85.4 87.6 85.4 87.6 85.3C87.5 85.2 87.4 85.2 87.2 85.1C86.9 84.9 86.4 84.6 85.8 84.2C84.6 83.5 82.8 82.4 80.5 81.1C78.5 80 76.7 78.9 75.4 78.2C74.7 77.8 74.2 77.5 73.8 77.3C73.6 77.2 73.5 77.1 73.3 77C73.2 77 73.2 77 73.1 77C72.9 76.9 72.7 76.9 72.5 76.9C72.3 76.9 72.1 76.9 71.9 77C70.9 77.5 70.6 78.7 71.4 79.5C71.4 79.5 71.4 79.5 71.5 79.5L71.6 79.6C71.7 79.7 71.9 79.8 72.1 79.9C72.5 80.1 73.1 80.5 73.8 80.9C75.2 81.7 77 82.7 78.8 83.8C80.6 84.8 82.4 85.9 83.8 86.6C84.5 87 85.1 87.3 85.5 87.6C85.7 87.7 85.9 87.8 86 87.9C86.1 87.9 86.1 88 86.2 88H86.3C86.5 88.1 86.7 88.1 86.9 88.1C87.1 88.1 87.3 88 87.5 87.9C87.7 87.8 87.8 87.7 88 87.5C88.1 87.4 88.1 87.3 88.2 87.3C88.2 87.2 88.3 87.1 88.3 87C88.2 86.5 88.1 85.9 87.8 85.5Z" fill="#FF7E36"/>
<path d="M117.3 63.8C117.3 63 117.3 62.6 117.3 62.4C117.3 62.2 117.3 62.1 117.2 62C117.2 61.9 117.1 61.9 117.1 61.8C117 61.7 117 61.7 116.9 61.6C116.7 61.5 116.3 61.3 115.7 60.9C114.4 60.2 112 58.9 107.4 56.4L104.8 55C99.1 51.9 94.9 49.7 93.2 48.8L92.4 48.4C92 48.2 91.6 48.2 91.3 48.4C88.2 50 69.2 59.8 67.7 60.6C67.1 60.9 66.8 61.1 66.6 61.3C66.6 61.3 66.6 61.3 66.5 61.4L66.4 61.5C66.2 61.7 66.2 62 66.2 62.6C66.2 63.2 66.2 64.3 66.2 66.3C66.2 66.6 66.2 66.8 66.2 67.1V71.8H66.1V79.1C66.1 81.3 66.1 82.4 66.1 83C66.1 83.6 66.1 83.7 66.2 83.9C66.3 84.2 66.5 84.4 66.8 84.6C66.8 84.6 66.9 84.6 67.1 84.8C67.3 84.9 67.5 85.1 67.8 85.2C68.4 85.6 69.3 86.1 70.4 86.8C72.5 88.1 75.5 90 78.7 92C85.1 96 90.6 99.4 90.9 99.6C91.1 99.7 91.3 99.9 91.5 99.9C91.7 99.9 91.9 99.9 92.2 99.8C92.2 99.8 92.3 99.8 92.3 99.7C92.4 99.7 92.4 99.6 92.5 99.6C92.7 99.5 93 99.4 93.3 99.2C94 98.8 95 98.3 96.1 97.7C98.4 96.5 101.5 94.9 104.5 93.3C107.5 91.7 110.6 90.1 112.9 88.9C114 88.3 115 87.8 115.7 87.4C116 87.2 116.3 87.1 116.5 87C116.6 86.9 116.7 86.9 116.7 86.9H116.8C116.9 86.8 117.1 86.6 117.1 86.4C117.1 86.3 117.2 86.2 117.2 86C117.2 85.8 117.2 85.3 117.2 84.6C117.2 83.1 117.2 80.1 117.2 74.5C117.3 68.3 117.3 65.4 117.3 63.8ZM86.9 53.7C87.4 53.4 88.1 53.1 88.8 52.7C89.5 52.3 90.2 52 90.7 51.7C91 51.6 91.2 51.5 91.3 51.4C91.4 51.4 91.4 51.3 91.4 51.3C91.4 51.3 91.4 51.3 91.5 51.3C91.6 51.4 91.8 51.5 92 51.6C92.4 51.8 93.1 52.2 93.9 52.6C95.5 53.4 97.7 54.6 100 55.9L100.9 56.4C104.8 58.5 108.6 60.5 110.2 61.4L110.7 61.7C111.3 62 111.8 62.3 112.1 62.5C112.2 62.5 112.2 62.6 112.3 62.6C112.1 62.7 112 62.8 111.7 62.9C111.2 63.2 110.5 63.6 109.8 63.9C109.1 64.2 108.4 64.6 107.9 64.9C107.6 65 107.4 65.1 107.3 65.2C107.2 65.2 107.2 65.2 107.2 65.3C107.2 65.3 107.1 65.3 107.1 65.2C106.9 65.1 106.7 65 106.4 64.8C105.8 64.5 105 64 104 63.5C102 62.4 99.3 61 96.6 59.5C93.9 58 91.3 56.6 89.3 55.5C88.3 55 87.5 54.5 86.9 54.2C86.7 54.1 86.5 54 86.4 53.9C86.6 53.9 86.7 53.8 86.9 53.7ZM80.6 57C80.9 56.8 81.3 56.6 81.7 56.4C82.1 56.2 82.5 56 82.8 55.8C83 55.7 83.1 55.7 83.2 55.6C83.2 55.6 83.3 55.6 83.3 55.7C83.5 55.8 83.7 55.9 84 56.1C84.6 56.4 85.4 56.9 86.5 57.4C88.6 58.5 91.4 60.1 94.6 61.8L105.9 67.9V74.1L104.5 75C104.1 75.3 103.7 75.5 103.4 75.7C103.4 75.7 103.3 75.7 103.3 75.8C103.3 75.7 103.3 75.5 103.3 75.3C103.3 74.8 103.3 74 103.3 73.2C103.3 71.7 103.3 70.9 103.3 70.5C103.3 70.3 103.3 70.2 103.3 70.1C103.3 70 103.2 69.9 103.2 69.9C103.1 69.8 103 69.6 102.9 69.5H102.8C102.8 69.5 102.8 69.5 102.7 69.5C102.7 69.5 102.6 69.4 102.5 69.4C102.3 69.3 102.1 69.2 101.8 69C101.2 68.7 100.4 68.2 99.3 67.7C97.2 66.6 94.4 65 91.3 63.4C88.2 61.7 85.4 60.2 83.4 59.1C82.4 58.5 81.6 58.1 81 57.8C80.8 57.7 80.6 57.6 80.5 57.5C80.5 57 80.5 57 80.6 57ZM90 94C90 94.6 90 95 90 95.2C89.9 95.1 89.7 95 89.5 94.9C89 94.6 88.2 94.1 87.2 93.5C85.3 92.3 82.6 90.6 79.7 88.8L69.2 82.2V73.4C69.2 69.8 69.2 67.6 69.2 66.3C69.2 65.6 69.2 65.2 69.2 64.9C69.3 65 69.5 65.1 69.7 65.2C70.2 65.5 71 65.9 72 66.5C73.9 67.6 76.6 69.1 79.5 70.7L90 76.4V86C90 90.2 90 92.6 90 94ZM91.9 73.6C91.8 73.6 91.7 73.7 91.7 73.7C91.7 73.7 91.6 73.7 91.5 73.6C91.3 73.5 91.1 73.4 90.8 73.2C90.2 72.9 89.4 72.4 88.4 71.9C86.4 70.8 83.8 69.3 81.1 67.8C78.5 66.3 75.8 64.8 73.8 63.7C72.8 63.1 72 62.7 71.4 62.4C71.2 62.3 71 62.2 70.9 62.1C71.1 62 71.3 61.9 71.6 61.7C72.2 61.4 73.1 60.9 73.9 60.5C74.7 60.1 75.6 59.6 76.2 59.3C76.5 59.1 76.8 59 77 58.9C77.1 58.9 77.1 58.8 77.2 58.8C77.2 58.8 77.3 58.8 77.3 58.9C77.4 59 77.7 59.1 77.9 59.2C78.5 59.5 79.3 59.9 80.2 60.4C82.2 61.4 84.9 62.9 87.8 64.5C90.8 66.1 93.5 67.5 95.4 68.6C96.4 69.1 97.2 69.6 97.7 69.9C97.9 70 98 70.1 98.2 70.2C98 70.3 97.8 70.4 97.5 70.6C96.8 71 95.9 71.4 95 71.9C94.1 72.4 93.2 72.8 92.5 73.2C92.4 73.4 92.1 73.5 91.9 73.6ZM114.1 74.6V84.4L104.1 89.6C98.5 92.5 93.7 95 93.4 95.2L93.1 95.3V76.4L96.6 74.5C97.6 74 98.5 73.5 99.2 73.1C99.5 72.9 99.8 72.8 100 72.7C100 72.8 100 72.8 100 72.9C100 73.3 100 74.1 100 75.3V78.4V78.5L100.1 78.8C100.4 79.4 100.9 79.7 101.5 79.7H102L105.1 78C106 77.5 106.7 77.1 107.3 76.8C107.6 76.6 107.8 76.5 108 76.4C108.1 76.3 108.2 76.3 108.2 76.3C108.2 76.3 108.2 76.3 108.3 76.3C108.3 76.3 108.3 76.3 108.4 76.3C108.5 76.2 108.6 76 108.7 75.9L108.8 75.7V68.1L111.5 66.6C112.3 66.2 113 65.8 113.5 65.5C113.7 65.4 113.8 65.3 114 65.2C114 65.3 114 65.4 114 65.6C114 66.1 114 66.8 114 67.7C114.1 69.4 114.1 71.9 114.1 74.6Z" fill="#FF7E36"/>
<path d="M87.8 80.2C87.7 80.1 87.7 80.1 87.8 80.2C87.7 80.1 87.6 80.1 87.6 80.1C87.5 80 87.3 79.9 87.1 79.8C86.7 79.6 86.2 79.2 85.5 78.9C84.2 78.1 82.4 77.1 80.7 76.1C78.9 75.1 77.2 74.1 75.8 73.3C74.4 72.5 73.5 72 73.3 71.9C72.9 71.7 72.5 71.7 72.1 71.9C71.8 72 71.4 72.4 71.3 72.7C71.2 72.9 71.1 73.2 71.2 73.4C71.2 73.6 71.3 73.9 71.4 74.1C71.5 74.3 71.7 74.5 71.8 74.6C71.8 74.6 71.9 74.6 71.9 74.7C71.9 74.7 72 74.8 72.1 74.8C72.2 74.9 72.4 75 72.6 75.1C73 75.3 73.6 75.7 74.3 76.1C75.7 76.9 77.5 77.9 79.3 78.9C81.1 79.9 82.9 80.9 84.3 81.7C85 82.1 85.6 82.4 86 82.6C86.2 82.7 86.4 82.8 86.5 82.9C86.6 82.9 86.6 83 86.6 83C86.6 83 86.6 83 86.7 83C86.7 83 86.7 83 86.8 83C87.5 83.2 88.2 82.8 88.5 82.1C88.6 81.8 88.6 81.5 88.6 81.2C88.2 80.7 88 80.4 87.8 80.2Z" fill="#FF7E36"/>
</g>
</svg>
