<svg width="24" height="24" viewBox="0 0 24 24" fill="none" xmlns="http://www.w3.org/2000/svg">
<mask id="mask0_4020_5930" style="mask-type:alpha" maskUnits="userSpaceOnUse" x="0" y="0" width="24" height="24">
<rect width="24" height="24" fill="#D9D9D9"/>
</mask>
<g mask="url(#mask0_4020_5930)">
<path fill-rule="evenodd" clip-rule="evenodd" d="M6 1C4.89543 1 4 1.89543 4 3V20C4 21.1046 4.89543 22 6 22H18C19.1046 22 20 21.1046 20 20V3C20 1.89543 19.1046 1 18 1H6ZM7 3C6.44772 3 6 3.44772 6 4V7C6 7.55228 6.44772 8 7 8H17C17.5523 8 18 7.55228 18 7V4C18 3.44772 17.5523 3 17 3H7ZM7 18C6.44772 18 6 18.4477 6 19V19.5C6 20.0523 6.44772 20.5 7 20.5H8.2C8.75229 20.5 9.2 20.0523 9.2 19.5V19C9.2 18.4477 8.75228 18 8.2 18H7ZM10.3 19C10.3 18.4477 10.7477 18 11.3 18H12.5C13.0523 18 13.5 18.4477 13.5 19V19.5C13.5 20.0523 13.0523 20.5 12.5 20.5H11.3C10.7477 20.5 10.3 20.0523 10.3 19.5V19ZM15.6 18C15.0477 18 14.6 18.4477 14.6 19V19.5C14.6 20.0523 15.0477 20.5 15.6 20.5H16.8C17.3523 20.5 17.8 20.0523 17.8 19.5V19C17.8 18.4477 17.3523 18 16.8 18H15.6ZM6 15C6 14.4477 6.44772 14 7 14H8.2C8.75228 14 9.2 14.4477 9.2 15V15.5C9.2 16.0523 8.75229 16.5 8.2 16.5H7C6.44772 16.5 6 16.0523 6 15.5V15ZM11.3 14C10.7477 14 10.3 14.4477 10.3 15V15.5C10.3 16.0523 10.7477 16.5 11.3 16.5H12.5C13.0523 16.5 13.5 16.0523 13.5 15.5V15C13.5 14.4477 13.0523 14 12.5 14H11.3ZM14.6 15C14.6 14.4477 15.0477 14 15.6 14H16.8C17.3523 14 17.8 14.4477 17.8 15V15.5C17.8 16.0523 17.3523 16.5 16.8 16.5H15.6C15.0477 16.5 14.6 16.0523 14.6 15.5V15ZM7 10C6.44772 10 6 10.4477 6 11V11.5C6 12.0523 6.44772 12.5 7 12.5H8.2C8.75229 12.5 9.2 12.0523 9.2 11.5V11C9.2 10.4477 8.75228 10 8.2 10H7ZM10.3 11C10.3 10.4477 10.7477 10 11.3 10H12.5C13.0523 10 13.5 10.4477 13.5 11V11.5C13.5 12.0523 13.0523 12.5 12.5 12.5H11.3C10.7477 12.5 10.3 12.0523 10.3 11.5V11ZM15.6 10C15.0477 10 14.6 10.4477 14.6 11V11.5C14.6 12.0523 15.0477 12.5 15.6 12.5H16.8C17.3523 12.5 17.8 12.0523 17.8 11.5V11C17.8 10.4477 17.3523 10 16.8 10H15.6Z" fill="#FF7E36"/>
</g>
</svg>
