<svg width="29" height="39" viewBox="0 0 29 39" fill="none" xmlns="http://www.w3.org/2000/svg">
<path fill-rule="evenodd" clip-rule="evenodd" d="M0 3.17048C0 1.41947 1.4269 0 3.18708 0H25.8129C27.5731 0 29 1.41947 29 3.17048V35.0568C29 36.8078 27.5731 38.2273 25.8129 38.2273H3.18708C1.4269 38.2273 0 36.8078 0 35.0568V3.17048ZM5.07257 2.58963C3.70877 2.58963 2.60319 3.68945 2.60319 5.04614V10.6731C2.60319 12.0298 3.70877 13.1297 5.07257 13.1297H23.9274C25.2912 13.1297 26.3968 12.0298 26.3968 10.6731V5.04614C26.3968 3.68945 25.2912 2.58963 23.9274 2.58963H5.07257ZM20.2121 33.5152C20.2121 32.9629 20.6598 32.5152 21.2121 32.5152H25.3636C25.9159 32.5152 26.3636 32.9629 26.3636 33.5152V34.8106C26.3636 35.3629 25.9159 35.8106 25.3636 35.8106H21.2121C20.6598 35.8106 20.2121 35.3629 20.2121 34.8106V33.5152ZM18.0152 33.5152C18.0152 32.9629 17.5674 32.5152 17.0152 32.5152H12.4242C11.872 32.5152 11.4242 32.9629 11.4242 33.5152V34.8106C11.4242 35.3629 11.872 35.8106 12.4242 35.8106H17.0152C17.5674 35.8106 18.0152 35.3629 18.0152 34.8106V33.5152ZM2.63636 33.5152C2.63636 32.9629 3.08408 32.5152 3.63636 32.5152H8.22727C8.77956 32.5152 9.22727 32.9629 9.22727 33.5152V34.8106C9.22727 35.3629 8.77956 35.8106 8.22727 35.8106H3.63636C3.08408 35.8106 2.63636 35.3629 2.63636 34.8106V33.5152ZM26.3636 27.803C26.3636 27.2507 25.9159 26.803 25.3636 26.803H21.2121C20.6598 26.803 20.2121 27.2507 20.2121 27.803V29.0985C20.2121 29.6508 20.6598 30.0985 21.2121 30.0985H25.3636C25.9159 30.0985 26.3636 29.6508 26.3636 29.0985V27.803ZM11.4242 27.803C11.4242 27.2507 11.872 26.803 12.4242 26.803H17.0152C17.5674 26.803 18.0152 27.2507 18.0152 27.803V29.0985C18.0152 29.6508 17.5674 30.0985 17.0152 30.0985H12.4242C11.872 30.0985 11.4242 29.6508 11.4242 29.0985V27.803ZM9.22727 27.803C9.22727 27.2507 8.77956 26.803 8.22727 26.803H3.63636C3.08408 26.803 2.63636 27.2507 2.63636 27.803V29.0985C2.63636 29.6508 3.08408 30.0985 3.63636 30.0985H8.22727C8.77956 30.0985 9.22727 29.6508 9.22727 29.0985V27.803ZM20.2121 22.0909C20.2121 21.5386 20.6598 21.0909 21.2121 21.0909H25.3636C25.9159 21.0909 26.3636 21.5386 26.3636 22.0909V23.3864C26.3636 23.9386 25.9159 24.3864 25.3636 24.3864H21.2121C20.6598 24.3864 20.2121 23.9386 20.2121 23.3864V22.0909ZM18.0152 22.0909C18.0152 21.5386 17.5674 21.0909 17.0152 21.0909H12.4242C11.872 21.0909 11.4242 21.5386 11.4242 22.0909V23.3864C11.4242 23.9386 11.872 24.3864 12.4242 24.3864H17.0152C17.5674 24.3864 18.0152 23.9386 18.0152 23.3864V22.0909ZM2.63636 22.0909C2.63636 21.5386 3.08408 21.0909 3.63636 21.0909H8.22727C8.77956 21.0909 9.22727 21.5386 9.22727 22.0909V23.3864C9.22727 23.9386 8.77956 24.3864 8.22727 24.3864H3.63636C3.08408 24.3864 2.63636 23.9386 2.63636 23.3864V22.0909ZM9.22727 16.3788C9.22727 15.8265 8.77956 15.3788 8.22727 15.3788H3.63636C3.08408 15.3788 2.63636 15.8265 2.63636 16.3788V17.6742C2.63636 18.2265 3.08408 18.6742 3.63636 18.6742H8.22727C8.77956 18.6742 9.22727 18.2265 9.22727 17.6742V16.3788ZM11.4242 16.3788C11.4242 15.8265 11.872 15.3788 12.4242 15.3788H17.0152C17.5674 15.3788 18.0152 15.8265 18.0152 16.3788V17.6742C18.0152 18.2265 17.5674 18.6742 17.0152 18.6742H12.4242C11.872 18.6742 11.4242 18.2265 11.4242 17.6742V16.3788ZM26.3636 16.3788C26.3636 15.8265 25.9159 15.3788 25.3636 15.3788H21.2121C20.6598 15.3788 20.2121 15.8265 20.2121 16.3788V17.6742C20.2121 18.2265 20.6598 18.6742 21.2121 18.6742H25.3636C25.9159 18.6742 26.3636 18.2265 26.3636 17.6742V16.3788Z" fill="#FF7E36"/>
</svg>
