<svg width="18" height="16" viewBox="0 0 18 16" fill="none" xmlns="http://www.w3.org/2000/svg">
<path fill-rule="evenodd" clip-rule="evenodd" d="M11.6493 15.4978C11.9522 15.5111 12.2413 15.4644 12.5167 15.3576L15.8215 14.1763C16.689 13.8693 17.312 13.3187 17.6907 12.5245C18.0694 11.7302 18.1003 10.9127 17.7836 10.0717L16.5237 6.68794C16.4549 6.52776 16.3447 6.41096 16.1932 6.33755C16.0418 6.26413 15.8834 6.26079 15.7182 6.32754C15.553 6.39428 15.4325 6.50106 15.3567 6.64789C15.281 6.79472 15.2776 6.94823 15.3464 7.10841L16.627 10.4922C16.8198 11.0128 16.7957 11.5233 16.5547 12.0239C16.3137 12.5245 15.9247 12.8682 15.3877 13.055L12.1037 14.2163C11.9797 14.2564 11.8489 14.2764 11.7112 14.2764C11.5735 14.2764 11.4427 14.2497 11.3188 14.1963L7.64228 12.5345L10.2861 12.2942L7.31181 4.40539C7.24296 4.24521 7.1328 4.12841 6.98133 4.055C6.82987 3.98158 6.67152 3.97825 6.50628 4.04499C6.34105 4.11173 6.22056 4.21518 6.14483 4.35533C6.06909 4.49549 6.06565 4.64566 6.1345 4.80584L8.55108 11.213L6.50628 11.3732C6.23089 11.3999 5.9968 11.4933 5.80403 11.6535C5.61125 11.8137 5.48044 12.0206 5.41159 12.2742L5.26701 12.7948L10.7818 15.2775C11.0572 15.411 11.3463 15.4844 11.6493 15.4978ZM9.60446 6.5678L10.8024 9.77138L11.9591 9.37093L10.7611 6.16736C10.6923 6.00718 10.5855 5.89038 10.441 5.81696C10.2964 5.74355 10.1415 5.74021 9.97624 5.80695C9.811 5.87369 9.69052 5.97714 9.61478 6.1173C9.53905 6.25746 9.53561 6.40762 9.60446 6.5678ZM12.3309 6.46769L13.2396 8.91042L14.417 8.50997L13.4875 6.04722C13.4187 5.88704 13.3119 5.77025 13.1674 5.69683C13.0228 5.62342 12.8679 5.62008 12.7026 5.68682C12.5374 5.75356 12.4169 5.86035 12.3412 6.00718C12.2654 6.15401 12.262 6.30751 12.3309 6.46769Z" fill="white"/>
<path d="M4.15484 7.12104L3.34507 7.38389C2.94456 6.76037 2.46054 5.43977 2.21953 4.72694C2.08244 4.32147 1.9715 3.90751 1.88669 3.48507C1.80189 3.06262 1.74322 2.63169 1.7107 2.19228L0.728915 4.05072L0 3.69674L1.66075 0.5L4.94087 2.09291L4.57181 2.8033L2.54769 1.83622C2.58021 2.27563 2.62794 2.71714 2.69089 3.16074C2.75384 3.60434 2.85814 4.04155 3.0038 4.47237C3.24553 5.18736 3.73805 6.50519 4.15484 7.12104Z" fill="white"/>
</svg>
