<svg width="24" height="24" viewBox="0 0 24 24" fill="none" xmlns="http://www.w3.org/2000/svg">
<mask id="mask0_4087_5873" style="mask-type:alpha" maskUnits="userSpaceOnUse" x="0" y="0" width="24" height="24">
<rect width="24" height="24" fill="#D9D9D9"/>
</mask>
<g mask="url(#mask0_4087_5873)">
<path fill-rule="evenodd" clip-rule="evenodd" d="M19.839 7.94405L15.699 4.40341L16.86 3L21 6.54064L19.839 7.94405ZM19.1429 9.32246C19.082 9.20683 19.0186 9.09284 18.9525 8.98058C18.0071 7.37308 16.5402 6.12054 14.7903 5.46596C14.7019 5.4329 14.6128 5.40136 14.523 5.37138C13.7289 5.1063 12.8809 4.96294 12 4.96294C11.1137 4.96294 10.2606 5.10808 9.46238 5.37629C9.37513 5.40561 9.28853 5.4364 9.20262 5.46863C7.45769 6.12322 5.99475 7.37257 5.05052 8.9754C4.98662 9.08386 4.9251 9.19394 4.86603 9.30556C4.24977 10.4701 3.9 11.8026 3.9 13.2183C3.9 17.7771 7.518 21.4737 12 21.4737C16.473 21.4737 20.1 17.7771 20.1 13.2183C20.1 11.8095 19.7536 10.483 19.1429 9.32246ZM7.14 3L3 6.53146L4.161 7.93488L8.292 4.40341L7.14 3ZM8.769 12.668L7.815 13.6403L10.677 16.5572L16.077 11.0536L15.123 10.0813L10.686 14.6217L8.769 12.668ZM17.9959 11.2396C18.1934 11.8627 18.3 12.5277 18.3 13.2183C18.3 16.7681 15.483 19.6392 12 19.6392C8.517 19.6392 5.7 16.7681 5.7 13.2183C5.7 9.66851 8.517 6.79747 12 6.79747C14.5829 6.79747 16.7996 8.37635 17.7727 10.6401C17.8565 10.835 17.9311 11.0351 17.9959 11.2396Z" fill="#FF7E36"/>
</g>
</svg>
