<svg width="31" height="36" viewBox="0 0 31 36" fill="none" xmlns="http://www.w3.org/2000/svg">
<path fill-rule="evenodd" clip-rule="evenodd" d="M12.1672 3.44415L8.93113 6.60302L12.1996 9.79145L15.4681 12.9799V10.414V7.84808L19.1904 7.88824C22.6775 7.92601 22.9507 7.94571 23.5146 8.19995C24.284 8.54689 25.1271 9.36935 25.4828 10.12C25.7562 10.6969 25.7616 10.8375 25.7974 18.2219L25.8336 25.7367L25.2426 26.0407C24.0682 26.6449 23.3582 27.7661 23.2645 29.1644C23.212 29.948 23.2494 30.1626 23.5509 30.8063C24.0024 31.7699 24.5451 32.3139 25.5021 32.7616C26.9312 33.4302 28.6595 33.1555 29.8185 32.0756C30.9273 31.0426 31.3224 29.2153 30.7162 27.9237C30.3028 27.0428 29.7369 26.4211 29.0022 26.041L28.4151 25.7371V18.2803C28.4151 10.086 28.4131 10.0602 27.6197 8.60828C27.1339 7.719 25.8624 6.50022 24.9501 6.0492C23.651 5.40697 23.0969 5.3394 19.1335 5.3394H15.4734L15.4384 2.81228L15.4034 0.285156L12.1672 3.44415ZM2.26211 3.138C1.37679 3.53862 0.786274 4.07982 0.342708 4.89735C0.0497166 5.43715 0 5.6847 0 6.60239C0 7.52134 0.0498463 7.76851 0.345945 8.3188C0.722316 9.01824 1.39388 9.66123 2.08292 9.98178L2.52105 10.1855V17.7172C2.52105 25.9029 2.51315 25.8018 3.26421 27.2485C3.71231 28.1119 4.97167 29.3552 5.872 29.8233C7.23015 30.5295 7.7637 30.5992 11.8054 30.5992H15.4681V33.1566V35.7137L18.737 32.5251L22.0057 29.3363L18.737 26.1474L15.4681 22.9588V25.5247V28.0906L11.7458 28.0504C8.25866 28.0126 7.98548 27.9929 7.42164 27.7387C6.65219 27.3918 5.80908 26.5693 5.45343 25.8187C5.17998 25.2418 5.17455 25.1012 5.13881 17.7167L5.10256 10.2019L5.69359 9.89792C6.86802 9.2937 7.57804 8.17254 7.67164 6.77428C7.72421 5.9906 7.68679 5.77601 7.38525 5.13239C6.93379 4.16873 6.39105 3.62476 5.43413 3.17703C4.38983 2.6885 3.28583 2.67486 2.26211 3.138ZM4.71907 5.78448C5.17869 6.23259 5.16406 6.98647 4.6867 7.45201C3.90496 8.2146 2.59161 7.68844 2.59161 6.61249C2.59161 5.4854 3.89279 4.97894 4.71907 5.78448ZM28.0238 28.5183C28.4834 28.9664 28.4687 29.7203 27.9914 30.1859C27.2096 30.9485 25.8963 30.4223 25.8963 29.3464C25.8963 28.2193 27.1975 27.7128 28.0238 28.5183Z" fill="#4C555E"/>
</svg>
