<svg width="24" height="24" viewBox="0 0 24 24" fill="none" xmlns="http://www.w3.org/2000/svg">
<mask id="mask0_4020_5926" style="mask-type:alpha" maskUnits="userSpaceOnUse" x="0" y="0" width="24" height="24">
<rect width="24" height="24" fill="#D9D9D9"/>
</mask>
<g mask="url(#mask0_4020_5926)">
<path fill-rule="evenodd" clip-rule="evenodd" d="M9.24233 2.13997L7.05012 4.27984L9.26426 6.43974L11.4784 8.59964V6.86146V5.12327L13.9999 5.15048C16.3622 5.17606 16.5473 5.18941 16.9292 5.36163C17.4505 5.59666 18.0216 6.15381 18.2625 6.66228C18.4478 7.05311 18.4514 7.14833 18.4756 12.1507L18.5002 17.2414L18.0998 17.4473C17.3042 17.8566 16.8233 18.6161 16.7599 19.5633C16.7242 20.0942 16.7496 20.2396 16.9539 20.6756C17.2597 21.3284 17.6274 21.6969 18.2756 22.0002C19.2437 22.4531 20.4145 22.267 21.1996 21.5354C21.9507 20.8357 22.2184 19.5978 21.8078 18.7229C21.5277 18.1261 21.1444 17.705 20.6466 17.4475L20.249 17.2416V12.1902C20.249 6.63927 20.2476 6.62181 19.7101 5.63824C19.381 5.03583 18.5197 4.2102 17.9017 3.90467C17.0217 3.46961 16.6463 3.42384 13.9614 3.42384H11.482L11.4583 1.71192L11.4345 0L9.24233 2.13997ZM2.5324 1.93257C1.93266 2.20396 1.53264 2.57058 1.23216 3.12439C1.03368 3.49006 1 3.65776 1 4.27942C1 4.90193 1.03377 5.06937 1.23435 5.44214C1.48931 5.91596 1.94424 6.35153 2.41101 6.56868L2.70781 6.70668V11.8088C2.70781 17.354 2.70246 17.2854 3.21124 18.2655C3.51479 18.8504 4.3679 19.6926 4.97781 20.0097C5.89784 20.4881 6.25928 20.5353 8.99719 20.5353H11.4784V22.2677V24L13.6928 21.8399L15.9071 19.6798L13.6928 17.5196L11.4784 15.3595V17.0977V18.8359L8.95685 18.8087C6.59458 18.7831 6.40952 18.7698 6.02756 18.5976C5.50632 18.3625 4.93518 17.8054 4.69426 17.2969C4.50902 16.9061 4.50534 16.8109 4.48113 11.8085L4.45657 6.71781L4.85695 6.51187C5.65253 6.10256 6.13351 5.34307 6.19692 4.39586C6.23253 3.86498 6.20718 3.71961 6.00291 3.28361C5.69708 2.63081 5.32942 2.26231 4.68119 1.95901C3.97375 1.62807 3.22589 1.61883 2.5324 1.93257ZM4.19679 3.72535C4.50814 4.0289 4.49823 4.5396 4.17486 4.85496C3.64529 5.37156 2.75561 5.01513 2.75561 4.28626C2.75561 3.52275 3.63705 3.17966 4.19679 3.72535ZM19.9838 19.1257C20.2952 19.4293 20.2853 19.94 19.9619 20.2553C19.4323 20.7719 18.5427 20.4155 18.5427 19.6866C18.5427 18.9231 19.4241 18.58 19.9838 19.1257Z" fill="#FF7E36"/>
</g>
</svg>
