<svg width="176" height="48" viewBox="0 0 176 48" fill="none" xmlns="http://www.w3.org/2000/svg">
<path fill-rule="evenodd" clip-rule="evenodd" d="M15.8732 31.7449C20.1671 31.7449 23.6479 28.2774 23.6479 24C23.6479 19.7226 20.1671 16.2551 15.8732 16.2551C11.5794 16.2551 8.09859 19.7226 8.09859 24C8.09859 28.2774 11.5794 31.7449 15.8732 31.7449ZM15.8732 34.3265C21.5983 34.3265 26.2394 29.7032 26.2394 24C26.2394 18.2968 21.5983 13.6735 15.8732 13.6735C10.1481 13.6735 5.50704 18.2968 5.50704 24C5.50704 29.7032 10.1481 34.3265 15.8732 34.3265Z" fill="#FF7E36"/>
<path fill-rule="evenodd" clip-rule="evenodd" d="M33 20.0714C37.2938 20.0714 40.7747 16.6039 40.7747 12.3265C40.7747 8.04914 37.2938 4.58163 33 4.58163C28.7062 4.58163 25.2254 8.04914 25.2254 12.3265C25.2254 16.6039 28.7062 20.0714 33 20.0714ZM33 22.6531C38.7251 22.6531 43.3662 18.0297 43.3662 12.3265C43.3662 6.62335 38.7251 2 33 2C27.2749 2 22.6338 6.62335 22.6338 12.3265C22.6338 18.0297 27.2749 22.6531 33 22.6531Z" fill="#FF7E36"/>
<path fill-rule="evenodd" clip-rule="evenodd" d="M50.1268 31.7449C54.4206 31.7449 57.9014 28.2774 57.9014 24C57.9014 19.7226 54.4206 16.2551 50.1268 16.2551C45.8329 16.2551 42.3521 19.7226 42.3521 24C42.3521 28.2774 45.8329 31.7449 50.1268 31.7449ZM50.1268 34.3265C55.8519 34.3265 60.493 29.7032 60.493 24C60.493 18.2968 55.8519 13.6735 50.1268 13.6735C44.4017 13.6735 39.7606 18.2968 39.7606 24C39.7606 29.7032 44.4017 34.3265 50.1268 34.3265Z" fill="#FF7E36"/>
<path fill-rule="evenodd" clip-rule="evenodd" d="M33 43.4184C37.2938 43.4184 40.7747 39.9509 40.7747 35.6735C40.7747 31.3961 37.2938 27.9286 33 27.9286C28.7062 27.9286 25.2254 31.3961 25.2254 35.6735C25.2254 39.9509 28.7062 43.4184 33 43.4184ZM33 46C38.7251 46 43.3662 41.3767 43.3662 35.6735C43.3662 29.9703 38.7251 25.3469 33 25.3469C27.2749 25.3469 22.6338 29.9703 22.6338 35.6735C22.6338 41.3767 27.2749 46 33 46Z" fill="#FF7E36"/>
<path d="M1 22.6531H65V25.3469H1V22.6531Z" fill="#FF7E36"/>
<path fill-rule="evenodd" clip-rule="evenodd" d="M15.8732 31.7449C20.1671 31.7449 23.6479 28.2774 23.6479 24C23.6479 19.7226 20.1671 16.2551 15.8732 16.2551C11.5794 16.2551 8.09859 19.7226 8.09859 24C8.09859 28.2774 11.5794 31.7449 15.8732 31.7449ZM15.8732 34.3265C21.5983 34.3265 26.2394 29.7032 26.2394 24C26.2394 18.2968 21.5983 13.6735 15.8732 13.6735C10.1481 13.6735 5.50704 18.2968 5.50704 24C5.50704 29.7032 10.1481 34.3265 15.8732 34.3265Z" stroke="#FF7E36"/>
<path fill-rule="evenodd" clip-rule="evenodd" d="M33 20.0714C37.2938 20.0714 40.7747 16.6039 40.7747 12.3265C40.7747 8.04914 37.2938 4.58163 33 4.58163C28.7062 4.58163 25.2254 8.04914 25.2254 12.3265C25.2254 16.6039 28.7062 20.0714 33 20.0714ZM33 22.6531C38.7251 22.6531 43.3662 18.0297 43.3662 12.3265C43.3662 6.62335 38.7251 2 33 2C27.2749 2 22.6338 6.62335 22.6338 12.3265C22.6338 18.0297 27.2749 22.6531 33 22.6531Z" stroke="#FF7E36"/>
<path fill-rule="evenodd" clip-rule="evenodd" d="M50.1268 31.7449C54.4206 31.7449 57.9014 28.2774 57.9014 24C57.9014 19.7226 54.4206 16.2551 50.1268 16.2551C45.8329 16.2551 42.3521 19.7226 42.3521 24C42.3521 28.2774 45.8329 31.7449 50.1268 31.7449ZM50.1268 34.3265C55.8519 34.3265 60.493 29.7032 60.493 24C60.493 18.2968 55.8519 13.6735 50.1268 13.6735C44.4017 13.6735 39.7606 18.2968 39.7606 24C39.7606 29.7032 44.4017 34.3265 50.1268 34.3265Z" stroke="#FF7E36"/>
<path fill-rule="evenodd" clip-rule="evenodd" d="M33 43.4184C37.2938 43.4184 40.7747 39.9509 40.7747 35.6735C40.7747 31.3961 37.2938 27.9286 33 27.9286C28.7062 27.9286 25.2254 31.3961 25.2254 35.6735C25.2254 39.9509 28.7062 43.4184 33 43.4184ZM33 46C38.7251 46 43.3662 41.3767 43.3662 35.6735C43.3662 29.9703 38.7251 25.3469 33 25.3469C27.2749 25.3469 22.6338 29.9703 22.6338 35.6735C22.6338 41.3767 27.2749 46 33 46Z" stroke="#FF7E36"/>
<path d="M1 22.6531H65V25.3469H1V22.6531Z" stroke="#FF7E36"/>
<path d="M73.8431 29.6977C76.5098 32.4238 79.4183 33.7868 82.5686 33.7868C84.6732 33.7868 86.6144 33.2313 88.3922 32.1202C90.1699 30.9961 91.4314 29.2003 92.1765 26.7326H81.1176V21.7907H92.1765C91.915 19.8398 90.8693 18.1085 89.0392 16.5969C87.2222 15.0853 85.098 14.3295 82.6667 14.3295C79.3333 14.3295 76.3922 15.6925 73.8431 18.4186L70 14.7946C71.5556 12.9599 73.4575 11.5452 75.7059 10.5504C77.9542 9.55556 80.2418 9.05814 82.5686 9.05814C86.6732 9.05814 90.2614 10.4276 93.3333 13.1667C96.4052 15.9057 97.9412 19.5103 97.9412 23.9806C97.9412 28.27 96.5359 31.8488 93.7255 34.7171C90.9281 37.5724 87.2353 39 82.6471 39C80.4641 39 78.3922 38.6382 76.4314 37.9147C74.4706 37.1912 72.366 35.7313 70.1176 33.5349L73.8431 29.6977Z" fill="#555861"/>
<path d="M104.51 30.8605C105.961 32.863 107.66 33.8643 109.608 33.8643C110.902 33.8643 111.948 33.5026 112.745 32.7791C113.542 32.0556 113.941 31.093 113.941 29.8915C113.941 28.7158 113.549 27.7403 112.765 26.9651C111.993 26.1899 110.386 25.8023 107.941 25.8023H106.765V20.9574H107.941C109.392 20.9574 110.49 20.6279 111.235 19.969C111.993 19.3101 112.373 18.4251 112.373 17.314C112.373 16.2933 112.059 15.4858 111.431 14.8915C110.804 14.2972 109.974 14 108.941 14C107.712 14 106.451 14.6008 105.157 15.8023L101.922 12.2364C103.66 10.686 105.111 9.76227 106.275 9.46512C107.438 9.15504 108.51 9 109.49 9C111.843 9 113.817 9.67829 115.412 11.0349C117.02 12.3915 117.824 14.2196 117.824 16.5194C117.824 17.5401 117.641 18.5349 117.275 19.5039C116.922 20.4729 115.922 21.5 114.275 22.5853C117.647 24.0711 119.333 26.6098 119.333 30.2015C119.333 32.8501 118.431 34.9819 116.627 36.5969C114.837 38.199 112.529 39 109.706 39C107.928 39 106.333 38.6835 104.922 38.0504C103.51 37.4044 101.974 36.022 100.314 33.9031L104.51 30.8605Z" fill="#555861"/>
<path d="M124.627 9.77519H130.176V19.5814L138 9.77519H144.608L134.529 22.4884L145.588 38.2829H139.078L130.176 25.6279V38.2829H124.627V9.77519Z" fill="#555861"/>
<path d="M176 14.7946L172.157 18.4186C169.542 15.6925 166.601 14.3295 163.333 14.3295C160.575 14.3295 158.248 15.2597 156.353 17.1202C154.471 18.9806 153.529 21.2739 153.529 24C153.529 25.8992 153.948 27.5853 154.784 29.0581C155.621 30.531 156.804 31.6873 158.333 32.5271C159.863 33.3669 161.562 33.7868 163.431 33.7868C165.026 33.7868 166.484 33.4961 167.804 32.9147C169.124 32.3204 170.575 31.2481 172.157 29.6977L175.882 33.5349C173.752 35.5891 171.739 37.0168 169.843 37.8178C167.948 38.6059 165.784 39 163.353 39C158.869 39 155.196 37.5982 152.333 34.7946C149.484 31.978 148.059 28.3734 148.059 23.9806C148.059 21.1382 148.706 18.6124 150 16.4031C151.307 14.1938 153.17 12.4173 155.588 11.0736C158.02 9.72997 160.634 9.05814 163.431 9.05814C165.81 9.05814 168.098 9.55556 170.294 10.5504C172.503 11.5452 174.405 12.9599 176 14.7946Z" fill="#555861"/>
</svg>
