<svg width="171" height="107" viewBox="0 0 171 107" fill="none" xmlns="http://www.w3.org/2000/svg">
<path fill-rule="evenodd" clip-rule="evenodd" d="M15.1398 29.5708C19.3668 29.5708 22.7934 26.1812 22.7934 22C22.7934 17.8187 19.3668 14.4292 15.1398 14.4292C10.9128 14.4292 7.4861 17.8187 7.4861 22C7.4861 26.1812 10.9128 29.5708 15.1398 29.5708ZM15.1398 32.0944C20.7758 32.0944 25.3446 27.575 25.3446 22C25.3446 16.425 20.7758 11.9056 15.1398 11.9056C9.50376 11.9056 4.93488 16.425 4.93488 22C4.93488 27.575 9.50376 32.0944 15.1398 32.0944Z" fill="#FF7E36"/>
<path fill-rule="evenodd" clip-rule="evenodd" d="M32 18.1597C36.227 18.1597 39.6537 14.7702 39.6537 10.5889C39.6537 6.40766 36.227 3.01809 32 3.01809C27.773 3.01809 24.3463 6.40766 24.3463 10.5889C24.3463 14.7702 27.773 18.1597 32 18.1597ZM32 20.6833C37.636 20.6833 42.2049 16.1639 42.2049 10.5889C42.2049 5.01391 37.636 0.494478 32 0.494478C26.364 0.494478 21.7951 5.01391 21.7951 10.5889C21.7951 16.1639 26.364 20.6833 32 20.6833Z" fill="#FF7E36"/>
<path fill-rule="evenodd" clip-rule="evenodd" d="M48.8602 29.5708C53.0872 29.5708 56.5139 26.1812 56.5139 22C56.5139 17.8187 53.0872 14.4292 48.8602 14.4292C44.6332 14.4292 41.2066 17.8187 41.2066 22C41.2066 26.1812 44.6332 29.5708 48.8602 29.5708ZM48.8602 32.0944C54.4962 32.0944 59.0651 27.575 59.0651 22C59.0651 16.425 54.4962 11.9056 48.8602 11.9056C43.2242 11.9056 38.6554 16.425 38.6554 22C38.6554 27.575 43.2242 32.0944 48.8602 32.0944Z" fill="#FF7E36"/>
<path fill-rule="evenodd" clip-rule="evenodd" d="M32 40.9819C36.227 40.9819 39.6537 37.5923 39.6537 33.4111C39.6537 29.2298 36.227 25.8403 32 25.8403C27.773 25.8403 24.3463 29.2298 24.3463 33.4111C24.3463 37.5923 27.773 40.9819 32 40.9819ZM32 43.5055C37.636 43.5055 42.2049 38.9861 42.2049 33.4111C42.2049 27.8361 37.636 23.3167 32 23.3167C26.364 23.3167 21.7951 27.8361 21.7951 33.4111C21.7951 38.9861 26.364 43.5055 32 43.5055Z" fill="#FF7E36"/>
<path d="M0.497976 20.6833H63.502V23.3167H0.497976V20.6833Z" fill="#FF7E36"/>
<path fill-rule="evenodd" clip-rule="evenodd" d="M32 0.988957C26.6372 0.988957 22.2931 5.28879 22.2931 10.5889C22.2931 15.887 26.6339 20.1856 31.9938 20.1889C31.9959 20.1889 31.9979 20.1889 32 20.1889C32.0021 20.1889 32.0041 20.1889 32.0062 20.1889C37.3661 20.1856 41.7069 15.887 41.7069 10.5889C41.7069 5.28879 37.3628 0.988957 32 0.988957ZM32.0065 21.1778C32.0043 21.1778 32.0022 21.1778 32 21.1778C31.9978 21.1778 31.9957 21.1778 31.9935 21.1778H25.8108C25.8319 21.4491 25.8426 21.7233 25.8426 22C25.8426 22.2767 25.8319 22.5509 25.8108 22.8222H38.1892C38.1681 22.5509 38.1574 22.2767 38.1574 22C38.1574 21.7233 38.1681 21.4491 38.1892 21.1778H32.0065ZM38.3133 20.1889H36.5223C37.2731 19.8421 37.9766 19.4116 38.6204 18.9095C38.4922 19.3257 38.3893 19.7527 38.3133 20.1889ZM39.1884 21.1778C39.1652 21.4488 39.1533 21.723 39.1533 22C39.1533 22.2769 39.1652 22.5512 39.1884 22.8222H40.7504C40.7228 22.5519 40.7086 22.2776 40.7086 22C40.7086 21.7224 40.7228 21.4481 40.7504 21.1778H39.1884ZM40.9149 20.1889H39.3259C40.1821 15.754 44.1239 12.4 48.8602 12.4C53.5966 12.4 57.5384 15.754 58.3946 20.1889H56.8056C55.9747 16.6056 52.7315 13.9347 48.8602 13.9347C44.9889 13.9347 41.7458 16.6056 40.9149 20.1889ZM41.7523 21.1778C41.7208 21.4476 41.7046 21.7219 41.7046 22C41.7046 22.2781 41.7208 22.5524 41.7523 22.8222H55.9681C55.9997 22.5524 56.0159 22.2781 56.0159 22C56.0159 21.7219 55.9997 21.4476 55.9681 21.1778H41.7523ZM55.7794 20.1889H41.9411C42.75 17.1591 45.54 14.9237 48.8602 14.9237C52.1805 14.9237 54.9705 17.1591 55.7794 20.1889ZM56.9701 21.1778C56.9977 21.4481 57.0119 21.7224 57.0119 22C57.0119 22.2776 56.9977 22.5519 56.9701 22.8222H58.532C58.5553 22.5512 58.5671 22.2769 58.5671 22C58.5671 21.723 58.5553 21.4488 58.532 21.1778H56.9701ZM59.5313 21.1778C59.5524 21.4491 59.5631 21.7233 59.5631 22C59.5631 22.2767 59.5524 22.5509 59.5313 22.8222H63.004V21.1778H59.5313ZM58.3946 23.8111H56.8056C55.9747 27.3944 52.7315 30.0653 48.8602 30.0653C44.9889 30.0653 41.7458 27.3944 40.9149 23.8111H39.3259C40.1821 28.246 44.1239 31.5999 48.8602 31.5999C53.5966 31.5999 57.5384 28.246 58.3946 23.8111ZM38.3133 23.8111H36.5223C37.2731 24.1579 37.9766 24.5884 38.6204 25.0905C38.4922 24.6743 38.3893 24.2473 38.3133 23.8111ZM42.2399 30.3206C44.0617 31.7413 46.3612 32.5889 48.8602 32.5889C54.1457 32.5889 58.5386 28.7976 59.4072 23.8111H64V20.1889H59.4072C58.5386 15.2024 54.1457 11.4111 48.8602 11.4111C46.3612 11.4111 44.0617 12.2587 42.2399 13.6794C42.5409 12.7018 42.7029 11.6641 42.7029 10.5889C42.7029 4.73903 37.9092 0 32 0C26.0908 0 21.2971 4.73903 21.2971 10.5889C21.2971 11.6641 21.4591 12.7018 21.7601 13.6794C19.9383 12.2587 17.6388 11.4111 15.1398 11.4111C9.85432 11.4111 5.46137 15.2024 4.59282 20.1889H0V23.8111H4.59282C5.46137 28.7976 9.85432 32.5889 15.1398 32.5889C17.6388 32.5889 19.9383 31.7413 21.7601 30.3206C21.4591 31.2982 21.2971 32.3359 21.2971 33.4111C21.2971 39.261 26.0908 44 32 44C37.9092 44 42.7029 39.261 42.7029 33.4111C42.7029 32.3359 42.5409 31.2982 42.2399 30.3206ZM25.3797 25.0905C26.0234 24.5884 26.7269 24.1579 27.4777 23.8111H25.6867C25.6107 24.2473 25.5078 24.6743 25.3797 25.0905ZM24.8116 22.8222C24.8348 22.5512 24.8467 22.2769 24.8467 22C24.8467 21.723 24.8348 21.4488 24.8116 21.1778H23.2496C23.2772 21.4481 23.2914 21.7224 23.2914 22C23.2914 22.2776 23.2772 22.5519 23.2496 22.8222H24.8116ZM23.0851 23.8111H24.6741C23.8179 28.246 19.8761 31.5999 15.1398 31.5999C10.4034 31.5999 6.46165 28.246 5.60538 23.8111H7.19443C8.02532 27.3944 11.2685 30.0653 15.1398 30.0653C19.0111 30.0653 22.2542 27.3944 23.0851 23.8111ZM22.2477 22.8222C22.2792 22.5524 22.2954 22.2781 22.2954 22C22.2954 21.7219 22.2792 21.4476 22.2477 21.1778H8.03187C8.0003 21.4476 7.98408 21.7219 7.98408 22C7.98408 22.2781 8.0003 22.5524 8.03187 22.8222H22.2477ZM8.22064 23.8111H22.0589C21.25 26.8409 18.46 29.0763 15.1398 29.0763C11.8195 29.0763 9.02954 26.8409 8.22064 23.8111ZM7.02995 22.8222C7.00229 22.5519 6.98813 22.2776 6.98813 22C6.98813 21.7224 7.00229 21.4481 7.02995 21.1778H5.46797C5.44472 21.4488 5.43286 21.723 5.43286 22C5.43286 22.2769 5.44472 22.5512 5.46797 22.8222H7.02995ZM4.46868 22.8222C4.44763 22.5509 4.4369 22.2767 4.4369 22C4.4369 21.7233 4.44763 21.4491 4.46868 21.1778H0.995952V22.8222H4.46868ZM5.60538 20.1889H7.19443C8.02532 16.6056 11.2685 13.9347 15.1398 13.9347C19.0111 13.9347 22.2542 16.6056 23.0851 20.1889H24.6741C23.8179 15.754 19.8761 12.4 15.1398 12.4C10.4034 12.4 6.46165 15.754 5.60538 20.1889ZM25.6867 20.1889H27.4777C26.7269 19.8421 26.0234 19.4116 25.3796 18.9095C25.5078 19.3257 25.6107 19.7527 25.6867 20.1889ZM22.0589 20.1889C21.25 17.1591 18.46 14.9237 15.1398 14.9237C11.8195 14.9237 9.02954 17.1591 8.22064 20.1889H22.0589ZM32 23.8111C26.6372 23.8111 22.2931 28.111 22.2931 33.4111C22.2931 38.7112 26.6372 43.011 32 43.011C37.3628 43.011 41.7069 38.7112 41.7069 33.4111C41.7069 28.111 37.3628 23.8111 32 23.8111ZM41.9411 23.8111C42.75 26.8409 45.54 29.0763 48.8602 29.0763C52.1805 29.0763 54.9705 26.8409 55.7794 23.8111H41.9411ZM32 3.51256C28.0462 3.51256 24.8443 6.68254 24.8443 10.5889C24.8443 14.4953 28.0462 17.6653 32 17.6653C35.9538 17.6653 39.1557 14.4953 39.1557 10.5889C39.1557 6.68254 35.9538 3.51256 32 3.51256ZM23.8484 10.5889C23.8484 6.13278 27.4998 2.52361 32 2.52361C36.5002 2.52361 40.1516 6.13278 40.1516 10.5889C40.1516 15.045 36.5002 18.6542 32 18.6542C27.4998 18.6542 23.8484 15.045 23.8484 10.5889ZM32 26.3347C28.0462 26.3347 24.8443 29.5047 24.8443 33.4111C24.8443 37.3175 28.0462 40.4874 32 40.4874C35.9538 40.4874 39.1557 37.3175 39.1557 33.4111C39.1557 29.5047 35.9538 26.3347 32 26.3347ZM23.8484 33.4111C23.8484 28.955 27.4998 25.3458 32 25.3458C36.5002 25.3458 40.1516 28.955 40.1516 33.4111C40.1516 37.8672 36.5002 41.4764 32 41.4764C27.4998 41.4764 23.8484 37.8672 23.8484 33.4111Z" fill="#FF7E36"/>
<path fill-rule="evenodd" clip-rule="evenodd" d="M107.113 9.41617C108.159 9.13609 109.108 9 109.964 9C112.039 9 113.749 9.59787 115.127 10.7759L115.129 10.7772C116.498 11.9383 117.195 13.5022 117.195 15.5241C117.195 16.4182 117.036 17.2893 116.716 18.1399L116.714 18.1452C116.442 18.8963 115.628 19.78 114.121 20.7776L113.384 21.2655L114.195 21.6247C115.689 22.286 116.781 23.168 117.502 24.259C118.223 25.3502 118.596 26.6838 118.596 28.2831C118.596 30.6344 117.805 32.4864 116.246 33.8889C114.692 35.2864 112.679 36 110.164 36C108.578 36 107.172 35.7166 105.937 35.1607C104.818 34.6457 103.556 33.5558 102.156 31.8284L105.237 29.5836C106.587 31.2778 108.198 32.1868 110.073 32.1868C111.377 32.1868 112.479 31.8174 113.329 31.0425C114.184 30.2625 114.597 29.2289 114.597 27.994C114.597 26.7827 114.191 25.7474 113.364 24.9254C112.916 24.4737 112.264 24.1709 111.469 23.9783C110.669 23.7846 109.684 23.6927 108.526 23.6927H107.937V20.1506H108.526C109.943 20.1506 111.104 19.828 111.921 19.1024C112.744 18.3832 113.142 17.4192 113.142 16.265C113.142 15.2106 112.815 14.3217 112.117 13.6575C111.425 12.9984 110.52 12.6867 109.454 12.6867C108.271 12.6867 107.112 13.2088 105.982 14.1592L103.644 11.5695C105.075 10.3359 106.226 9.64392 107.108 9.41756L107.113 9.41617ZM78.8188 10.4015C80.844 9.50109 82.8959 9.05422 84.9786 9.05422C88.6591 9.05422 91.8682 10.2834 94.6282 12.7562C97.3644 15.2076 98.7428 18.4333 98.7428 22.4819C98.7428 26.3689 97.4799 29.5826 94.968 32.1585C92.4793 34.711 89.1909 36 85.0514 36C83.0842 36 81.2224 35.6727 79.4622 35.0201C77.8314 34.4154 76.0514 33.2145 74.1236 31.38L76.8874 28.5196C79.3359 30.8916 82.0355 32.1145 84.9786 32.1145C87.0293 32.1145 88.9256 31.5689 90.6563 30.482L90.6585 30.4806C92.432 29.3539 93.6616 27.5687 94.378 25.1849L94.5657 24.5602H84.1347V20.9277H94.4674L94.3939 20.3771C94.1325 18.4169 93.0855 16.6989 91.3112 15.226C89.5324 13.7393 87.4444 12.9939 85.0696 12.9939C81.97 12.9939 79.2301 14.213 76.8639 16.5973L74 13.8837C75.3374 12.3957 76.9423 11.2358 78.8188 10.4015ZM152.996 10.8692C155.176 9.65844 157.517 9.05422 160.025 9.05422C162.158 9.05422 164.208 9.5017 166.181 10.3996L166.182 10.4001C168.026 11.2344 169.631 12.3957 171 13.8873L168.136 16.6013C165.719 14.217 162.981 12.9939 159.934 12.9939C157.243 12.9939 154.953 13.9117 153.098 15.742L153.096 15.7432C151.253 17.5741 150.333 19.8371 150.333 22.5C150.333 24.3423 150.737 25.9972 151.559 27.4517C152.381 28.9053 153.546 30.0488 155.045 30.8761C156.545 31.7036 158.209 32.1145 160.025 32.1145C161.57 32.1145 162.995 31.8312 164.292 31.2573L164.295 31.2556C165.488 30.7162 166.76 29.7937 168.111 28.5137L170.878 31.3778C169.058 33.0878 167.357 34.2662 165.776 34.938C164.09 35.642 162.152 36 159.952 36C155.911 36 152.637 34.7357 150.084 32.2247C147.543 29.7002 146.261 26.4666 146.261 22.4819C146.261 19.9056 146.844 17.6351 147.997 15.6569C149.163 13.677 150.825 12.0815 152.996 10.8692ZM124.515 35.3313V9.72289H128.66V19.8119L136.67 9.72289H141.537L132.583 21.0727L142.519 35.3313H137.69L128.66 22.4319V35.3313H124.515Z" fill="white"/>
<path fill-rule="evenodd" clip-rule="evenodd" d="M171 54L-8.74228e-08 54L0 53L171 53L171 54Z" fill="#727584"/>
<path d="M171 96.2941H167.936V104.685H166.511V96.2941H163.433V95.1067H171V96.2941Z" fill="white"/>
<path d="M155.963 101.117L154.531 97.4013C154.482 97.2768 154.43 97.1345 154.377 96.9744C154.327 96.8099 154.278 96.6342 154.229 96.4475C154.18 96.6387 154.128 96.8166 154.074 96.9811C154.025 97.1412 153.976 97.2857 153.927 97.4147L152.502 101.117H155.963ZM158.798 104.685H157.69C157.564 104.685 157.461 104.654 157.381 104.592C157.304 104.53 157.246 104.45 157.206 104.352L156.352 102.131H152.105L151.252 104.352C151.216 104.436 151.156 104.514 151.071 104.585C150.99 104.652 150.889 104.685 150.768 104.685H149.659L153.503 95.1067H154.955L158.798 104.685Z" fill="white"/>
<path d="M144.213 104.685H142.929C142.786 104.685 142.665 104.648 142.566 104.572C142.472 104.496 142.383 104.387 142.298 104.245L139.872 100.817C139.814 100.728 139.753 100.654 139.69 100.596C139.632 100.534 139.567 100.485 139.495 100.45C139.424 100.41 139.343 100.383 139.254 100.37C139.168 100.352 139.068 100.343 138.951 100.343H137.816V104.685H136.384V95.1067H137.816V99.249H138.79C138.987 99.249 139.155 99.2201 139.294 99.1623C139.437 99.1001 139.574 98.9778 139.704 98.7954L142.13 95.5003C142.201 95.3847 142.286 95.2913 142.385 95.2201C142.488 95.1445 142.611 95.1067 142.755 95.1067H143.964L141.122 99.0156C141.01 99.1757 140.882 99.3091 140.739 99.4158C140.595 99.5181 140.439 99.6003 140.268 99.6626C140.51 99.7248 140.714 99.8293 140.88 99.9761C141.05 100.118 141.214 100.316 141.37 100.57L144.213 104.685Z" fill="white"/>
<path d="M129.211 99.8961C129.211 100.612 129.095 101.27 128.862 101.87C128.633 102.466 128.308 102.982 127.887 103.418C127.466 103.849 126.962 104.185 126.375 104.425C125.788 104.665 125.137 104.785 124.42 104.785C123.707 104.785 123.056 104.665 122.464 104.425C121.877 104.185 121.373 103.849 120.952 103.418C120.536 102.982 120.211 102.466 119.978 101.87C119.745 101.27 119.628 100.612 119.628 99.8961C119.628 99.1845 119.745 98.5286 119.978 97.9283C120.211 97.328 120.536 96.8121 120.952 96.3808C121.373 95.945 121.877 95.607 122.464 95.3669C123.056 95.1223 123.707 95 124.42 95C125.137 95 125.788 95.1223 126.375 95.3669C126.962 95.607 127.466 95.945 127.887 96.3808C128.308 96.8121 128.633 97.328 128.862 97.9283C129.095 98.5286 129.211 99.1845 129.211 99.8961ZM127.746 99.8961C127.746 99.3268 127.668 98.8155 127.511 98.3619C127.354 97.9083 127.13 97.5236 126.839 97.2079C126.552 96.8922 126.203 96.6498 125.791 96.4808C125.383 96.3118 124.926 96.2273 124.42 96.2273C123.914 96.2273 123.454 96.3118 123.042 96.4808C122.634 96.6498 122.285 96.8922 121.994 97.2079C121.703 97.5236 121.479 97.9083 121.322 98.3619C121.165 98.8155 121.087 99.3268 121.087 99.8961C121.087 100.47 121.165 100.983 121.322 101.437C121.479 101.886 121.703 102.268 121.994 102.584C122.285 102.9 122.634 103.142 123.042 103.311C123.454 103.476 123.914 103.558 124.42 103.558C124.926 103.558 125.383 103.476 125.791 103.311C126.203 103.142 126.552 102.9 126.839 102.584C127.13 102.268 127.354 101.886 127.511 101.437C127.668 100.983 127.746 100.47 127.746 99.8961Z" fill="white"/>
<path d="M109.63 100.036C109.993 100.036 110.311 99.9894 110.584 99.8961C110.862 99.8027 111.092 99.6715 111.276 99.5025C111.464 99.3291 111.605 99.1245 111.699 98.8888C111.794 98.6487 111.841 98.3841 111.841 98.0951C111.841 97.5125 111.657 97.0545 111.29 96.721C110.927 96.3874 110.373 96.2207 109.63 96.2207H108.138V100.036H109.63ZM109.63 95.1067C110.248 95.1067 110.786 95.1779 111.243 95.3202C111.699 95.4625 112.078 95.6648 112.378 95.9272C112.678 96.1851 112.9 96.4986 113.043 96.8677C113.191 97.2368 113.265 97.6459 113.265 98.0951C113.265 98.5442 113.187 98.9578 113.03 99.3357C112.873 99.7093 112.642 100.032 112.338 100.303C112.033 100.574 111.652 100.785 111.195 100.937C110.743 101.083 110.221 101.157 109.63 101.157H108.138V104.685H106.707V95.1067H109.63Z" fill="white"/>
<path d="M98.9414 104.685H97.5101V96.2207H92.8465V104.685H91.4084V95.1067H98.9414V104.685Z" fill="white"/>
<path d="M84.7657 104.685H83.4823C83.3389 104.685 83.2179 104.648 83.1194 104.572C83.0253 104.496 82.9357 104.387 82.8506 104.245L80.4247 100.817C80.3665 100.728 80.306 100.654 80.2433 100.596C80.185 100.534 80.1201 100.485 80.0484 100.45C79.9767 100.41 79.8961 100.383 79.8065 100.37C79.7214 100.352 79.6206 100.343 79.5041 100.343H78.3684V104.685H76.9371V95.1067H78.3684V99.249H79.3428C79.5399 99.249 79.7079 99.2201 79.8468 99.1623C79.9902 99.1001 80.1268 98.9778 80.2567 98.7954L82.6826 95.5003C82.7543 95.3847 82.8394 95.2913 82.9379 95.2201C83.041 95.1445 83.1642 95.1067 83.3075 95.1067H84.5171L81.6746 99.0156C81.5626 99.1757 81.4349 99.3091 81.2916 99.4158C81.1482 99.5181 80.9914 99.6003 80.8212 99.6626C81.0631 99.7248 81.2669 99.8293 81.4327 99.9761C81.6029 100.118 81.7665 100.316 81.9232 100.57L84.7657 104.685Z" fill="white"/>
<path d="M69.3502 102.631C69.4308 102.631 69.5003 102.662 69.5585 102.724L70.123 103.338C69.7287 103.8 69.2471 104.158 68.6782 104.412C68.1137 104.665 67.4328 104.792 66.6354 104.792C65.9365 104.792 65.3026 104.672 64.7336 104.432C64.1692 104.192 63.6853 103.856 63.2822 103.425C62.8834 102.993 62.5743 102.477 62.3548 101.877C62.1353 101.277 62.0255 100.616 62.0255 99.8961C62.0255 99.1757 62.1398 98.5153 62.3683 97.915C62.6012 97.3146 62.926 96.7988 63.3426 96.3674C63.7593 95.9361 64.2565 95.6003 64.8344 95.3602C65.4168 95.1201 66.0597 95 66.763 95C67.4485 95 68.0577 95.1112 68.5908 95.3335C69.124 95.5559 69.5876 95.8516 69.9818 96.2207L69.5115 96.881C69.4801 96.93 69.4398 96.97 69.3905 97.0011C69.3457 97.0322 69.2852 97.0478 69.2091 97.0478C69.124 97.0478 69.0231 97.0056 68.9067 96.9211C68.7947 96.8366 68.6446 96.7432 68.4564 96.6409C68.2728 96.5342 68.0443 96.4386 67.771 96.3541C67.4977 96.2696 67.1573 96.2273 66.7496 96.2273C66.2703 96.2273 65.8312 96.3118 65.4325 96.4808C65.0338 96.6454 64.6888 96.8855 64.3976 97.2012C64.1109 97.5125 63.8869 97.8972 63.7257 98.3552C63.5689 98.8088 63.4905 99.3224 63.4905 99.8961C63.4905 100.479 63.5733 100.997 63.7391 101.45C63.9049 101.904 64.1333 102.288 64.4245 102.604C64.7157 102.92 65.0584 103.16 65.4527 103.325C65.8469 103.489 66.2725 103.571 66.7294 103.571C67.0072 103.571 67.2558 103.556 67.4753 103.525C67.6993 103.489 67.9032 103.438 68.0869 103.371C68.275 103.305 68.452 103.22 68.6177 103.118C68.7835 103.011 68.947 102.884 69.1083 102.738C69.1441 102.707 69.1822 102.682 69.2225 102.664C69.2628 102.642 69.3054 102.631 69.3502 102.631Z" fill="white"/>
<path d="M54.8471 95.1067V104.685H53.4157V100.37H48.3826V104.685H46.9445V95.1067H48.3826V99.3357H53.4157V95.1067H54.8471Z" fill="white"/>
<path d="M39.7993 103.531L39.7926 104.685H33.8119V95.1067H39.7926V96.2607H35.25V99.2957H38.9056V100.41H35.25V103.531H39.7993Z" fill="white"/>
<path d="M26.8944 103.571V106.586C26.8944 106.711 26.8519 106.811 26.7668 106.887C26.6816 106.962 26.5719 107 26.4375 107H25.5908V104.685H17.91V95.1067H19.348V103.571H24.0116V95.1067H25.443V103.571H26.8944Z" fill="white"/>
<path d="M10.147 95.1067V104.685H8.89709V97.8683C8.89709 97.766 8.89933 97.657 8.90381 97.5414C8.91277 97.4258 8.92173 97.3079 8.93069 97.1879L5.7186 103.038C5.6066 103.256 5.43412 103.365 5.20117 103.365H4.99957C4.76662 103.365 4.59638 103.256 4.48886 103.038L1.21629 97.1679C1.24317 97.4169 1.25661 97.6504 1.25661 97.8683V104.685H0V95.1067H1.06174C1.18718 95.1067 1.28349 95.1201 1.35069 95.1467C1.42237 95.169 1.48957 95.2357 1.55229 95.3469L4.77782 101.083C4.84054 101.199 4.89878 101.321 4.95253 101.45C5.00629 101.579 5.05781 101.708 5.10709 101.837C5.20117 101.575 5.31093 101.321 5.43636 101.077L8.60141 95.3469C8.65965 95.2357 8.72237 95.169 8.78957 95.1467C8.86125 95.1201 8.95981 95.1067 9.08525 95.1067H10.147Z" fill="white"/>
<path d="M168.716 87.1877C168.965 87.1877 169.18 87.1575 169.36 87.0969C169.54 87.0364 169.687 86.952 169.801 86.8437C169.919 86.7322 170.004 86.6016 170.058 86.4519C170.112 86.299 170.139 86.1317 170.139 85.9502C170.139 85.5966 170.021 85.3179 169.783 85.114C169.546 84.9069 169.19 84.8034 168.716 84.8034H167.319V87.1877H168.716ZM167.319 81.8075V84.144H168.472C168.719 84.144 168.932 84.1154 169.112 84.058C169.295 84.0007 169.445 83.921 169.563 83.8191C169.683 83.7172 169.771 83.5945 169.828 83.4512C169.886 83.3047 169.914 83.1454 169.914 82.9734C169.914 82.5688 169.8 82.2742 169.572 82.0894C169.343 81.9015 168.989 81.8075 168.508 81.8075H167.319ZM168.508 81.0764C168.905 81.0764 169.246 81.1179 169.531 81.2007C169.819 81.2835 170.055 81.4014 170.239 81.5543C170.425 81.7072 170.561 81.8951 170.649 82.1181C170.736 82.3379 170.779 82.5863 170.779 82.8635C170.779 83.0323 170.754 83.1948 170.703 83.3509C170.655 83.5038 170.581 83.6471 170.482 83.7809C170.383 83.9147 170.257 84.0357 170.103 84.144C169.953 84.2491 169.776 84.3352 169.572 84.402C170.046 84.4976 170.402 84.6776 170.64 84.942C170.88 85.2032 171 85.5472 171 85.9741C171 86.2639 170.949 86.5283 170.847 86.7672C170.748 87.0061 170.6 87.2116 170.405 87.3836C170.213 87.5556 169.976 87.6894 169.693 87.785C169.411 87.8774 169.089 87.9235 168.729 87.9235H166.449V81.0764H168.508Z" fill="white"/>
<path d="M162.405 84.5024C162.405 85.0152 162.328 85.4867 162.175 85.9167C162.022 86.3436 161.805 86.7115 161.526 87.0205C161.247 87.3295 160.91 87.57 160.517 87.742C160.126 87.9108 159.694 87.9952 159.219 87.9952C158.744 87.9952 158.312 87.9108 157.921 87.742C157.531 87.57 157.196 87.3295 156.917 87.0205C156.637 86.7115 156.421 86.3436 156.268 85.9167C156.114 85.4867 156.038 85.0152 156.038 84.5024C156.038 83.9895 156.114 83.5197 156.268 83.0928C156.421 82.6628 156.637 82.2933 156.917 81.9843C157.196 81.6721 157.531 81.43 157.921 81.258C158.312 81.086 158.744 81 159.219 81C159.694 81 160.126 81.086 160.517 81.258C160.91 81.43 161.247 81.6721 161.526 81.9843C161.805 82.2933 162.022 82.6628 162.175 83.0928C162.328 83.5197 162.405 83.9895 162.405 84.5024ZM161.508 84.5024C161.508 84.0819 161.454 83.7044 161.346 83.37C161.238 83.0355 161.084 82.7536 160.886 82.5242C160.688 82.2917 160.448 82.1133 160.165 81.9891C159.883 81.8648 159.567 81.8027 159.219 81.8027C158.874 81.8027 158.56 81.8648 158.277 81.9891C157.995 82.1133 157.753 82.2917 157.552 82.5242C157.354 82.7536 157.2 83.0355 157.092 83.37C156.984 83.7044 156.93 84.0819 156.93 84.5024C156.93 84.9229 156.984 85.3003 157.092 85.6348C157.2 85.9661 157.354 86.248 157.552 86.4805C157.753 86.7099 157.995 86.8867 158.277 87.0109C158.56 87.132 158.874 87.1925 159.219 87.1925C159.567 87.1925 159.883 87.132 160.165 87.0109C160.448 86.8867 160.688 86.7099 160.886 86.4805C161.084 86.248 161.238 85.9661 161.346 85.6348C161.454 85.3003 161.508 84.9229 161.508 84.5024Z" fill="white"/>
<path d="M150.086 87.1877C150.335 87.1877 150.55 87.1575 150.73 87.0969C150.91 87.0364 151.057 86.952 151.172 86.8437C151.289 86.7322 151.374 86.6016 151.428 86.4519C151.483 86.299 151.51 86.1317 151.51 85.9502C151.51 85.5966 151.391 85.3179 151.154 85.114C150.916 84.9069 150.56 84.8034 150.086 84.8034H148.689V87.1877H150.086ZM148.689 81.8075V84.144H149.842C150.089 84.144 150.302 84.1154 150.482 84.058C150.665 84.0007 150.816 83.921 150.933 83.8191C151.053 83.7172 151.142 83.5945 151.199 83.4512C151.256 83.3047 151.284 83.1454 151.284 82.9734C151.284 82.5688 151.17 82.2742 150.942 82.0894C150.714 81.9015 150.359 81.8075 149.878 81.8075H148.689ZM149.878 81.0764C150.275 81.0764 150.616 81.1179 150.901 81.2007C151.19 81.2835 151.425 81.4014 151.609 81.5543C151.795 81.7072 151.932 81.8951 152.019 82.1181C152.106 82.3379 152.149 82.5863 152.149 82.8635C152.149 83.0323 152.124 83.1948 152.073 83.3509C152.025 83.5038 151.951 83.6471 151.852 83.7809C151.753 83.9147 151.627 84.0357 151.473 84.144C151.323 84.2491 151.146 84.3352 150.942 84.402C151.416 84.4976 151.772 84.6776 152.01 84.942C152.25 85.2032 152.37 85.5472 152.37 85.9741C152.37 86.2639 152.319 86.5283 152.217 86.7672C152.118 87.0061 151.971 87.2116 151.775 87.3836C151.583 87.5556 151.346 87.6894 151.063 87.785C150.781 87.8774 150.46 87.9235 150.099 87.9235H147.819V81.0764H149.878Z" fill="white"/>
<path d="M142.364 85.3816L141.35 82.5959C141.32 82.5131 141.289 82.4175 141.256 82.3092C141.223 82.1977 141.191 82.0799 141.161 81.9556C141.098 82.2136 141.034 82.4287 140.967 82.6007L139.954 85.3816H142.364ZM144.185 87.9235H143.509C143.431 87.9235 143.368 87.9028 143.32 87.8614C143.271 87.82 143.235 87.7675 143.211 87.7038L142.608 86.0505H139.71L139.107 87.7038C139.089 87.7611 139.054 87.8121 139.003 87.8567C138.952 87.9013 138.887 87.9235 138.809 87.9235H138.138L140.72 81.0764H141.603L144.185 87.9235Z" fill="white"/>
<path d="M134.501 87.9235H133.627V81.8075H131.491C131.449 82.6867 131.392 83.4496 131.32 84.0962C131.25 84.7429 131.165 85.2956 131.063 85.7543C130.964 86.213 130.849 86.5873 130.72 86.8771C130.594 87.1638 130.454 87.39 130.301 87.5556C130.151 87.7213 129.989 87.8344 129.815 87.8949C129.64 87.9554 129.456 87.9857 129.26 87.9857C129.098 87.9857 128.973 87.9697 128.886 87.9379C128.799 87.9092 128.756 87.8646 128.756 87.8041V87.2164H129.071C129.191 87.2164 129.31 87.1925 129.427 87.1447C129.544 87.0937 129.657 86.9934 129.765 86.8437C129.873 86.694 129.975 86.4805 130.071 86.2034C130.168 85.9263 130.255 85.56 130.333 85.1044C130.411 84.6489 130.478 84.0931 130.536 83.4369C130.593 82.7775 130.636 81.9907 130.666 81.0764H134.501V87.9235Z" fill="white"/>
<path d="M125.17 87.9235H124.292V81.8075H121.065V87.9235H120.191V81.0764H125.17V87.9235Z" fill="white"/>
<path d="M115.911 86.5092C115.959 86.5092 116.001 86.5299 116.037 86.5713L116.384 86.9679C116.12 87.2928 115.798 87.5461 115.42 87.7276C115.044 87.9092 114.589 88 114.055 88C113.592 88 113.171 87.9156 112.793 87.7468C112.414 87.5747 112.091 87.3358 111.824 87.03C111.557 86.721 111.349 86.3515 111.202 85.9215C111.055 85.4915 110.981 85.0184 110.981 84.5024C110.981 83.9863 111.058 83.5133 111.211 83.0833C111.364 82.6532 111.579 82.2837 111.856 81.9747C112.135 81.6658 112.468 81.4268 112.856 81.258C113.243 81.086 113.672 81 114.14 81C114.6 81 115.005 81.078 115.357 81.2341C115.708 81.3902 116.018 81.602 116.285 81.8696L115.997 82.2949C115.979 82.3267 115.955 82.3538 115.924 82.3761C115.897 82.3952 115.86 82.4048 115.812 82.4048C115.758 82.4048 115.692 82.3745 115.614 82.314C115.535 82.2503 115.433 82.1802 115.307 82.1038C115.181 82.0273 115.023 81.9588 114.834 81.8983C114.645 81.8346 114.412 81.8027 114.136 81.8027C113.802 81.8027 113.497 81.8648 113.221 81.9891C112.945 82.1101 112.706 82.2869 112.504 82.5195C112.306 82.752 112.152 83.0355 112.04 83.37C111.929 83.7044 111.874 84.0819 111.874 84.5024C111.874 84.9292 111.931 85.3099 112.045 85.6444C112.162 85.9788 112.32 86.2623 112.518 86.4949C112.719 86.7242 112.955 86.8994 113.225 87.0205C113.499 87.1415 113.793 87.202 114.109 87.202C114.301 87.202 114.474 87.1909 114.627 87.1686C114.783 87.1431 114.926 87.1049 115.055 87.0539C115.187 87.003 115.309 86.9392 115.42 86.8628C115.534 86.7832 115.647 86.6892 115.758 86.5809C115.809 86.5331 115.86 86.5092 115.911 86.5092Z" fill="white"/>
<path d="M102.557 87.9235H101.692C101.626 87.9235 101.574 87.906 101.535 87.871C101.499 87.8328 101.469 87.7914 101.445 87.7468L99.7143 84.8703C99.6902 84.9468 99.6632 85.0121 99.6331 85.0662L97.9479 87.7468C97.9179 87.7914 97.8848 87.8328 97.8488 87.871C97.8158 87.906 97.7692 87.9235 97.7091 87.9235H96.8981L99.1195 84.4068L96.9882 81.0764H97.8578C97.9209 81.0764 97.9675 81.0876 97.9975 81.1099C98.0275 81.1322 98.0546 81.164 98.0786 81.2055L99.7638 83.9481C99.7848 83.8812 99.8164 83.808 99.8584 83.7283L101.449 81.2246C101.473 81.18 101.502 81.1449 101.535 81.1195C101.568 81.0908 101.607 81.0764 101.652 81.0764H102.485L100.345 84.3638L102.557 87.9235Z" fill="white"/>
<path d="M88.8558 87.1877C89.1051 87.1877 89.3184 87.1575 89.4956 87.0969C89.6759 87.0364 89.8215 86.9536 89.9327 86.8485C90.0468 86.7402 90.1295 86.6111 90.1805 86.4614C90.2346 86.3085 90.2616 86.1413 90.2616 85.9597C90.2616 85.7686 90.2346 85.5998 90.1805 85.4532C90.1295 85.3035 90.0468 85.1777 89.9327 85.0758C89.8215 84.9706 89.6774 84.8926 89.5001 84.8416C89.3229 84.7875 89.1096 84.7604 88.8603 84.7604H87.6031V87.1877H88.8558ZM88.8603 84.0246C89.2538 84.0246 89.5932 84.0708 89.8786 84.1631C90.164 84.2523 90.3983 84.3797 90.5816 84.5454C90.7678 84.7078 90.9045 84.9022 90.9916 85.1283C91.0817 85.3545 91.1268 85.6014 91.1268 85.8689C91.1268 86.1843 91.0757 86.4694 90.9736 86.7242C90.8744 86.9759 90.7272 87.1909 90.532 87.3693C90.3397 87.5477 90.1024 87.6846 89.82 87.7802C89.5377 87.8758 89.2163 87.9235 88.8558 87.9235H86.7335V81.0764H87.6031V84.0246H88.8603ZM93.186 87.9235H92.3118V81.0764H93.186V87.9235Z" fill="white"/>
<path d="M82.2891 81.0764V87.9235H81.415V84.8082H77.9319V87.9235H77.0578V81.0764H77.9319V84.1297H81.415V81.0764H82.2891Z" fill="white"/>
<path d="M72.6134 81.0764V87.9235H71.7392V84.8082H68.2562V87.9235H67.382V81.0764H68.2562V84.1297H71.7392V81.0764H72.6134Z" fill="white"/>
<path d="M63.3704 87.1686L63.3659 87.9235H59.3872V81.0764H63.3659V81.8314H60.2613V84.1058H62.7756V84.8321H60.2613V87.1686H63.3704Z" fill="white"/>
<path d="M53.034 87.1877C53.2833 87.1877 53.4981 87.1575 53.6783 87.0969C53.8586 87.0364 54.0058 86.952 54.1199 86.8437C54.2371 86.7322 54.3227 86.6016 54.3768 86.4519C54.4308 86.299 54.4579 86.1317 54.4579 85.9502C54.4579 85.5966 54.3392 85.3179 54.1019 85.114C53.8646 84.9069 53.5086 84.8034 53.034 84.8034H51.6372V87.1877H53.034ZM51.6372 81.8075V84.144H52.7907C53.037 84.144 53.2503 84.1154 53.4305 84.058C53.6138 84.0007 53.764 83.921 53.8811 83.8191C54.0013 83.7172 54.0899 83.5945 54.147 83.4512C54.204 83.3047 54.2326 83.1454 54.2326 82.9734C54.2326 82.5688 54.1184 82.2742 53.8901 82.0894C53.6618 81.9015 53.3074 81.8075 52.8267 81.8075H51.6372ZM52.8267 81.0764C53.2232 81.0764 53.5642 81.1179 53.8496 81.2007C54.1379 81.2835 54.3738 81.4014 54.557 81.5543C54.7432 81.7072 54.8799 81.8951 54.967 82.1181C55.0542 82.3379 55.0977 82.5863 55.0977 82.8635C55.0977 83.0323 55.0722 83.1948 55.0211 83.3509C54.973 83.5038 54.8994 83.6471 54.8003 83.7809C54.7012 83.9147 54.575 84.0357 54.4218 84.144C54.2716 84.2491 54.0944 84.3352 53.8901 84.402C54.3647 84.4976 54.7207 84.6776 54.958 84.942C55.1983 85.2032 55.3185 85.5472 55.3185 85.9741C55.3185 86.2639 55.2674 86.5283 55.1653 86.7672C55.0662 87.0061 54.919 87.2116 54.7237 87.3836C54.5315 87.5556 54.2942 87.6894 54.0118 87.785C53.7294 87.8774 53.408 87.9235 53.0475 87.9235H50.7675V81.0764H52.8267Z" fill="white"/>
<path d="M47.0157 81.8553H44.925V87.9235H44.0553V81.8553H41.9601V81.0764H47.0157V81.8553Z" fill="white"/>
<path d="M38.3692 86.5092C38.4172 86.5092 38.4593 86.5299 38.4953 86.5713L38.8423 86.9679C38.5779 87.2928 38.2565 87.5461 37.878 87.7276C37.5025 87.9092 37.0474 88 36.5127 88C36.0501 88 35.6296 87.9156 35.2511 87.7468C34.8726 87.5747 34.5497 87.3358 34.2823 87.03C34.015 86.721 33.8077 86.3515 33.6605 85.9215C33.5133 85.4915 33.4397 85.0184 33.4397 84.5024C33.4397 83.9863 33.5163 83.5133 33.6695 83.0833C33.8227 82.6532 34.0375 82.2837 34.3138 81.9747C34.5932 81.6658 34.9266 81.4268 35.3142 81.258C35.7017 81.086 36.1297 81 36.5983 81C37.0579 81 37.4635 81.078 37.8149 81.2341C38.1664 81.3902 38.4758 81.602 38.7432 81.8696L38.4548 82.2949C38.4368 82.3267 38.4127 82.3538 38.3827 82.3761C38.3556 82.3952 38.3181 82.4048 38.27 82.4048C38.216 82.4048 38.1499 82.3745 38.0718 82.314C37.9937 82.2503 37.8915 82.1802 37.7654 82.1038C37.6392 82.0273 37.4815 81.9588 37.2923 81.8983C37.103 81.8346 36.8702 81.8027 36.5938 81.8027C36.2604 81.8027 35.9555 81.8648 35.6791 81.9891C35.4028 82.1101 35.164 82.2869 34.9627 82.5195C34.7644 82.752 34.6097 83.0355 34.4986 83.37C34.3874 83.7044 34.3319 84.0819 34.3319 84.5024C34.3319 84.9292 34.3889 85.3099 34.5031 85.6444C34.6202 85.9788 34.778 86.2623 34.9762 86.4949C35.1775 86.7242 35.4133 86.8994 35.6836 87.0205C35.957 87.1415 36.2514 87.202 36.5668 87.202C36.7591 87.202 36.9318 87.1909 37.085 87.1686C37.2412 87.1431 37.3839 87.1049 37.513 87.0539C37.6452 87.003 37.7669 86.9392 37.878 86.8628C37.9922 86.7832 38.1048 86.6892 38.216 86.5809C38.267 86.5331 38.3181 86.5092 38.3692 86.5092Z" fill="white"/>
<path d="M29.9654 87.1686L29.9609 87.9235H25.9822V81.0764H29.9609V81.8314H26.8564V84.1058H29.3707V84.8321H26.8564V87.1686H29.9654Z" fill="white"/>
<path d="M21.5427 81.0764V87.9235H20.664V84.9611C20.3216 85.0567 19.9881 85.1331 19.6637 85.1904C19.3393 85.2446 19.0344 85.2701 18.749 85.2669C18.4667 85.2637 18.2068 85.2271 17.9695 85.157C17.7322 85.0869 17.5279 84.9754 17.3567 84.8225C17.1885 84.6664 17.0563 84.4658 16.9602 84.2205C16.8671 83.972 16.8205 83.6694 16.8205 83.3126V81.0764H17.6946V83.3174C17.6946 83.6328 17.7547 83.8876 17.8749 84.0819C17.995 84.2762 18.1783 84.4116 18.4246 84.4881C18.6709 84.5645 18.9788 84.5852 19.3483 84.5502C19.7208 84.5151 20.1594 84.4275 20.664 84.2874V81.0764H21.5427Z" fill="white"/>
<path d="M12.2597 85.3816L11.2458 82.5959C11.2158 82.5131 11.1843 82.4175 11.1512 82.3092C11.1182 82.1977 11.0866 82.0799 11.0566 81.9556C10.9935 82.2136 10.9289 82.4287 10.8628 82.6007L9.84901 85.3816H12.2597ZM14.0801 87.9235H13.4042C13.3261 87.9235 13.263 87.9028 13.2149 87.8614C13.1669 87.82 13.1308 87.7675 13.1068 87.7038L12.503 86.0505H9.60569L9.00189 87.7038C8.98387 87.7611 8.94933 87.8121 8.89826 87.8567C8.84719 87.9013 8.78261 87.9235 8.7045 87.9235H8.03312L10.615 81.0764H11.4982L14.0801 87.9235Z" fill="white"/>
<path d="M5.15476 87.9235H4.37073C4.28362 87.9235 4.20852 87.8997 4.14544 87.8519C4.08536 87.8009 4.02828 87.7276 3.97421 87.6321L2.26647 85.1235C2.18837 84.9993 2.10426 84.9133 2.01414 84.8655C1.92402 84.8146 1.80086 84.7891 1.64466 84.7891H0.869641V87.9235H0V81.0764H0.869641V84.0771H1.54102C1.6762 84.0771 1.79035 84.0548 1.88347 84.0102C1.9796 83.9656 2.07422 83.878 2.16734 83.7474L3.85706 81.3392C3.90212 81.2628 3.95619 81.2007 4.01927 81.1529C4.08536 81.1019 4.16196 81.0764 4.24907 81.0764H4.98354L3.03248 83.8908C2.88528 84.1106 2.69604 84.2619 2.46473 84.3447C2.62394 84.3893 2.75762 84.461 2.86576 84.5597C2.97691 84.6553 3.08204 84.7891 3.18117 84.9611L5.15476 87.9235Z" fill="white"/>
<path d="M169.077 71.6567V66.3807H166.951C166.916 67.1447 166.865 67.8151 166.799 68.392C166.733 68.9688 166.655 69.4693 166.566 69.8934C166.476 70.3174 166.376 70.6729 166.265 70.9598C166.155 71.2435 166.035 71.4758 165.907 71.6567H169.077ZM171 71.6567V73.7287C171 73.8098 170.975 73.8753 170.924 73.9252C170.873 73.9751 170.806 74 170.722 74H170.206V72.3676H165.028V73.7287C165.028 73.8098 165.001 73.8753 164.947 73.9252C164.896 73.9751 164.831 74 164.75 74H164.23V71.6567H164.884C164.977 71.6099 165.07 71.5351 165.162 71.4322C165.255 71.3262 165.343 71.1765 165.427 70.9832C165.514 70.7867 165.594 70.5404 165.669 70.2442C165.744 69.9479 165.811 69.5862 165.871 69.159C165.934 68.7287 165.987 68.2267 166.032 67.6529C166.077 67.0792 166.111 66.4166 166.135 65.6651H169.951V71.6567H171Z" fill="white"/>
<path d="M162.58 69.0187C162.58 69.5207 162.504 69.9822 162.351 70.4032C162.199 70.821 161.984 71.1812 161.706 71.4836C161.428 71.7861 161.093 72.0215 160.701 72.1899C160.313 72.3552 159.882 72.4378 159.41 72.4378C158.938 72.4378 158.507 72.3552 158.119 72.1899C157.73 72.0215 157.397 71.7861 157.119 71.4836C156.841 71.1812 156.626 70.821 156.473 70.4032C156.321 69.9822 156.245 69.5207 156.245 69.0187C156.245 68.5167 156.321 68.0568 156.473 67.6389C156.626 67.218 156.841 66.8563 157.119 66.5538C157.397 66.2482 157.73 66.0112 158.119 65.8428C158.507 65.6745 158.938 65.5903 159.41 65.5903C159.882 65.5903 160.313 65.6745 160.701 65.8428C161.093 66.0112 161.428 66.2482 161.706 66.5538C161.984 66.8563 162.199 67.218 162.351 67.6389C162.504 68.0568 162.58 68.5167 162.58 69.0187ZM161.688 69.0187C161.688 68.6071 161.634 68.2376 161.526 67.9102C161.419 67.5828 161.266 67.3068 161.069 67.0823C160.872 66.8547 160.633 66.6801 160.352 66.5585C160.071 66.4369 159.757 66.3761 159.41 66.3761C159.066 66.3761 158.754 66.4369 158.473 66.5585C158.192 66.6801 157.951 66.8547 157.751 67.0823C157.554 67.3068 157.401 67.5828 157.294 67.9102C157.186 68.2376 157.132 68.6071 157.132 69.0187C157.132 69.4303 157.186 69.7998 157.294 70.1272C157.401 70.4515 157.554 70.7275 157.751 70.9551C157.951 71.1796 158.192 71.3527 158.473 71.4743C158.754 71.5928 159.066 71.652 159.41 71.652C159.757 71.652 160.071 71.5928 160.352 71.4743C160.633 71.3527 160.872 71.1796 161.069 70.9551C161.266 70.7275 161.419 70.4515 161.526 70.1272C161.634 69.7998 161.688 69.4303 161.688 69.0187Z" fill="white"/>
<path d="M151.667 71.6473C151.915 71.6473 152.129 71.6177 152.308 71.5585C152.488 71.4992 152.634 71.4166 152.748 71.3106C152.864 71.2014 152.949 71.0736 153.003 70.927C153.057 70.7774 153.084 70.6137 153.084 70.4359C153.084 70.0898 152.966 69.817 152.73 69.6174C152.494 69.4147 152.139 69.3134 151.667 69.3134H150.277V71.6473H151.667ZM150.277 66.3807V68.6679H151.425C151.67 68.6679 151.882 68.6398 152.062 68.5837C152.244 68.5276 152.394 68.4496 152.51 68.3499C152.63 68.2501 152.718 68.13 152.775 67.9897C152.831 67.8463 152.86 67.6904 152.86 67.522C152.86 67.126 152.746 66.8375 152.519 66.6567C152.292 66.4727 151.939 66.3807 151.461 66.3807H150.277ZM151.461 65.6651C151.856 65.6651 152.195 65.7056 152.479 65.7867C152.766 65.8678 153 65.9832 153.183 66.1328C153.368 66.2825 153.504 66.4665 153.591 66.6848C153.677 66.8999 153.721 67.1431 153.721 67.4144C153.721 67.5797 153.695 67.7387 153.644 67.8915C153.597 68.0412 153.523 68.1815 153.425 68.3124C153.326 68.4434 153.201 68.5619 153.048 68.6679C152.899 68.7708 152.722 68.855 152.519 68.9205C152.991 69.014 153.346 69.1902 153.582 69.449C153.821 69.7047 153.94 70.0415 153.94 70.4593C153.94 70.7431 153.89 71.0019 153.788 71.2357C153.689 71.4696 153.543 71.6707 153.349 71.8391C153.157 72.0075 152.921 72.1384 152.64 72.232C152.359 72.3224 152.039 72.3676 151.681 72.3676H149.412V65.6651H151.461Z" fill="white"/>
<path d="M145.329 69.8793L144.32 67.1525C144.291 67.0714 144.259 66.9779 144.226 66.8718C144.193 66.7627 144.162 66.6473 144.132 66.5257C144.069 66.7783 144.005 66.9888 143.939 67.1572L142.931 69.8793H145.329ZM147.141 72.3676H146.468C146.39 72.3676 146.328 72.3474 146.28 72.3068C146.232 72.2663 146.196 72.2148 146.172 72.1525L145.571 70.5341H142.688L142.088 72.1525C142.07 72.2086 142.035 72.2585 141.985 72.3022C141.934 72.3458 141.87 72.3676 141.792 72.3676H141.124L143.693 65.6651H144.572L147.141 72.3676Z" fill="white"/>
<path d="M134.997 66.2919C135.239 66.0674 135.52 65.8959 135.84 65.7774C136.159 65.6589 136.523 65.5996 136.929 65.5996C137.261 65.5996 137.558 65.6417 137.821 65.7259C138.087 65.8101 138.313 65.9286 138.498 66.0814C138.684 66.2342 138.826 66.415 138.924 66.6239C139.026 66.8329 139.077 67.062 139.077 67.3115C139.077 67.6483 138.996 67.9445 138.835 68.2002C138.676 68.4559 138.452 68.6539 138.162 68.7942C138.326 68.8659 138.476 68.9548 138.61 69.0608C138.745 69.1637 138.86 69.2806 138.956 69.4116C139.054 69.5426 139.129 69.686 139.18 69.8419C139.234 69.9978 139.26 70.1615 139.26 70.333C139.26 70.6261 139.208 70.9005 139.104 71.1562C138.999 71.4119 138.847 71.6349 138.646 71.8251C138.449 72.0122 138.205 72.1603 137.915 72.2694C137.626 72.3785 137.295 72.4331 136.925 72.4331C136.464 72.4331 136.05 72.3552 135.683 72.1993C135.315 72.0402 135 71.8266 134.737 71.5585L134.988 71.1282C135.012 71.0939 135.042 71.0658 135.077 71.044C135.113 71.019 135.152 71.0065 135.194 71.0065C135.257 71.0065 135.331 71.0424 135.418 71.1141C135.505 71.1827 135.615 71.2591 135.75 71.3433C135.884 71.4275 136.047 71.5055 136.239 71.5772C136.433 71.6458 136.669 71.6801 136.947 71.6801C137.183 71.6801 137.394 71.6505 137.579 71.5912C137.768 71.532 137.924 71.4462 138.05 71.334C138.178 71.2217 138.276 71.0845 138.341 70.9224C138.41 70.7602 138.445 70.5778 138.445 70.3751C138.445 70.2005 138.412 70.0399 138.346 69.8934C138.283 69.7468 138.19 69.6221 138.068 69.5192C137.945 69.4132 137.796 69.3321 137.62 69.276C137.443 69.2167 137.244 69.1871 137.023 69.1871H136.144V68.4434H136.987C137.17 68.4434 137.339 68.42 137.494 68.3732C137.652 68.3265 137.787 68.2579 137.898 68.1674C138.011 68.077 138.099 67.9663 138.162 67.8354C138.228 67.7044 138.261 67.5547 138.261 67.3863C138.261 67.2335 138.231 67.0932 138.171 66.9654C138.111 66.8375 138.025 66.7284 137.911 66.638C137.797 66.5444 137.658 66.4727 137.494 66.4228C137.33 66.3729 137.143 66.348 136.934 66.348C136.691 66.348 136.485 66.3745 136.315 66.4275C136.144 66.4805 136.001 66.5398 135.884 66.6052C135.768 66.6676 135.672 66.7253 135.597 66.7783C135.526 66.8313 135.463 66.8578 135.409 66.8578C135.361 66.8578 135.322 66.8469 135.293 66.8251C135.263 66.8032 135.234 66.7674 135.207 66.7175L134.997 66.2919Z" fill="white"/>
<path d="M128.563 65.6651V72.3676H127.693V67.6062C127.693 67.4721 127.696 67.3333 127.702 67.1899C127.708 67.0433 127.721 66.889 127.742 66.7268C127.691 66.8672 127.637 66.9981 127.581 67.1197C127.524 67.2413 127.466 67.3474 127.406 67.4378L124.393 72.0823C124.351 72.154 124.297 72.2195 124.232 72.2788C124.166 72.338 124.09 72.3676 124.003 72.3676H123.357V65.6651H124.227V70.4312C124.227 70.5653 124.224 70.7056 124.218 70.8522C124.212 70.9956 124.199 71.15 124.178 71.3152C124.229 71.1718 124.282 71.0393 124.339 70.9177C124.399 70.7961 124.457 70.6885 124.514 70.595L127.527 65.9504C127.569 65.8787 127.623 65.8132 127.688 65.754C127.754 65.6947 127.83 65.6651 127.917 65.6651H128.563ZM125.98 64.7998C126.103 64.7998 126.206 64.7858 126.289 64.7577C126.373 64.7297 126.44 64.6844 126.491 64.6221C126.545 64.5597 126.584 64.4786 126.608 64.3789C126.632 64.276 126.644 64.1497 126.644 64H127.11C127.167 64 127.21 64.0265 127.24 64.0795C127.27 64.1294 127.285 64.1871 127.285 64.2526C127.285 64.5644 127.17 64.8045 126.94 64.9729C126.709 65.1413 126.39 65.2254 125.98 65.2254C125.571 65.2254 125.251 65.1413 125.021 64.9729C124.79 64.8045 124.675 64.5644 124.675 64.2526C124.675 64.1871 124.69 64.1294 124.72 64.0795C124.75 64.0265 124.793 64 124.85 64H125.317C125.317 64.1497 125.328 64.276 125.352 64.3789C125.376 64.4786 125.414 64.5597 125.464 64.6221C125.518 64.6844 125.587 64.7297 125.671 64.7577C125.754 64.7858 125.858 64.7998 125.98 64.7998Z" fill="white"/>
<path d="M115.969 71.6473C116.217 71.6473 116.429 71.6177 116.606 71.5585C116.785 71.4992 116.93 71.4181 117.041 71.3152C117.154 71.2092 117.237 71.0829 117.287 70.9364C117.341 70.7867 117.368 70.623 117.368 70.4453C117.368 70.2582 117.341 70.0929 117.287 69.9495C117.237 69.8029 117.154 69.6798 117.041 69.58C116.93 69.4771 116.787 69.4007 116.61 69.3508C116.434 69.2978 116.222 69.2713 115.974 69.2713H114.723V71.6473H115.969ZM115.974 68.551C116.365 68.551 116.703 68.5962 116.987 68.6866C117.271 68.7739 117.504 68.8987 117.686 69.0608C117.872 69.2198 118.008 69.41 118.094 69.6314C118.184 69.8528 118.229 70.0945 118.229 70.3564C118.229 70.6651 118.178 70.9442 118.076 71.1936C117.978 71.44 117.831 71.6505 117.637 71.8251C117.446 71.9997 117.21 72.1338 116.929 72.2273C116.648 72.3209 116.328 72.3676 115.969 72.3676H113.857V65.6651H114.723V68.551H115.974ZM120.278 72.3676H119.408V65.6651H120.278V72.3676Z" fill="white"/>
<path d="M110.78 65.6651V72.3676H109.91V69.3181H106.445V72.3676H105.575V65.6651H106.445V68.6539H109.91V65.6651H110.78Z" fill="white"/>
<path d="M100.796 71.6473C101.044 71.6473 101.257 71.6177 101.433 71.5585C101.612 71.4992 101.757 71.4181 101.868 71.3152C101.982 71.2092 102.064 71.0829 102.115 70.9364C102.168 70.7867 102.195 70.623 102.195 70.4453C102.195 70.2582 102.168 70.0929 102.115 69.9495C102.064 69.8029 101.982 69.6798 101.868 69.58C101.757 69.4771 101.614 69.4007 101.438 69.3508C101.261 69.2978 101.049 69.2713 100.801 69.2713H99.55V71.6473H100.796ZM100.801 68.551C101.192 68.551 101.53 68.5962 101.814 68.6866C102.098 68.7739 102.331 68.8987 102.514 69.0608C102.699 69.2198 102.835 69.41 102.922 69.6314C103.011 69.8528 103.056 70.0945 103.056 70.3564C103.056 70.6651 103.005 70.9442 102.904 71.1936C102.805 71.44 102.659 71.6505 102.464 71.8251C102.273 71.9997 102.037 72.1338 101.756 72.2273C101.475 72.3209 101.155 72.3676 100.796 72.3676H98.6846V65.6651H99.55V68.551H100.801Z" fill="white"/>
<path d="M95.6082 72.3676H94.7384V66.3807H92.6132C92.5714 67.2413 92.5146 67.9881 92.4428 68.6211C92.3741 69.2541 92.2889 69.7951 92.1873 70.2442C92.0886 70.6932 91.9751 71.0596 91.8465 71.3433C91.721 71.6239 91.582 71.8453 91.4296 72.0075C91.2801 72.1696 91.1187 72.2803 90.9454 72.3396C90.772 72.3988 90.5882 72.4284 90.3939 72.4284C90.2325 72.4284 90.1084 72.4128 90.0217 72.3817C89.9351 72.3536 89.8917 72.3099 89.8917 72.2507V71.6754H90.2056C90.3251 71.6754 90.4432 71.652 90.5598 71.6052C90.6763 71.5553 90.7884 71.4571 90.896 71.3106C91.0036 71.164 91.1053 70.9551 91.2009 70.6838C91.2966 70.4125 91.3832 70.0539 91.461 69.608C91.5387 69.1621 91.6059 68.618 91.6627 67.9757C91.7195 67.3302 91.7628 66.56 91.7927 65.6651H95.6082V72.3676Z" fill="white"/>
<path d="M86.547 69.8793L85.5382 67.1525C85.5084 67.0714 85.477 66.9779 85.4441 66.8718C85.4112 66.7627 85.3798 66.6473 85.3499 66.5257C85.2872 66.7783 85.2229 66.9888 85.1572 67.1572L84.1484 69.8793H86.547ZM88.3584 72.3676H87.6859C87.6081 72.3676 87.5454 72.3474 87.4975 72.3068C87.4497 72.2663 87.4138 72.2148 87.3899 72.1525L86.7891 70.5341H83.9062L83.3055 72.1525C83.2875 72.2086 83.2532 72.2585 83.2023 72.3022C83.1515 72.3458 83.0873 72.3676 83.0096 72.3676H82.3415L84.9106 65.6651H85.7893L88.3584 72.3676Z" fill="white"/>
<path d="M81.3777 66.4275H79.2973V72.3676H78.432V66.4275H76.3472V65.6651H81.3777V66.4275Z" fill="white"/>
<path d="M73.956 65.6651V72.3676H73.0862V69.3181H69.6204V72.3676H68.7506V65.6651H69.6204V68.6539H73.0862V65.6651H73.956Z" fill="white"/>
<path d="M66.104 71.6286L66.0995 72.3676H62.1406V65.6651H66.0995V66.4041H63.0104V68.6305H65.5122V69.3414H63.0104V71.6286H66.104Z" fill="white"/>
<path d="M59.063 65.6651V72.3676H58.3008V67.4425C58.3008 67.377 58.3023 67.3068 58.3053 67.232C58.3113 67.1572 58.3173 67.0808 58.3232 67.0028L56.1174 71.1936C56.0486 71.334 55.944 71.4041 55.8035 71.4041H55.678C55.5375 71.4041 55.4329 71.334 55.3641 71.1936L53.1134 66.9841C53.1313 67.1494 53.1403 67.3021 53.1403 67.4425V72.3676H52.3781V65.6651H53.0193C53.097 65.6651 53.1567 65.6729 53.1986 65.6885C53.2404 65.7041 53.2808 65.7477 53.3196 65.8195L55.539 69.9448C55.5749 70.0196 55.6092 70.0976 55.6421 70.1787C55.678 70.2597 55.7109 70.3424 55.7407 70.4266C55.7706 70.3424 55.802 70.2597 55.8349 70.1787C55.8678 70.0945 55.9036 70.015 55.9425 69.9401L58.1215 65.8195C58.1574 65.7477 58.1962 65.7041 58.2381 65.6885C58.2829 65.6729 58.3442 65.6651 58.4219 65.6651H59.063Z" fill="white"/>
<path d="M49.3009 65.6651V72.3676H48.4311V67.6062C48.4311 67.4721 48.4341 67.3333 48.4401 67.1899C48.446 67.0433 48.4595 66.889 48.4804 66.7268C48.4296 66.8672 48.3758 66.9981 48.319 67.1197C48.2622 67.2413 48.2039 67.3474 48.1441 67.4378L45.1312 72.0823C45.0894 72.154 45.0356 72.2195 44.9698 72.2788C44.9041 72.338 44.8278 72.3676 44.7412 72.3676H44.0955V65.6651H44.9653V70.4312C44.9653 70.5653 44.9623 70.7056 44.9564 70.8522C44.9504 70.9956 44.9369 71.15 44.916 71.3152C44.9668 71.1718 45.0206 71.0393 45.0774 70.9177C45.1372 70.7961 45.1955 70.6885 45.2523 70.5949L48.2652 65.9504C48.307 65.8787 48.3608 65.8132 48.4266 65.754C48.4924 65.6947 48.5686 65.6651 48.6553 65.6651H49.3009Z" fill="white"/>
<path d="M39.1719 69.1403C39.42 69.1403 39.6382 69.106 39.8265 69.0374C40.0178 68.9688 40.1777 68.8737 40.3062 68.7521C40.4377 68.6274 40.5364 68.4793 40.6021 68.3078C40.6679 68.1363 40.7008 67.9476 40.7008 67.7418C40.7008 67.3146 40.5737 66.981 40.3197 66.7409C40.0686 66.5008 39.686 66.3807 39.1719 66.3807H38.1407V69.1403H39.1719ZM39.1719 65.6651C39.5784 65.6651 39.9311 65.715 40.23 65.8148C40.5319 65.9114 40.7815 66.0502 40.9787 66.2311C41.176 66.4119 41.3225 66.6302 41.4181 66.8859C41.5168 67.1416 41.5661 67.4269 41.5661 67.7418C41.5661 68.0536 41.5138 68.3389 41.4091 68.5978C41.3045 68.8566 41.1506 69.0795 40.9473 69.2666C40.7471 69.4537 40.4975 69.6002 40.1986 69.7063C39.9027 69.8092 39.5605 69.8606 39.1719 69.8606H38.1407V72.3676H37.2754V65.6651H39.1719Z" fill="white"/>
<path d="M34.6288 71.6286L34.6243 72.3676H30.6653V65.6651H34.6243V66.4041H31.5351V68.6305H34.0369V69.3414H31.5351V71.6286H34.6288Z" fill="white"/>
<path d="M27.591 72.3676H26.7167V66.3807H23.5065V72.3676H22.6367V65.6651H27.591V72.3676Z" fill="white"/>
<path d="M19.7227 70.9832C19.7705 70.9832 19.8124 71.0034 19.8483 71.044L20.1935 71.4322C19.9305 71.7502 19.6106 71.9981 19.234 72.1759C18.8604 72.3536 18.4076 72.4425 17.8755 72.4425C17.4152 72.4425 16.9968 72.3598 16.6201 72.1946C16.2435 72.0262 15.9222 71.7923 15.6562 71.493C15.3902 71.1905 15.1839 70.8288 15.0375 70.4079C14.891 69.9869 14.8178 69.5239 14.8178 69.0187C14.8178 68.5136 14.894 68.0505 15.0464 67.6296C15.1989 67.2086 15.4126 66.8469 15.6876 66.5444C15.9655 66.242 16.2973 66.0081 16.6829 65.8428C17.0685 65.6745 17.4944 65.5903 17.9607 65.5903C18.418 65.5903 18.8215 65.6667 19.1712 65.8195C19.521 65.9722 19.8288 66.1796 20.0949 66.4415L19.8079 66.8578C19.79 66.889 19.7661 66.9155 19.7362 66.9373C19.7093 66.956 19.6719 66.9654 19.6241 66.9654C19.5703 66.9654 19.5045 66.9358 19.4268 66.8765C19.3491 66.8142 19.2475 66.7456 19.1219 66.6707C18.9964 66.5959 18.8395 66.5288 18.6512 66.4696C18.4629 66.4072 18.2312 66.3761 17.9562 66.3761C17.6244 66.3761 17.3211 66.4369 17.0461 66.5585C16.7711 66.677 16.5335 66.85 16.3332 67.0776C16.1359 67.3053 15.982 67.5828 15.8714 67.9102C15.7608 68.2376 15.7055 68.6071 15.7055 69.0187C15.7055 69.4365 15.7623 69.8092 15.8759 70.1366C15.9924 70.464 16.1494 70.7415 16.3466 70.9691C16.5469 71.1936 16.7815 71.3651 17.0506 71.4836C17.3226 71.6021 17.6155 71.6614 17.9293 71.6614C18.1206 71.6614 18.2925 71.6505 18.4449 71.6286C18.6003 71.6037 18.7423 71.5663 18.8709 71.5164C19.0024 71.4665 19.1234 71.4041 19.234 71.3293C19.3476 71.2513 19.4597 71.1593 19.5703 71.0533C19.6211 71.0065 19.6719 70.9832 19.7227 70.9832Z" fill="white"/>
<path d="M13.1885 72.3676H12.4084C12.3217 72.3676 12.247 72.3442 12.1842 72.2975C12.1244 72.2476 12.0676 72.1759 12.0138 72.0823L10.3146 69.6268C10.2369 69.5051 10.1532 69.421 10.0635 69.3742C9.97383 69.3243 9.85129 69.2993 9.69586 69.2993H8.92469V72.3676H8.05938V65.6651H8.92469V68.6024H9.59274C9.72724 68.6024 9.84082 68.5806 9.93348 68.5369C10.0291 68.4933 10.1233 68.4075 10.2159 68.2797L11.8973 65.9224C11.9421 65.8475 11.9959 65.7867 12.0587 65.7399C12.1244 65.6901 12.2006 65.6651 12.2873 65.6651H13.0181L11.0768 68.42C10.9303 68.6352 10.742 68.7833 10.5119 68.8644C10.6703 68.908 10.8033 68.9782 10.9109 69.0748C11.0215 69.1684 11.1261 69.2993 11.2247 69.4677L13.1885 72.3676Z" fill="white"/>
<path d="M0.0986371 66.4415C0.364658 66.1796 0.672526 65.9722 1.02224 65.8195C1.37195 65.6667 1.77547 65.5903 2.23278 65.5903C2.69907 65.5903 3.125 65.6745 3.51058 65.8428C3.89616 66.0081 4.22645 66.242 4.50144 66.5444C4.77942 66.8469 4.99462 67.2086 5.14706 67.6296C5.2995 68.0505 5.37572 68.5136 5.37572 69.0187C5.37572 69.5239 5.30249 69.9869 5.15603 70.4079C5.00957 70.8288 4.80333 71.1905 4.53731 71.493C4.27128 71.7923 3.94997 72.0262 3.57335 72.1946C3.19674 72.3598 2.77828 72.4425 2.31797 72.4425C1.78593 72.4425 1.3316 72.3536 0.954986 72.1759C0.581361 71.9981 0.263032 71.7502 0 71.4322L0.34523 71.044C0.381098 71.0034 0.422944 70.9832 0.470768 70.9832C0.521581 70.9832 0.572394 71.0065 0.623207 71.0533C0.7338 71.1593 0.844393 71.2513 0.954986 71.3293C1.06857 71.4041 1.18962 71.4665 1.31815 71.5164C1.44967 71.5663 1.59164 71.6037 1.74408 71.6286C1.89652 71.6505 2.06988 71.6614 2.26417 71.6614C2.56008 71.6614 2.83656 71.6084 3.09362 71.5023C3.35067 71.3963 3.57784 71.2435 3.77511 71.044C3.97238 70.8413 4.1323 70.5934 4.25485 70.3003C4.37739 70.0072 4.45212 69.6735 4.47902 69.2993H1.23745V68.6118H4.47005C4.43418 68.2594 4.35348 67.9461 4.22794 67.6717C4.10539 67.3941 3.94698 67.1603 3.75269 66.9701C3.55841 66.7767 3.33274 66.6302 3.07568 66.5304C2.81863 66.4275 2.53916 66.3761 2.23727 66.3761C1.96228 66.3761 1.73063 66.4072 1.54233 66.4696C1.35402 66.5288 1.1971 66.5959 1.07156 66.6707C0.946019 66.7456 0.844393 66.8142 0.766679 66.8765C0.688965 66.9358 0.623207 66.9654 0.569405 66.9654C0.521581 66.9654 0.482724 66.956 0.452834 66.9373C0.425933 66.9155 0.403515 66.889 0.385581 66.8578L0.0986371 66.4415Z" fill="white"/>
</svg>
