<svg width="24" height="24" viewBox="0 0 24 24" fill="none" xmlns="http://www.w3.org/2000/svg">
<mask id="mask0_4020_5922" style="mask-type:alpha" maskUnits="userSpaceOnUse" x="0" y="0" width="24" height="24">
<rect width="24" height="24" fill="#D9D9D9"/>
</mask>
<g mask="url(#mask0_4020_5922)">
<path fill-rule="evenodd" clip-rule="evenodd" d="M11.5 13.9818L2.51016 6.38673L2.5 18C2.50025 18.2034 2.70386 18.5 3.1 18.5H19.9C20.2964 18.5 20.5 18.2035 20.5 18V6.37815L11.5 13.9818ZM19.2151 5.5H3.78486L11.5 12.0182L19.2151 5.5ZM1 18L1.0105 6C1.0105 4.9 1.945 4 3.1 4H19.9C21.055 4 22 4.9 22 6V18C22 19.1 21.055 20 19.9 20H3.1C1.945 20 1 19.1 1 18Z" fill="#FF7E36"/>
</g>
</svg>
