<svg width="24" height="24" viewBox="0 0 24 24" fill="none" xmlns="http://www.w3.org/2000/svg">
<mask id="mask0_4027_5968" style="mask-type:alpha" maskUnits="userSpaceOnUse" x="0" y="0" width="24" height="24">
<rect width="24" height="24" fill="#D9D9D9"/>
</mask>
<g mask="url(#mask0_4027_5968)">
<path fill-rule="evenodd" clip-rule="evenodd" d="M10.3827 21.2978L10.3809 21.296L10.3729 21.2875L10.3546 21.2678L10.3008 21.2096C10.2525 21.1571 10.1842 21.0823 10.0988 20.987C9.92799 20.7966 9.68787 20.5239 9.40144 20.1847C8.83074 19.5088 8.06562 18.5566 7.29563 17.4572C6.53036 16.3646 5.72996 15.0838 5.11338 13.753C4.51104 12.453 4 10.9284 4 9.39502C4 4.13765 8.10881 1 12 1C15.8912 1 20 4.13765 20 9.39502C20 10.9284 19.489 12.453 18.8866 13.753C18.27 15.0838 17.4696 16.3646 16.7044 17.4572C15.9344 18.5566 15.1693 19.5088 14.5986 20.1847C14.3121 20.5239 14.072 20.7966 13.9012 20.987C13.8158 21.0823 13.7475 21.1571 13.6992 21.2096L13.6965 21.2125L13.6409 21.2727L13.6247 21.2899L13.6177 21.2974C13.2049 21.7361 12.624 22 12 22C11.3772 22 10.7963 21.7373 10.3827 21.2978ZM10.5475 19.2169C9.997 18.565 9.26147 17.6493 8.52425 16.5967C7.78869 15.5465 7.04091 14.3451 6.47439 13.1224C5.91296 11.9107 5.5 10.6158 5.5 9.39502C5.5 5.03061 8.87119 2.5 12 2.5C15.1288 2.5 18.5 5.03061 18.5 9.39502C18.5 10.6158 18.087 11.9107 17.5256 13.1224C16.9591 14.3451 16.2113 15.5465 15.4758 16.5967C14.7385 17.6493 14.003 18.565 13.4525 19.2169C13.1769 19.5434 12.9467 19.8048 12.7847 19.9854C12.7036 20.0757 12.6396 20.1459 12.5953 20.194L12.5442 20.2493L12.5304 20.2641L12.5254 20.2694C12.3869 20.4165 12.1973 20.5 12 20.5C11.8027 20.5 11.6134 20.4169 11.475 20.2698L11.4696 20.2641L11.4558 20.2493L11.4047 20.194C11.3604 20.1459 11.2964 20.0757 11.2153 19.9854C11.0533 19.8048 10.8231 19.5434 10.5475 19.2169Z" fill="#FF7E36"/>
<path fill-rule="evenodd" clip-rule="evenodd" d="M8.5 9C8.5 7.067 10.067 5.5 12 5.5C13.933 5.5 15.5 7.067 15.5 9C15.5 10.933 13.933 12.5 12 12.5C10.067 12.5 8.5 10.933 8.5 9ZM12 7C10.8954 7 10 7.89543 10 9C10 10.1046 10.8954 11 12 11C13.1046 11 14 10.1046 14 9C14 7.89543 13.1046 7 12 7Z" fill="#FF7E36"/>
</g>
</svg>
