<svg width="30" height="41" viewBox="0 0 30 41" fill="none" xmlns="http://www.w3.org/2000/svg">
<path fill-rule="evenodd" clip-rule="evenodd" d="M13.7884 40.4756C13.7884 40.4756 13.7889 40.4762 15 39.2429L13.7884 40.4756ZM16.2125 40.4747L16.2239 40.4626L16.2558 40.429L16.3739 40.3029C16.476 40.1934 16.6238 40.0335 16.8108 39.8278C17.1847 39.4164 17.7158 38.821 18.3519 38.0775C19.6223 36.5924 21.3197 34.5068 23.021 32.1092C24.7184 29.7171 26.4441 26.9805 27.7514 24.1955C29.047 21.4355 30 18.4861 30 15.7053C30 5.76417 22.2203 0 15 0C7.77968 0 0 5.76417 0 15.7053C0 18.4861 0.952994 21.4355 2.24859 24.1955C3.55594 26.9805 5.28159 29.7171 6.97903 32.1092C8.68032 34.5068 10.3777 36.5924 11.6481 38.0775C12.2842 38.821 12.8153 39.4164 13.1892 39.8278C13.3762 40.0335 13.524 40.1934 13.6261 40.3029L13.7442 40.429L13.7761 40.4626L13.7849 40.4719L13.7884 40.4756C14.1079 40.8107 14.5447 41 15 41C15.4553 41 15.8929 40.8098 16.2125 40.4747ZM16.2125 40.4747L15 39.2429C16.2111 40.4762 16.2125 40.4747 16.2125 40.4747ZM9.67254 15.5019C9.67254 12.4612 12.0577 9.99619 15 9.99619C17.9423 9.99619 20.3275 12.4612 20.3275 15.5019C20.3275 18.5426 17.9423 21.0076 15 21.0076C12.0577 21.0076 9.67254 18.5426 9.67254 15.5019Z" fill="#EA5F12"/>
</svg>
