<svg width="24" height="24" viewBox="0 0 24 24" fill="none" xmlns="http://www.w3.org/2000/svg">
<mask id="mask0_4020_5918" style="mask-type:alpha" maskUnits="userSpaceOnUse" x="0" y="0" width="24" height="24">
<rect width="24" height="24" fill="#D9D9D9"/>
</mask>
<g mask="url(#mask0_4020_5918)">
<path d="M18.4691 19.913L18.0911 19.5359M7.57293 4.29588C7.08899 3.88461 6.41487 3.92321 6.05607 4.28121L4.43471 5.89892C4.16188 6.18844 3.99772 6.63047 4.00002 7.25662C4.00235 7.88868 4.17616 8.66623 4.53356 9.54752C5.2476 11.3083 6.65335 13.382 8.62507 15.3493C10.5986 17.3184 12.678 18.7422 14.4426 19.4647C15.3259 19.8264 16.1029 20.0011 16.7329 20C17.358 19.9988 17.7996 19.8268 18.0911 19.5359L19.7034 17.9272C20.1157 17.4443 20.077 16.7718 19.7181 16.4138L17.3204 14.0214C16.7501 13.4524 15.8259 13.7099 15.6181 14.3835L15.6142 14.3962C15.2559 15.4687 14.0924 16.0269 13.0626 15.7985L13.0479 15.7953C12.0527 15.5471 10.9594 14.8085 10.0763 13.9385C9.20018 13.0755 8.4374 11.9907 8.18242 10.9536C7.82849 9.84454 8.56832 8.71258 9.5804 8.37602L9.59302 8.37183C10.2682 8.16455 10.5262 7.24254 9.95595 6.67354L7.57293 4.29588Z" stroke="#FF7E36" stroke-width="1.5"/>
</g>
</svg>
