<svg width="17" height="18" viewBox="0 0 17 18" fill="none" xmlns="http://www.w3.org/2000/svg">
<path fill-rule="evenodd" clip-rule="evenodd" d="M0 7.29929C0 3.54327 3.04382 0.5 6.80053 0.5C10.5572 0.5 13.6011 3.54327 13.6011 7.29929C13.6011 8.87913 13.0651 10.3294 12.1629 11.4832L11.6461 12.144L10.9852 12.6607C9.83122 13.5627 8.38065 14.0986 6.80053 14.0986C3.04382 14.0986 0 11.0553 0 7.29929ZM11.9009 13.6842V12.3988H13.1867C13.2651 12.3988 13.3364 12.4291 13.3881 12.4807L16.9172 16.0092L16.918 16.01C17.0278 16.1219 17.0275 16.3024 16.9158 16.4141L15.9135 17.4163L15.9113 17.4184C15.8049 17.526 15.627 17.5291 15.5142 17.4163L11.9829 13.8856C11.9312 13.834 11.9009 13.7627 11.9009 13.6842ZM6.80053 2.19982C3.97956 2.19982 1.70013 4.48295 1.70013 7.29929C1.70013 10.1197 3.98368 12.3988 6.80053 12.3988C9.6215 12.3988 11.9009 10.1156 11.9009 7.29929C11.9009 4.47884 9.61738 2.19982 6.80053 2.19982Z" fill="#0D0D0E"/>
</svg>
